<svg width="248" height="48" viewBox="0 0 248 48" fill="none" xmlns="http://www.w3.org/2000/svg">
<g filter="url(#filter0_d_18_927)">
<rect x="4" y="2" width="240" height="40" rx="8" fill="#F8FFFB"/>
<rect x="5" y="3" width="238" height="38" rx="7" stroke="url(#paint0_linear_18_927)" stroke-width="2"/>
</g>
<path d="M71.2266 27V17.0059H72.8672V25.6055H77.1123V27H71.2266ZM80.2842 19.4326V27H78.6777V19.4326H80.2842ZM79.4912 16.5342C79.7373 16.5342 79.9492 16.6003 80.127 16.7324C80.3092 16.8646 80.4004 17.0924 80.4004 17.416C80.4004 17.735 80.3092 17.9629 80.127 18.0996C79.9492 18.2318 79.7373 18.2979 79.4912 18.2979C79.236 18.2979 79.0195 18.2318 78.8418 18.0996C78.6686 17.9629 78.582 17.735 78.582 17.416C78.582 17.0924 78.6686 16.8646 78.8418 16.7324C79.0195 16.6003 79.236 16.5342 79.4912 16.5342ZM84.3174 27L81.4395 19.4326H83.1416L84.7002 23.876C84.8005 24.1585 84.8916 24.4639 84.9736 24.792C85.0557 25.1201 85.1126 25.3958 85.1445 25.6191H85.1992C85.2311 25.3867 85.2926 25.1087 85.3838 24.7852C85.4749 24.457 85.5684 24.154 85.6641 23.876L87.2227 19.4326H88.918L86.04 27H84.3174ZM93.0811 19.2891C93.7555 19.2891 94.3343 19.4281 94.8174 19.7061C95.3005 19.984 95.6719 20.3783 95.9316 20.8887C96.1914 21.3991 96.3213 22.0098 96.3213 22.7207V23.582H91.2695C91.2878 24.3158 91.4837 24.8809 91.8574 25.2773C92.2357 25.6738 92.7643 25.8721 93.4434 25.8721C93.9264 25.8721 94.3594 25.8265 94.7422 25.7354C95.1296 25.6396 95.5283 25.5007 95.9385 25.3184V26.624C95.5602 26.8018 95.1751 26.9316 94.7832 27.0137C94.3913 27.0957 93.9219 27.1367 93.375 27.1367C92.6322 27.1367 91.9782 26.9932 91.4131 26.7061C90.8525 26.4144 90.4128 25.9814 90.0938 25.4072C89.7793 24.833 89.6221 24.1198 89.6221 23.2676C89.6221 22.4199 89.7656 21.6999 90.0527 21.1074C90.3398 20.515 90.7432 20.0638 91.2627 19.7539C91.7822 19.444 92.3883 19.2891 93.0811 19.2891ZM93.0811 20.499C92.5752 20.499 92.165 20.6631 91.8506 20.9912C91.5407 21.3193 91.3584 21.8001 91.3037 22.4336H94.749C94.7445 22.0553 94.6807 21.7204 94.5576 21.4287C94.4391 21.137 94.2568 20.9092 94.0107 20.7451C93.7692 20.5811 93.4593 20.499 93.0811 20.499ZM107.703 24.2793C107.703 24.8717 107.557 25.3822 107.266 25.8105C106.979 26.2389 106.564 26.5671 106.021 26.7949C105.484 27.0228 104.841 27.1367 104.094 27.1367C103.729 27.1367 103.381 27.1162 103.048 27.0752C102.715 27.0342 102.401 26.9749 102.104 26.8975C101.813 26.8154 101.546 26.7174 101.305 26.6035V25.0586C101.71 25.2363 102.164 25.3981 102.665 25.5439C103.166 25.6852 103.677 25.7559 104.196 25.7559C104.62 25.7559 104.971 25.7012 105.249 25.5918C105.532 25.4779 105.741 25.3184 105.878 25.1133C106.015 24.9036 106.083 24.6598 106.083 24.3818C106.083 24.0856 106.003 23.835 105.844 23.6299C105.684 23.4248 105.443 23.238 105.119 23.0693C104.8 22.8962 104.399 22.7116 103.916 22.5156C103.588 22.3835 103.273 22.2331 102.973 22.0645C102.676 21.8958 102.412 21.6976 102.18 21.4697C101.947 21.2419 101.763 20.973 101.626 20.6631C101.494 20.3486 101.428 19.9795 101.428 19.5557C101.428 18.9906 101.562 18.5075 101.831 18.1064C102.104 17.7054 102.487 17.3978 102.979 17.1836C103.476 16.9694 104.055 16.8623 104.716 16.8623C105.24 16.8623 105.732 16.917 106.192 17.0264C106.657 17.1357 107.113 17.2907 107.56 17.4912L107.04 18.8105C106.63 18.6419 106.231 18.5075 105.844 18.4072C105.461 18.307 105.069 18.2568 104.668 18.2568C104.322 18.2568 104.028 18.3092 103.786 18.4141C103.545 18.5189 103.36 18.667 103.232 18.8584C103.109 19.0452 103.048 19.2686 103.048 19.5283C103.048 19.82 103.118 20.0661 103.26 20.2666C103.406 20.4626 103.629 20.6426 103.93 20.8066C104.235 20.9707 104.627 21.153 105.105 21.3535C105.657 21.5814 106.124 21.8206 106.507 22.0713C106.894 22.3219 107.19 22.6227 107.396 22.9736C107.601 23.32 107.703 23.7552 107.703 24.2793ZM112.516 27.1367C111.8 27.1367 111.18 26.9977 110.656 26.7197C110.132 26.4417 109.729 26.0156 109.446 25.4414C109.164 24.8672 109.022 24.138 109.022 23.2539C109.022 22.3333 109.177 21.5814 109.487 20.998C109.797 20.4147 110.226 19.984 110.772 19.7061C111.324 19.4281 111.955 19.2891 112.666 19.2891C113.117 19.2891 113.525 19.3346 113.89 19.4258C114.259 19.5124 114.571 19.6195 114.826 19.7471L114.348 21.0322C114.07 20.9183 113.785 20.8226 113.493 20.7451C113.201 20.6676 112.921 20.6289 112.652 20.6289C112.21 20.6289 111.841 20.7269 111.545 20.9229C111.253 21.1188 111.035 21.4105 110.889 21.7979C110.747 22.1852 110.677 22.666 110.677 23.2402C110.677 23.7962 110.75 24.2656 110.896 24.6484C111.041 25.0267 111.258 25.3138 111.545 25.5098C111.832 25.7012 112.185 25.7969 112.604 25.7969C113.019 25.7969 113.391 25.7467 113.719 25.6465C114.047 25.5462 114.357 25.4163 114.648 25.2568V26.6514C114.361 26.8154 114.054 26.9362 113.726 27.0137C113.397 27.0957 112.994 27.1367 112.516 27.1367ZM123.125 23.1992C123.125 23.8281 123.043 24.3864 122.879 24.874C122.715 25.3617 122.476 25.7741 122.161 26.1113C121.847 26.444 121.468 26.6992 121.026 26.877C120.584 27.0501 120.085 27.1367 119.529 27.1367C119.01 27.1367 118.534 27.0501 118.101 26.877C117.668 26.6992 117.292 26.444 116.973 26.1113C116.658 25.7741 116.414 25.3617 116.241 24.874C116.068 24.3864 115.981 23.8281 115.981 23.1992C115.981 22.3652 116.125 21.6589 116.412 21.0801C116.704 20.4967 117.118 20.0524 117.656 19.7471C118.194 19.4417 118.834 19.2891 119.577 19.2891C120.274 19.2891 120.89 19.4417 121.423 19.7471C121.956 20.0524 122.373 20.4967 122.674 21.0801C122.975 21.6634 123.125 22.3698 123.125 23.1992ZM117.636 23.1992C117.636 23.7507 117.702 24.2223 117.834 24.6143C117.971 25.0062 118.18 25.307 118.463 25.5166C118.745 25.7217 119.11 25.8242 119.557 25.8242C120.003 25.8242 120.368 25.7217 120.65 25.5166C120.933 25.307 121.14 25.0062 121.272 24.6143C121.405 24.2223 121.471 23.7507 121.471 23.1992C121.471 22.6478 121.405 22.1807 121.272 21.7979C121.14 21.4105 120.933 21.1165 120.65 20.916C120.368 20.7109 120.001 20.6084 119.55 20.6084C118.884 20.6084 118.399 20.8317 118.094 21.2783C117.788 21.7249 117.636 22.3652 117.636 23.1992ZM128.806 19.2891C128.933 19.2891 129.072 19.2959 129.223 19.3096C129.373 19.3232 129.503 19.3415 129.612 19.3643L129.462 20.8682C129.366 20.8408 129.248 20.8203 129.106 20.8066C128.97 20.793 128.847 20.7861 128.737 20.7861C128.45 20.7861 128.177 20.834 127.917 20.9297C127.657 21.0208 127.427 21.1621 127.227 21.3535C127.026 21.5404 126.869 21.7751 126.755 22.0576C126.641 22.3402 126.584 22.6683 126.584 23.042V27H124.971V19.4326H126.229L126.447 20.7656H126.522C126.673 20.4967 126.86 20.2507 127.083 20.0273C127.306 19.804 127.562 19.6263 127.849 19.4941C128.14 19.3574 128.459 19.2891 128.806 19.2891ZM134.028 19.2891C134.703 19.2891 135.282 19.4281 135.765 19.7061C136.248 19.984 136.619 20.3783 136.879 20.8887C137.139 21.3991 137.269 22.0098 137.269 22.7207V23.582H132.217C132.235 24.3158 132.431 24.8809 132.805 25.2773C133.183 25.6738 133.712 25.8721 134.391 25.8721C134.874 25.8721 135.307 25.8265 135.689 25.7354C136.077 25.6396 136.476 25.5007 136.886 25.3184V26.624C136.507 26.8018 136.122 26.9316 135.73 27.0137C135.339 27.0957 134.869 27.1367 134.322 27.1367C133.579 27.1367 132.925 26.9932 132.36 26.7061C131.8 26.4144 131.36 25.9814 131.041 25.4072C130.727 24.833 130.569 24.1198 130.569 23.2676C130.569 22.4199 130.713 21.6999 131 21.1074C131.287 20.515 131.69 20.0638 132.21 19.7539C132.729 19.444 133.336 19.2891 134.028 19.2891ZM134.028 20.499C133.522 20.499 133.112 20.6631 132.798 20.9912C132.488 21.3193 132.306 21.8001 132.251 22.4336H135.696C135.692 22.0553 135.628 21.7204 135.505 21.4287C135.386 21.137 135.204 20.9092 134.958 20.7451C134.716 20.5811 134.407 20.499 134.028 20.499ZM140.687 16.3633V18.9268C140.687 19.223 140.677 19.5146 140.659 19.8018C140.646 20.0843 140.632 20.3053 140.618 20.4648H140.687C140.892 20.1367 141.176 19.861 141.541 19.6377C141.91 19.4098 142.382 19.2959 142.956 19.2959C143.854 19.2959 144.576 19.6263 145.123 20.2871C145.67 20.9434 145.943 21.9163 145.943 23.2061C145.943 24.0628 145.818 24.7829 145.567 25.3662C145.317 25.9495 144.964 26.3916 144.508 26.6924C144.057 26.9886 143.526 27.1367 142.915 27.1367C142.341 27.1367 141.876 27.0319 141.521 26.8223C141.17 26.6081 140.894 26.3597 140.693 26.0771H140.577L140.283 27H139.08V16.3633H140.687ZM142.532 20.6016C142.076 20.6016 141.714 20.6927 141.445 20.875C141.181 21.0573 140.99 21.3307 140.871 21.6953C140.753 22.0553 140.691 22.5133 140.687 23.0693V23.2129C140.687 24.056 140.819 24.7008 141.083 25.1475C141.352 25.5941 141.84 25.8174 142.546 25.8174C143.106 25.8174 143.537 25.5918 143.838 25.1406C144.139 24.6849 144.289 24.0332 144.289 23.1855C144.289 22.3288 144.139 21.6839 143.838 21.251C143.542 20.818 143.106 20.6016 142.532 20.6016ZM154.502 23.1992C154.502 23.8281 154.42 24.3864 154.256 24.874C154.092 25.3617 153.853 25.7741 153.538 26.1113C153.224 26.444 152.845 26.6992 152.403 26.877C151.961 27.0501 151.462 27.1367 150.906 27.1367C150.387 27.1367 149.91 27.0501 149.478 26.877C149.045 26.6992 148.669 26.444 148.35 26.1113C148.035 25.7741 147.791 25.3617 147.618 24.874C147.445 24.3864 147.358 23.8281 147.358 23.1992C147.358 22.3652 147.502 21.6589 147.789 21.0801C148.081 20.4967 148.495 20.0524 149.033 19.7471C149.571 19.4417 150.211 19.2891 150.954 19.2891C151.651 19.2891 152.267 19.4417 152.8 19.7471C153.333 20.0524 153.75 20.4967 154.051 21.0801C154.352 21.6634 154.502 22.3698 154.502 23.1992ZM149.013 23.1992C149.013 23.7507 149.079 24.2223 149.211 24.6143C149.348 25.0062 149.557 25.307 149.84 25.5166C150.122 25.7217 150.487 25.8242 150.934 25.8242C151.38 25.8242 151.745 25.7217 152.027 25.5166C152.31 25.307 152.517 25.0062 152.649 24.6143C152.782 24.2223 152.848 23.7507 152.848 23.1992C152.848 22.6478 152.782 22.1807 152.649 21.7979C152.517 21.4105 152.31 21.1165 152.027 20.916C151.745 20.7109 151.378 20.6084 150.927 20.6084C150.261 20.6084 149.776 20.8317 149.471 21.2783C149.165 21.7249 149.013 22.3652 149.013 23.1992ZM159.314 19.2891C160.271 19.2891 160.994 19.501 161.481 19.9248C161.974 20.3486 162.22 21.0094 162.22 21.9072V27H161.078L160.771 25.9268H160.716C160.502 26.2002 160.281 26.4258 160.053 26.6035C159.825 26.7812 159.561 26.9134 159.26 27C158.964 27.0911 158.601 27.1367 158.173 27.1367C157.722 27.1367 157.318 27.0547 156.963 26.8906C156.607 26.722 156.327 26.4668 156.122 26.125C155.917 25.7832 155.814 25.3503 155.814 24.8262C155.814 24.0469 156.104 23.4613 156.683 23.0693C157.266 22.6774 158.146 22.4609 159.321 22.4199L160.634 22.3721V21.9756C160.634 21.4515 160.511 21.0778 160.265 20.8545C160.023 20.6312 159.681 20.5195 159.239 20.5195C158.861 20.5195 158.494 20.5742 158.139 20.6836C157.783 20.793 157.437 20.9274 157.1 21.0869L156.58 19.9521C156.949 19.7562 157.368 19.5967 157.838 19.4736C158.312 19.3506 158.804 19.2891 159.314 19.2891ZM160.627 23.3838L159.649 23.418C158.847 23.4453 158.285 23.582 157.961 23.8281C157.637 24.0742 157.476 24.4115 157.476 24.8398C157.476 25.2135 157.587 25.487 157.811 25.6602C158.034 25.8288 158.328 25.9131 158.692 25.9131C159.248 25.9131 159.709 25.7559 160.073 25.4414C160.442 25.1224 160.627 24.6553 160.627 24.04V23.3838ZM168.304 19.2891C168.431 19.2891 168.57 19.2959 168.721 19.3096C168.871 19.3232 169.001 19.3415 169.11 19.3643L168.96 20.8682C168.864 20.8408 168.746 20.8203 168.604 20.8066C168.468 20.793 168.345 20.7861 168.235 20.7861C167.948 20.7861 167.675 20.834 167.415 20.9297C167.155 21.0208 166.925 21.1621 166.725 21.3535C166.524 21.5404 166.367 21.7751 166.253 22.0576C166.139 22.3402 166.082 22.6683 166.082 23.042V27H164.469V19.4326H165.727L165.945 20.7656H166.021C166.171 20.4967 166.358 20.2507 166.581 20.0273C166.804 19.804 167.06 19.6263 167.347 19.4941C167.638 19.3574 167.957 19.2891 168.304 19.2891ZM173.055 27.1367C172.152 27.1367 171.428 26.8086 170.881 26.1523C170.339 25.4915 170.067 24.5186 170.067 23.2334C170.067 21.9346 170.343 20.9525 170.895 20.2871C171.451 19.6217 172.182 19.2891 173.089 19.2891C173.472 19.2891 173.807 19.3415 174.094 19.4463C174.381 19.5465 174.627 19.6833 174.832 19.8564C175.042 20.0296 175.219 20.2233 175.365 20.4375H175.44C175.418 20.2962 175.39 20.0934 175.358 19.8291C175.331 19.5602 175.317 19.3118 175.317 19.084V16.3633H176.931V27H175.673L175.386 25.9678H175.317C175.181 26.1865 175.007 26.3848 174.798 26.5625C174.593 26.7357 174.347 26.8747 174.06 26.9795C173.777 27.0843 173.442 27.1367 173.055 27.1367ZM173.506 25.8311C174.194 25.8311 174.679 25.6328 174.962 25.2363C175.244 24.8398 175.39 24.2451 175.399 23.4521V23.2402C175.399 22.3926 175.263 21.7432 174.989 21.292C174.716 20.8363 174.217 20.6084 173.492 20.6084C172.913 20.6084 172.471 20.8431 172.166 21.3125C171.865 21.7773 171.715 22.4268 171.715 23.2607C171.715 24.0947 171.865 24.7327 172.166 25.1748C172.471 25.6123 172.918 25.8311 173.506 25.8311Z" fill="black"/>
<defs>
<filter id="filter0_d_18_927" x="0" y="0" width="248" height="48" filterUnits="userSpaceOnUse" color-interpolation-filters="sRGB">
<feFlood flood-opacity="0" result="BackgroundImageFix"/>
<feColorMatrix in="SourceAlpha" type="matrix" values="0 0 0 0 0 0 0 0 0 0 0 0 0 0 0 0 0 0 127 0" result="hardAlpha"/>
<feOffset dy="2"/>
<feGaussianBlur stdDeviation="2"/>
<feComposite in2="hardAlpha" operator="out"/>
<feColorMatrix type="matrix" values="0 0 0 0 0.352941 0 0 0 0 0.768627 0 0 0 0 0.47451 0 0 0 0.25 0"/>
<feBlend mode="normal" in2="BackgroundImageFix" result="effect1_dropShadow_18_927"/>
<feBlend mode="normal" in="SourceGraphic" in2="effect1_dropShadow_18_927" result="shape"/>
</filter>
<linearGradient id="paint0_linear_18_927" x1="124" y1="2" x2="124" y2="42" gradientUnits="userSpaceOnUse">
<stop stop-color="#94DFB6"/>
<stop offset="0.28125" stop-color="#7CD49D"/>
<stop offset="1" stop-color="#5AC479"/>
</linearGradient>
</defs>
</svg>
