<svg width="248" height="48" viewBox="0 0 248 48" fill="none" xmlns="http://www.w3.org/2000/svg">
<g filter="url(#filter0_d_18_926)">
<rect x="4" y="2" width="240" height="40" rx="8" fill="#F8FFFB"/>
<rect x="5" y="3" width="238" height="38" rx="7" stroke="url(#paint0_linear_18_926)" stroke-width="2"/>
</g>
<path d="M92.6367 18.2568C92.1582 18.2568 91.7298 18.3434 91.3516 18.5166C90.9779 18.6898 90.6611 18.9404 90.4014 19.2686C90.1416 19.5921 89.9434 19.9863 89.8066 20.4512C89.6699 20.9115 89.6016 21.431 89.6016 22.0098C89.6016 22.7845 89.7109 23.4521 89.9297 24.0127C90.1484 24.5687 90.4811 24.9971 90.9277 25.2979C91.3743 25.5941 91.9395 25.7422 92.623 25.7422C93.0469 25.7422 93.4593 25.7012 93.8604 25.6191C94.2614 25.5371 94.6761 25.4255 95.1045 25.2842V26.6787C94.6989 26.8382 94.2887 26.9544 93.874 27.0273C93.4593 27.1003 92.9808 27.1367 92.4385 27.1367C91.4176 27.1367 90.57 26.9248 89.8955 26.501C89.2256 26.0771 88.7243 25.4801 88.3916 24.71C88.0635 23.9398 87.8994 23.0374 87.8994 22.0029C87.8994 21.2464 88.0042 20.5537 88.2139 19.9248C88.4235 19.2959 88.7288 18.7536 89.1299 18.2979C89.5309 17.8376 90.0254 17.4844 90.6133 17.2383C91.2057 16.9876 91.8825 16.8623 92.6436 16.8623C93.1449 16.8623 93.637 16.9193 94.1201 17.0332C94.6077 17.1426 95.0589 17.2998 95.4736 17.5049L94.8994 18.8584C94.5531 18.6943 94.1908 18.5531 93.8125 18.4346C93.4342 18.3161 93.0423 18.2568 92.6367 18.2568ZM100.054 19.2891C101.011 19.2891 101.733 19.501 102.221 19.9248C102.713 20.3486 102.959 21.0094 102.959 21.9072V27H101.817L101.51 25.9268H101.455C101.241 26.2002 101.02 26.4258 100.792 26.6035C100.564 26.7812 100.3 26.9134 99.999 27C99.7028 27.0911 99.3405 27.1367 98.9121 27.1367C98.4609 27.1367 98.0576 27.0547 97.7021 26.8906C97.3467 26.722 97.0664 26.4668 96.8613 26.125C96.6562 25.7832 96.5537 25.3503 96.5537 24.8262C96.5537 24.0469 96.8431 23.4613 97.4219 23.0693C98.0052 22.6774 98.8848 22.4609 100.061 22.4199L101.373 22.3721V21.9756C101.373 21.4515 101.25 21.0778 101.004 20.8545C100.762 20.6312 100.421 20.5195 99.9785 20.5195C99.6003 20.5195 99.2334 20.5742 98.8779 20.6836C98.5225 20.793 98.1761 20.9274 97.8389 21.0869L97.3193 19.9521C97.6885 19.7562 98.1077 19.5967 98.5771 19.4736C99.0511 19.3506 99.5433 19.2891 100.054 19.2891ZM101.366 23.3838L100.389 23.418C99.5866 23.4453 99.0238 23.582 98.7002 23.8281C98.3766 24.0742 98.2148 24.4115 98.2148 24.8398C98.2148 25.2135 98.3265 25.487 98.5498 25.6602C98.7731 25.8288 99.0671 25.9131 99.4316 25.9131C99.9876 25.9131 100.448 25.7559 100.812 25.4414C101.182 25.1224 101.366 24.6553 101.366 24.04V23.3838ZM110.294 24.8398C110.294 25.3366 110.173 25.7559 109.932 26.0977C109.69 26.4395 109.337 26.6992 108.872 26.877C108.412 27.0501 107.847 27.1367 107.177 27.1367C106.648 27.1367 106.192 27.098 105.81 27.0205C105.431 26.9476 105.074 26.8337 104.736 26.6787V25.291C105.096 25.4596 105.5 25.6055 105.946 25.7285C106.397 25.8516 106.824 25.9131 107.225 25.9131C107.753 25.9131 108.134 25.8311 108.366 25.667C108.599 25.4984 108.715 25.2751 108.715 24.9971C108.715 24.833 108.667 24.6872 108.571 24.5596C108.48 24.4274 108.307 24.293 108.052 24.1562C107.801 24.015 107.432 23.8464 106.944 23.6504C106.466 23.459 106.062 23.2676 105.734 23.0762C105.406 22.8848 105.158 22.6546 104.989 22.3857C104.821 22.1123 104.736 21.7637 104.736 21.3398C104.736 20.6699 105.001 20.1618 105.529 19.8154C106.062 19.4645 106.767 19.2891 107.642 19.2891C108.106 19.2891 108.544 19.3369 108.954 19.4326C109.369 19.5238 109.774 19.6582 110.171 19.8359L109.665 21.0459C109.323 20.8955 108.979 20.7725 108.633 20.6768C108.291 20.5765 107.942 20.5264 107.587 20.5264C107.172 20.5264 106.855 20.5902 106.637 20.7178C106.423 20.8454 106.315 21.0277 106.315 21.2646C106.315 21.4424 106.368 21.5928 106.473 21.7158C106.577 21.8389 106.757 21.9619 107.013 22.085C107.272 22.208 107.632 22.3607 108.093 22.543C108.544 22.7161 108.934 22.8984 109.262 23.0898C109.594 23.2767 109.85 23.5068 110.027 23.7803C110.205 24.0537 110.294 24.4069 110.294 24.8398ZM115.045 19.2891C115.719 19.2891 116.298 19.4281 116.781 19.7061C117.264 19.984 117.636 20.3783 117.896 20.8887C118.155 21.3991 118.285 22.0098 118.285 22.7207V23.582H113.233C113.252 24.3158 113.448 24.8809 113.821 25.2773C114.2 25.6738 114.728 25.8721 115.407 25.8721C115.89 25.8721 116.323 25.8265 116.706 25.7354C117.093 25.6396 117.492 25.5007 117.902 25.3184V26.624C117.524 26.8018 117.139 26.9316 116.747 27.0137C116.355 27.0957 115.886 27.1367 115.339 27.1367C114.596 27.1367 113.942 26.9932 113.377 26.7061C112.816 26.4144 112.377 25.9814 112.058 25.4072C111.743 24.833 111.586 24.1198 111.586 23.2676C111.586 22.4199 111.729 21.6999 112.017 21.1074C112.304 20.515 112.707 20.0638 113.227 19.7539C113.746 19.444 114.352 19.2891 115.045 19.2891ZM115.045 20.499C114.539 20.499 114.129 20.6631 113.814 20.9912C113.505 21.3193 113.322 21.8001 113.268 22.4336H116.713C116.708 22.0553 116.645 21.7204 116.521 21.4287C116.403 21.137 116.221 20.9092 115.975 20.7451C115.733 20.5811 115.423 20.499 115.045 20.499ZM129.667 24.2793C129.667 24.8717 129.521 25.3822 129.229 25.8105C128.942 26.2389 128.528 26.5671 127.985 26.7949C127.448 27.0228 126.805 27.1367 126.058 27.1367C125.693 27.1367 125.344 27.1162 125.012 27.0752C124.679 27.0342 124.365 26.9749 124.068 26.8975C123.777 26.8154 123.51 26.7174 123.269 26.6035V25.0586C123.674 25.2363 124.128 25.3981 124.629 25.5439C125.13 25.6852 125.641 25.7559 126.16 25.7559C126.584 25.7559 126.935 25.7012 127.213 25.5918C127.495 25.4779 127.705 25.3184 127.842 25.1133C127.979 24.9036 128.047 24.6598 128.047 24.3818C128.047 24.0856 127.967 23.835 127.808 23.6299C127.648 23.4248 127.407 23.238 127.083 23.0693C126.764 22.8962 126.363 22.7116 125.88 22.5156C125.552 22.3835 125.237 22.2331 124.937 22.0645C124.64 21.8958 124.376 21.6976 124.144 21.4697C123.911 21.2419 123.727 20.973 123.59 20.6631C123.458 20.3486 123.392 19.9795 123.392 19.5557C123.392 18.9906 123.526 18.5075 123.795 18.1064C124.068 17.7054 124.451 17.3978 124.943 17.1836C125.44 16.9694 126.019 16.8623 126.68 16.8623C127.204 16.8623 127.696 16.917 128.156 17.0264C128.621 17.1357 129.077 17.2907 129.523 17.4912L129.004 18.8105C128.594 18.6419 128.195 18.5075 127.808 18.4072C127.425 18.307 127.033 18.2568 126.632 18.2568C126.285 18.2568 125.992 18.3092 125.75 18.4141C125.508 18.5189 125.324 18.667 125.196 18.8584C125.073 19.0452 125.012 19.2686 125.012 19.5283C125.012 19.82 125.082 20.0661 125.224 20.2666C125.369 20.4626 125.593 20.6426 125.894 20.8066C126.199 20.9707 126.591 21.153 127.069 21.3535C127.621 21.5814 128.088 21.8206 128.471 22.0713C128.858 22.3219 129.154 22.6227 129.359 22.9736C129.564 23.32 129.667 23.7552 129.667 24.2793ZM134.247 25.8379C134.457 25.8379 134.664 25.8197 134.869 25.7832C135.074 25.7422 135.261 25.6943 135.43 25.6396V26.8564C135.252 26.9339 135.022 27 134.739 27.0547C134.457 27.1094 134.163 27.1367 133.857 27.1367C133.429 27.1367 133.044 27.0661 132.702 26.9248C132.36 26.779 132.089 26.5306 131.889 26.1797C131.688 25.8288 131.588 25.3434 131.588 24.7236V20.6562H130.556V19.9385L131.663 19.3711L132.189 17.751H133.201V19.4326H135.368V20.6562H133.201V24.7031C133.201 25.0859 133.297 25.3708 133.488 25.5576C133.68 25.7445 133.933 25.8379 134.247 25.8379ZM143.564 19.4326V27H142.3L142.081 25.9814H141.992C141.833 26.2412 141.63 26.4577 141.384 26.6309C141.138 26.7995 140.864 26.9248 140.563 27.0068C140.263 27.0934 139.946 27.1367 139.613 27.1367C139.044 27.1367 138.556 27.041 138.15 26.8496C137.749 26.6536 137.442 26.3529 137.228 25.9473C137.013 25.5417 136.906 25.0176 136.906 24.375V19.4326H138.52V24.0742C138.52 24.6621 138.638 25.1019 138.875 25.3936C139.117 25.6852 139.49 25.8311 139.996 25.8311C140.484 25.8311 140.871 25.7308 141.158 25.5303C141.445 25.3298 141.648 25.0335 141.767 24.6416C141.89 24.2497 141.951 23.7689 141.951 23.1992V19.4326H143.564ZM148.411 27.1367C147.509 27.1367 146.784 26.8086 146.237 26.1523C145.695 25.4915 145.424 24.5186 145.424 23.2334C145.424 21.9346 145.7 20.9525 146.251 20.2871C146.807 19.6217 147.538 19.2891 148.445 19.2891C148.828 19.2891 149.163 19.3415 149.45 19.4463C149.737 19.5465 149.983 19.6833 150.188 19.8564C150.398 20.0296 150.576 20.2233 150.722 20.4375H150.797C150.774 20.2962 150.747 20.0934 150.715 19.8291C150.688 19.5602 150.674 19.3118 150.674 19.084V16.3633H152.287V27H151.029L150.742 25.9678H150.674C150.537 26.1865 150.364 26.3848 150.154 26.5625C149.949 26.7357 149.703 26.8747 149.416 26.9795C149.133 27.0843 148.799 27.1367 148.411 27.1367ZM148.862 25.8311C149.55 25.8311 150.036 25.6328 150.318 25.2363C150.601 24.8398 150.747 24.2451 150.756 23.4521V23.2402C150.756 22.3926 150.619 21.7432 150.346 21.292C150.072 20.8363 149.573 20.6084 148.849 20.6084C148.27 20.6084 147.828 20.8431 147.522 21.3125C147.222 21.7773 147.071 22.4268 147.071 23.2607C147.071 24.0947 147.222 24.7327 147.522 25.1748C147.828 25.6123 148.274 25.8311 148.862 25.8311ZM153.449 19.4326H155.199L156.751 23.7529C156.819 23.9489 156.881 24.1426 156.936 24.334C156.995 24.5208 157.045 24.7054 157.086 24.8877C157.132 25.07 157.168 25.2523 157.195 25.4346H157.236C157.282 25.1976 157.346 24.9333 157.428 24.6416C157.514 24.3454 157.61 24.0492 157.715 23.7529L159.205 19.4326H160.935L157.688 28.0391C157.501 28.5312 157.271 28.9505 156.997 29.2969C156.728 29.6478 156.409 29.9121 156.04 30.0898C155.671 30.2721 155.249 30.3633 154.775 30.3633C154.548 30.3633 154.349 30.3496 154.181 30.3223C154.012 30.2995 153.868 30.2744 153.75 30.2471V28.9619C153.846 28.9847 153.966 29.0052 154.112 29.0234C154.258 29.0417 154.409 29.0508 154.563 29.0508C154.851 29.0508 155.099 28.9938 155.309 28.8799C155.518 28.766 155.696 28.6042 155.842 28.3945C155.988 28.1895 156.108 27.9548 156.204 27.6904L156.471 26.9795L153.449 19.4326Z" fill="black"/>
<defs>
<filter id="filter0_d_18_926" x="0" y="0" width="248" height="48" filterUnits="userSpaceOnUse" color-interpolation-filters="sRGB">
<feFlood flood-opacity="0" result="BackgroundImageFix"/>
<feColorMatrix in="SourceAlpha" type="matrix" values="0 0 0 0 0 0 0 0 0 0 0 0 0 0 0 0 0 0 127 0" result="hardAlpha"/>
<feOffset dy="2"/>
<feGaussianBlur stdDeviation="2"/>
<feComposite in2="hardAlpha" operator="out"/>
<feColorMatrix type="matrix" values="0 0 0 0 0.352941 0 0 0 0 0.768627 0 0 0 0 0.47451 0 0 0 0.25 0"/>
<feBlend mode="normal" in2="BackgroundImageFix" result="effect1_dropShadow_18_926"/>
<feBlend mode="normal" in="SourceGraphic" in2="effect1_dropShadow_18_926" result="shape"/>
</filter>
<linearGradient id="paint0_linear_18_926" x1="124" y1="2" x2="124" y2="42" gradientUnits="userSpaceOnUse">
<stop stop-color="#94DFB6"/>
<stop offset="0.28125" stop-color="#7CD49D"/>
<stop offset="1" stop-color="#5AC479"/>
</linearGradient>
</defs>
</svg>
