<svg width="248" height="48" viewBox="0 0 248 48" fill="none" xmlns="http://www.w3.org/2000/svg">
<g filter="url(#filter0_d_18_925)">
<rect x="4" y="2" width="240" height="40" rx="8" fill="#005983"/>
<rect x="5" y="3" width="238" height="38" rx="7" stroke="url(#paint0_linear_18_925)" stroke-width="2"/>
</g>
<path d="M111.668 24.2793C111.668 24.8717 111.522 25.3822 111.23 25.8105C110.943 26.2389 110.529 26.5671 109.986 26.7949C109.449 27.0228 108.806 27.1367 108.059 27.1367C107.694 27.1367 107.345 27.1162 107.013 27.0752C106.68 27.0342 106.366 26.9749 106.069 26.8975C105.778 26.8154 105.511 26.7174 105.27 26.6035V25.0586C105.675 25.2363 106.129 25.3981 106.63 25.5439C107.131 25.6852 107.642 25.7559 108.161 25.7559C108.585 25.7559 108.936 25.7012 109.214 25.5918C109.496 25.4779 109.706 25.3184 109.843 25.1133C109.979 24.9036 110.048 24.6598 110.048 24.3818C110.048 24.0856 109.968 23.835 109.809 23.6299C109.649 23.4248 109.408 23.238 109.084 23.0693C108.765 22.8962 108.364 22.7116 107.881 22.5156C107.553 22.3835 107.238 22.2331 106.938 22.0645C106.641 21.8958 106.377 21.6976 106.145 21.4697C105.912 21.2419 105.728 20.973 105.591 20.6631C105.459 20.3486 105.393 19.9795 105.393 19.5557C105.393 18.9906 105.527 18.5075 105.796 18.1064C106.069 17.7054 106.452 17.3978 106.944 17.1836C107.441 16.9694 108.02 16.8623 108.681 16.8623C109.205 16.8623 109.697 16.917 110.157 17.0264C110.622 17.1357 111.078 17.2907 111.524 17.4912L111.005 18.8105C110.595 18.6419 110.196 18.5075 109.809 18.4072C109.426 18.307 109.034 18.2568 108.633 18.2568C108.286 18.2568 107.993 18.3092 107.751 18.4141C107.509 18.5189 107.325 18.667 107.197 18.8584C107.074 19.0452 107.013 19.2686 107.013 19.5283C107.013 19.82 107.083 20.0661 107.225 20.2666C107.37 20.4626 107.594 20.6426 107.895 20.8066C108.2 20.9707 108.592 21.153 109.07 21.3535C109.622 21.5814 110.089 21.8206 110.472 22.0713C110.859 22.3219 111.155 22.6227 111.36 22.9736C111.565 23.32 111.668 23.7552 111.668 24.2793ZM115.038 16.3633V19.0361C115.038 19.3141 115.029 19.5853 115.011 19.8496C114.997 20.1139 114.981 20.319 114.963 20.4648H115.052C115.211 20.2005 115.407 19.984 115.64 19.8154C115.872 19.6423 116.132 19.5124 116.419 19.4258C116.711 19.3392 117.021 19.2959 117.349 19.2959C117.927 19.2959 118.42 19.3939 118.825 19.5898C119.231 19.7812 119.541 20.0798 119.755 20.4854C119.974 20.891 120.083 21.4173 120.083 22.0645V27H118.477V22.3652C118.477 21.7773 118.356 21.3376 118.114 21.0459C117.873 20.7497 117.499 20.6016 116.993 20.6016C116.506 20.6016 116.118 20.7041 115.831 20.9092C115.549 21.1097 115.346 21.4082 115.223 21.8047C115.1 22.1966 115.038 22.6751 115.038 23.2402V27H113.432V16.3633H115.038ZM125.299 19.2891C126.256 19.2891 126.978 19.501 127.466 19.9248C127.958 20.3486 128.204 21.0094 128.204 21.9072V27H127.062L126.755 25.9268H126.7C126.486 26.2002 126.265 26.4258 126.037 26.6035C125.809 26.7812 125.545 26.9134 125.244 27C124.948 27.0911 124.586 27.1367 124.157 27.1367C123.706 27.1367 123.303 27.0547 122.947 26.8906C122.592 26.722 122.312 26.4668 122.106 26.125C121.901 25.7832 121.799 25.3503 121.799 24.8262C121.799 24.0469 122.088 23.4613 122.667 23.0693C123.25 22.6774 124.13 22.4609 125.306 22.4199L126.618 22.3721V21.9756C126.618 21.4515 126.495 21.0778 126.249 20.8545C126.007 20.6312 125.666 20.5195 125.224 20.5195C124.845 20.5195 124.479 20.5742 124.123 20.6836C123.768 20.793 123.421 20.9274 123.084 21.0869L122.564 19.9521C122.934 19.7562 123.353 19.5967 123.822 19.4736C124.296 19.3506 124.788 19.2891 125.299 19.2891ZM126.611 23.3838L125.634 23.418C124.832 23.4453 124.269 23.582 123.945 23.8281C123.622 24.0742 123.46 24.4115 123.46 24.8398C123.46 25.2135 123.572 25.487 123.795 25.6602C124.018 25.8288 124.312 25.9131 124.677 25.9131C125.233 25.9131 125.693 25.7559 126.058 25.4414C126.427 25.1224 126.611 24.6553 126.611 24.04V23.3838ZM134.288 19.2891C134.416 19.2891 134.555 19.2959 134.705 19.3096C134.855 19.3232 134.985 19.3415 135.095 19.3643L134.944 20.8682C134.849 20.8408 134.73 20.8203 134.589 20.8066C134.452 20.793 134.329 20.7861 134.22 20.7861C133.933 20.7861 133.659 20.834 133.399 20.9297C133.14 21.0208 132.91 21.1621 132.709 21.3535C132.508 21.5404 132.351 21.7751 132.237 22.0576C132.123 22.3402 132.066 22.6683 132.066 23.042V27H130.453V19.4326H131.711L131.93 20.7656H132.005C132.155 20.4967 132.342 20.2507 132.565 20.0273C132.789 19.804 133.044 19.6263 133.331 19.4941C133.623 19.3574 133.942 19.2891 134.288 19.2891ZM139.511 19.2891C140.185 19.2891 140.764 19.4281 141.247 19.7061C141.73 19.984 142.102 20.3783 142.361 20.8887C142.621 21.3991 142.751 22.0098 142.751 22.7207V23.582H137.699C137.717 24.3158 137.913 24.8809 138.287 25.2773C138.665 25.6738 139.194 25.8721 139.873 25.8721C140.356 25.8721 140.789 25.8265 141.172 25.7354C141.559 25.6396 141.958 25.5007 142.368 25.3184V26.624C141.99 26.8018 141.605 26.9316 141.213 27.0137C140.821 27.0957 140.352 27.1367 139.805 27.1367C139.062 27.1367 138.408 26.9932 137.843 26.7061C137.282 26.4144 136.842 25.9814 136.523 25.4072C136.209 24.833 136.052 24.1198 136.052 23.2676C136.052 22.4199 136.195 21.6999 136.482 21.1074C136.77 20.515 137.173 20.0638 137.692 19.7539C138.212 19.444 138.818 19.2891 139.511 19.2891ZM139.511 20.499C139.005 20.499 138.595 20.6631 138.28 20.9912C137.97 21.3193 137.788 21.8001 137.733 22.4336H141.179C141.174 22.0553 141.11 21.7204 140.987 21.4287C140.869 21.137 140.687 20.9092 140.44 20.7451C140.199 20.5811 139.889 20.499 139.511 20.499Z" fill="#FEFEFF"/>
<defs>
<filter id="filter0_d_18_925" x="0" y="0" width="248" height="48" filterUnits="userSpaceOnUse" color-interpolation-filters="sRGB">
<feFlood flood-opacity="0" result="BackgroundImageFix"/>
<feColorMatrix in="SourceAlpha" type="matrix" values="0 0 0 0 0 0 0 0 0 0 0 0 0 0 0 0 0 0 127 0" result="hardAlpha"/>
<feOffset dy="2"/>
<feGaussianBlur stdDeviation="2"/>
<feComposite in2="hardAlpha" operator="out"/>
<feColorMatrix type="matrix" values="0 0 0 0 0.352941 0 0 0 0 0.768627 0 0 0 0 0.47451 0 0 0 0.25 0"/>
<feBlend mode="normal" in2="BackgroundImageFix" result="effect1_dropShadow_18_925"/>
<feBlend mode="normal" in="SourceGraphic" in2="effect1_dropShadow_18_925" result="shape"/>
</filter>
<linearGradient id="paint0_linear_18_925" x1="124" y1="2" x2="124" y2="42" gradientUnits="userSpaceOnUse">
<stop stop-color="#48A5D1"/>
<stop offset="1" stop-color="#D8F5FF"/>
</linearGradient>
</defs>
</svg>
