<svg width="24" height="24" viewBox="0 0 24 24" fill="none" xmlns="http://www.w3.org/2000/svg">
<mask id="mask0_24_1832" style="mask-type:alpha" maskUnits="userSpaceOnUse" x="0" y="0" width="24" height="24">
<rect width="24" height="24" fill="white"/>
</mask>
<g mask="url(#mask0_24_1832)">
<path d="M12.2121 12.0125L17.7006 6.42412C17.8004 6.32432 17.8004 6.17464 17.7006 6.07484C17.6008 5.97505 17.4511 5.97505 17.3514 6.07484L11.8628 11.6632L6.37422 6.07484C6.32432 6.02495 6.12474 6.02495 6.07484 6.07484C5.97505 6.17464 5.97505 6.32432 6.07484 6.42412L11.5634 12.0125L6.07484 17.6008C5.97505 17.7006 5.97505 17.8503 6.07484 17.9501C6.12474 18 6.17464 18 6.22453 18C6.27443 18 6.37422 18 6.37422 17.9501L11.8628 12.3617L17.3514 17.9501C17.4012 18 17.4511 18 17.501 18C17.5509 18 17.6008 18 17.6507 17.9501C17.7505 17.8503 17.7505 17.7006 17.6507 17.6008L12.2121 12.0125Z" fill="black" stroke="black"/>
</g>
</svg>
