<svg width="270" height="220" viewBox="0 0 270 220" fill="none" xmlns="http://www.w3.org/2000/svg">
<g filter="url(#filter0_d_301_286)">
<rect x="8" y="22" width="254" height="168" rx="8" fill="url(#paint0_linear_301_286)"/>
<rect x="9" y="23" width="252" height="166" rx="7" stroke="url(#paint1_linear_301_286)" stroke-width="2"/>
</g>
<rect x="17" y="32" width="235" height="148" rx="8" fill="#FEFEFF"/>
<g filter="url(#filter1_d_301_286)">
<rect x="31" width="208" height="44" rx="8" fill="url(#paint2_linear_301_286)"/>
<rect x="32" y="1" width="206" height="42" rx="7" stroke="#6ADA8B" stroke-width="2"/>
</g>
<path d="M55.0938 31V15.2949H58.4238V31H55.0938ZM76.3096 31H72.0771L65.2451 19.1191H65.1484C65.1771 19.6133 65.2021 20.111 65.2236 20.6123C65.2451 21.1136 65.2666 21.6149 65.2881 22.1162C65.3096 22.6104 65.3311 23.1081 65.3525 23.6094V31H62.377V15.2949H66.5771L73.3984 27.0576H73.4736C73.4593 26.5706 73.4414 26.0872 73.4199 25.6074C73.3984 25.1276 73.377 24.6478 73.3555 24.168C73.3411 23.6882 73.3268 23.2083 73.3125 22.7285V15.2949H76.3096V31ZM89.5439 26.6387C89.5439 27.5697 89.3184 28.3789 88.8672 29.0664C88.416 29.7539 87.7572 30.2839 86.8906 30.6562C86.0312 31.0286 84.9857 31.2148 83.7539 31.2148C83.2096 31.2148 82.6761 31.179 82.1533 31.1074C81.6377 31.0358 81.14 30.932 80.6602 30.7959C80.1875 30.6527 79.7363 30.4772 79.3066 30.2695V27.1758C80.0514 27.5052 80.8249 27.8024 81.627 28.0674C82.429 28.3324 83.224 28.4648 84.0117 28.4648C84.556 28.4648 84.9928 28.3932 85.3223 28.25C85.6589 28.1068 85.9023 27.9098 86.0527 27.6592C86.2031 27.4085 86.2783 27.1221 86.2783 26.7998C86.2783 26.4059 86.1458 26.0693 85.8809 25.79C85.6159 25.5107 85.2507 25.2493 84.7852 25.0059C84.3268 24.7624 83.8076 24.501 83.2275 24.2217C82.8623 24.0498 82.4648 23.8421 82.0352 23.5986C81.6055 23.348 81.1973 23.0436 80.8105 22.6855C80.4238 22.3275 80.1051 21.8942 79.8545 21.3857C79.611 20.8701 79.4893 20.2542 79.4893 19.5381C79.4893 18.5999 79.7041 17.7979 80.1338 17.1318C80.5635 16.4658 81.1758 15.9574 81.9707 15.6064C82.7728 15.2484 83.7181 15.0693 84.8066 15.0693C85.623 15.0693 86.4001 15.166 87.1377 15.3594C87.8825 15.5456 88.6595 15.8177 89.4688 16.1758L88.3945 18.7646C87.6712 18.471 87.0231 18.2454 86.4502 18.0879C85.8773 17.9232 85.2936 17.8408 84.6992 17.8408C84.2839 17.8408 83.9294 17.9089 83.6357 18.0449C83.3421 18.1738 83.1201 18.36 82.9697 18.6035C82.8193 18.8398 82.7441 19.1156 82.7441 19.4307C82.7441 19.8031 82.8516 20.1182 83.0664 20.376C83.2884 20.6266 83.6178 20.8701 84.0547 21.1064C84.4987 21.3428 85.0501 21.6185 85.709 21.9336C86.5111 22.3132 87.195 22.7106 87.7607 23.126C88.3337 23.5342 88.7741 24.0176 89.082 24.5762C89.39 25.1276 89.5439 25.8151 89.5439 26.6387ZM98.4492 31H95.1191V18.0664H90.8545V15.2949H102.714V18.0664H98.4492V31ZM109.707 15.2949C111.132 15.2949 112.307 15.4668 113.23 15.8105C114.161 16.1543 114.853 16.6735 115.304 17.3682C115.755 18.0628 115.98 18.9401 115.98 20C115.98 20.7161 115.844 21.3428 115.572 21.8799C115.3 22.417 114.942 22.8717 114.498 23.2441C114.054 23.6165 113.574 23.9209 113.059 24.1572L117.678 31H113.982L110.233 24.9736H108.461V31H105.131V15.2949H109.707ZM109.471 18.0234H108.461V22.2666H109.535C110.638 22.2666 111.426 22.084 111.898 21.7188C112.378 21.3464 112.618 20.8021 112.618 20.0859C112.618 19.3411 112.36 18.8112 111.845 18.4961C111.336 18.181 110.545 18.0234 109.471 18.0234ZM132.438 15.2949V25.457C132.438 26.5384 132.198 27.516 131.718 28.3896C131.245 29.2562 130.525 29.9437 129.559 30.4521C128.599 30.9606 127.389 31.2148 125.928 31.2148C123.851 31.2148 122.268 30.6849 121.18 29.625C120.091 28.5651 119.547 27.1615 119.547 25.4141V15.2949H122.866V24.9092C122.866 26.2054 123.131 27.1149 123.661 27.6377C124.191 28.1605 124.975 28.4219 126.014 28.4219C126.744 28.4219 127.335 28.2965 127.786 28.0459C128.244 27.7952 128.581 27.4085 128.796 26.8857C129.011 26.363 129.118 25.6969 129.118 24.8877V15.2949H132.438ZM142.954 17.8408C142.317 17.8408 141.751 17.9661 141.257 18.2168C140.77 18.4603 140.358 18.8148 140.021 19.2803C139.692 19.7458 139.441 20.3079 139.27 20.9668C139.098 21.6257 139.012 22.3669 139.012 23.1904C139.012 24.3005 139.148 25.2493 139.42 26.0371C139.699 26.8177 140.129 27.4157 140.709 27.8311C141.289 28.2393 142.037 28.4434 142.954 28.4434C143.591 28.4434 144.229 28.3717 144.866 28.2285C145.511 28.0853 146.209 27.8812 146.961 27.6162V30.4092C146.266 30.6956 145.582 30.8997 144.909 31.0215C144.236 31.1504 143.48 31.2148 142.643 31.2148C141.024 31.2148 139.692 30.8818 138.646 30.2158C137.608 29.5426 136.838 28.6045 136.337 27.4014C135.836 26.1911 135.585 24.7803 135.585 23.1689C135.585 21.9801 135.746 20.8916 136.068 19.9033C136.391 18.915 136.863 18.0592 137.486 17.3359C138.109 16.6126 138.879 16.054 139.796 15.6602C140.713 15.2663 141.765 15.0693 142.954 15.0693C143.735 15.0693 144.515 15.1696 145.296 15.3701C146.084 15.5635 146.836 15.832 147.552 16.1758L146.478 18.8828C145.89 18.6035 145.299 18.36 144.705 18.1523C144.111 17.9447 143.527 17.8408 142.954 17.8408ZM156.371 31H153.041V18.0664H148.776V15.2949H160.636V18.0664H156.371V31ZM163.053 31V15.2949H166.383V31H163.053ZM184.591 23.126C184.591 24.3363 184.44 25.4391 184.14 26.4346C183.839 27.4229 183.381 28.2751 182.765 28.9912C182.156 29.7074 181.382 30.2588 180.444 30.6455C179.506 31.0251 178.396 31.2148 177.114 31.2148C175.832 31.2148 174.722 31.0251 173.784 30.6455C172.846 30.2588 172.069 29.7074 171.453 28.9912C170.844 28.2751 170.39 27.4193 170.089 26.4238C169.788 25.4284 169.638 24.3219 169.638 23.1045C169.638 21.4788 169.903 20.0645 170.433 18.8613C170.97 17.651 171.793 16.7129 172.903 16.0469C174.013 15.3809 175.424 15.0479 177.136 15.0479C178.84 15.0479 180.24 15.3809 181.336 16.0469C182.439 16.7129 183.255 17.651 183.785 18.8613C184.322 20.0716 184.591 21.4932 184.591 23.126ZM173.129 23.126C173.129 24.2217 173.265 25.167 173.537 25.9619C173.816 26.7497 174.25 27.3584 174.837 27.7881C175.424 28.2106 176.183 28.4219 177.114 28.4219C178.06 28.4219 178.826 28.2106 179.413 27.7881C180 27.3584 180.426 26.7497 180.691 25.9619C180.964 25.167 181.1 24.2217 181.1 23.126C181.1 21.4788 180.792 20.1826 180.176 19.2373C179.56 18.292 178.547 17.8193 177.136 17.8193C176.198 17.8193 175.431 18.0342 174.837 18.4639C174.25 18.8864 173.816 19.4951 173.537 20.29C173.265 21.0778 173.129 22.0231 173.129 23.126ZM201.778 31H197.546L190.714 19.1191H190.617C190.646 19.6133 190.671 20.111 190.692 20.6123C190.714 21.1136 190.735 21.6149 190.757 22.1162C190.778 22.6104 190.8 23.1081 190.821 23.6094V31H187.846V15.2949H192.046L198.867 27.0576H198.942C198.928 26.5706 198.91 26.0872 198.889 25.6074C198.867 25.1276 198.846 24.6478 198.824 24.168C198.81 23.6882 198.796 23.2083 198.781 22.7285V15.2949H201.778V31ZM215.013 26.6387C215.013 27.5697 214.787 28.3789 214.336 29.0664C213.885 29.7539 213.226 30.2839 212.359 30.6562C211.5 31.0286 210.454 31.2148 209.223 31.2148C208.678 31.2148 208.145 31.179 207.622 31.1074C207.106 31.0358 206.609 30.932 206.129 30.7959C205.656 30.6527 205.205 30.4772 204.775 30.2695V27.1758C205.52 27.5052 206.294 27.8024 207.096 28.0674C207.898 28.3324 208.693 28.4648 209.48 28.4648C210.025 28.4648 210.462 28.3932 210.791 28.25C211.128 28.1068 211.371 27.9098 211.521 27.6592C211.672 27.4085 211.747 27.1221 211.747 26.7998C211.747 26.4059 211.615 26.0693 211.35 25.79C211.085 25.5107 210.719 25.2493 210.254 25.0059C209.796 24.7624 209.276 24.501 208.696 24.2217C208.331 24.0498 207.934 23.8421 207.504 23.5986C207.074 23.348 206.666 23.0436 206.279 22.6855C205.893 22.3275 205.574 21.8942 205.323 21.3857C205.08 20.8701 204.958 20.2542 204.958 19.5381C204.958 18.5999 205.173 17.7979 205.603 17.1318C206.032 16.4658 206.645 15.9574 207.439 15.6064C208.242 15.2484 209.187 15.0693 210.275 15.0693C211.092 15.0693 211.869 15.166 212.606 15.3594C213.351 15.5456 214.128 15.8177 214.938 16.1758L213.863 18.7646C213.14 18.471 212.492 18.2454 211.919 18.0879C211.346 17.9232 210.762 17.8408 210.168 17.8408C209.753 17.8408 209.398 17.9089 209.104 18.0449C208.811 18.1738 208.589 18.36 208.438 18.6035C208.288 18.8398 208.213 19.1156 208.213 19.4307C208.213 19.8031 208.32 20.1182 208.535 20.376C208.757 20.6266 209.087 20.8701 209.523 21.1064C209.967 21.3428 210.519 21.6185 211.178 21.9336C211.98 22.3132 212.664 22.7106 213.229 23.126C213.802 23.5342 214.243 24.0176 214.551 24.5762C214.859 25.1276 215.013 25.8151 215.013 26.6387Z" fill="#FEFEFF"/>
<path d="M57.1992 86V77.4336H58.1953V85.1094H61.998V86H57.1992ZM68.8594 82.7773C68.8594 83.3047 68.791 83.7754 68.6543 84.1895C68.5176 84.6035 68.3203 84.9531 68.0625 85.2383C67.8047 85.5234 67.4922 85.7422 67.125 85.8945C66.7617 86.043 66.3496 86.1172 65.8887 86.1172C65.459 86.1172 65.0645 86.043 64.7051 85.8945C64.3496 85.7422 64.041 85.5234 63.7793 85.2383C63.5215 84.9531 63.3203 84.6035 63.1758 84.1895C63.0352 83.7754 62.9648 83.3047 62.9648 82.7773C62.9648 82.0742 63.084 81.4766 63.3223 80.9844C63.5605 80.4883 63.9004 80.1113 64.3418 79.8535C64.7871 79.5918 65.3164 79.4609 65.9297 79.4609C66.5156 79.4609 67.0273 79.5918 67.4648 79.8535C67.9062 80.1152 68.248 80.4941 68.4902 80.9902C68.7363 81.4824 68.8594 82.0781 68.8594 82.7773ZM63.9727 82.7773C63.9727 83.293 64.041 83.7402 64.1777 84.1191C64.3145 84.498 64.5254 84.791 64.8105 84.998C65.0957 85.2051 65.4629 85.3086 65.9121 85.3086C66.3574 85.3086 66.7227 85.2051 67.0078 84.998C67.2969 84.791 67.5098 84.498 67.6465 84.1191C67.7832 83.7402 67.8516 83.293 67.8516 82.7773C67.8516 82.2656 67.7832 81.8242 67.6465 81.4531C67.5098 81.0781 67.2988 80.7891 67.0137 80.5859C66.7285 80.3828 66.3594 80.2812 65.9062 80.2812C65.2383 80.2812 64.748 80.502 64.4355 80.9434C64.127 81.3848 63.9727 81.9961 63.9727 82.7773ZM73.459 79.4609C73.5879 79.4609 73.7227 79.4688 73.8633 79.4844C74.0039 79.4961 74.1289 79.5137 74.2383 79.5371L74.1152 80.4395C74.0098 80.4121 73.8926 80.3906 73.7637 80.375C73.6348 80.3594 73.5137 80.3516 73.4004 80.3516C73.1426 80.3516 72.8984 80.4043 72.668 80.5098C72.4414 80.6113 72.2422 80.7598 72.0703 80.9551C71.8984 81.1465 71.7637 81.3789 71.666 81.6523C71.5684 81.9219 71.5195 82.2227 71.5195 82.5547V86H70.541V79.5781H71.3496L71.4551 80.7617H71.4961C71.6289 80.5234 71.7891 80.3066 71.9766 80.1113C72.1641 79.9121 72.3809 79.7539 72.627 79.6367C72.877 79.5195 73.1543 79.4609 73.459 79.4609ZM77.9238 79.4609C78.4707 79.4609 78.9395 79.582 79.3301 79.8242C79.7207 80.0664 80.0195 80.4062 80.2266 80.8438C80.4336 81.2773 80.5371 81.7852 80.5371 82.3672V82.9707H76.1016C76.1133 83.7246 76.3008 84.2988 76.6641 84.6934C77.0273 85.0879 77.5391 85.2852 78.1992 85.2852C78.6055 85.2852 78.9648 85.248 79.2773 85.1738C79.5898 85.0996 79.9141 84.9902 80.25 84.8457V85.7012C79.9258 85.8457 79.6035 85.9512 79.2832 86.0176C78.9668 86.084 78.5918 86.1172 78.1582 86.1172C77.541 86.1172 77.002 85.9922 76.541 85.7422C76.084 85.4883 75.7285 85.1172 75.4746 84.6289C75.2207 84.1406 75.0938 83.543 75.0938 82.8359C75.0938 82.1445 75.209 81.5469 75.4395 81.043C75.6738 80.5352 76.002 80.1445 76.4238 79.8711C76.8496 79.5977 77.3496 79.4609 77.9238 79.4609ZM77.9121 80.2578C77.3926 80.2578 76.9785 80.4277 76.6699 80.7676C76.3613 81.1074 76.1777 81.582 76.1191 82.1914H79.5176C79.5137 81.8086 79.4531 81.4727 79.3359 81.1836C79.2227 80.8906 79.0488 80.6641 78.8145 80.5039C78.5801 80.3398 78.2793 80.2578 77.9121 80.2578ZM89.1621 79.4609C89.8691 79.4609 90.4023 79.6465 90.7617 80.0176C91.1211 80.3848 91.3008 80.9766 91.3008 81.793V86H90.3398V81.8398C90.3398 81.3203 90.2266 80.9316 90 80.6738C89.7773 80.4121 89.4453 80.2812 89.0039 80.2812C88.3828 80.2812 87.9316 80.4609 87.6504 80.8203C87.3691 81.1797 87.2285 81.709 87.2285 82.4082V86H86.2617V81.8398C86.2617 81.4922 86.2109 81.2031 86.1094 80.9727C86.0117 80.7422 85.8633 80.5703 85.6641 80.457C85.4688 80.3398 85.2207 80.2812 84.9199 80.2812C84.4941 80.2812 84.1523 80.3691 83.8945 80.5449C83.6367 80.7207 83.4492 80.9824 83.332 81.3301C83.2188 81.6738 83.1621 82.0977 83.1621 82.6016V86H82.1895V79.5781H82.9746L83.1211 80.4863H83.1738C83.3027 80.2637 83.4648 80.0762 83.6602 79.9238C83.8555 79.7715 84.0742 79.6562 84.3164 79.5781C84.5586 79.5 84.8164 79.4609 85.0898 79.4609C85.5781 79.4609 85.9863 79.5527 86.3145 79.7363C86.6465 79.916 86.8867 80.1914 87.0352 80.5625H87.0879C87.2988 80.1914 87.5879 79.916 87.9551 79.7363C88.3223 79.5527 88.7246 79.4609 89.1621 79.4609ZM97.3887 79.5781V86H96.416V79.5781H97.3887ZM96.9141 77.1758C97.0742 77.1758 97.2109 77.2285 97.3242 77.334C97.4414 77.4355 97.5 77.5957 97.5 77.8145C97.5 78.0293 97.4414 78.1895 97.3242 78.2949C97.2109 78.4004 97.0742 78.4531 96.9141 78.4531C96.7461 78.4531 96.6055 78.4004 96.4922 78.2949C96.3828 78.1895 96.3281 78.0293 96.3281 77.8145C96.3281 77.5957 96.3828 77.4355 96.4922 77.334C96.6055 77.2285 96.7461 77.1758 96.9141 77.1758ZM102.469 79.4609C103.27 79.4609 103.908 79.7363 104.385 80.2871C104.861 80.8379 105.1 81.666 105.1 82.7715C105.1 83.502 104.99 84.1152 104.771 84.6113C104.553 85.1074 104.244 85.4824 103.846 85.7363C103.451 85.9902 102.984 86.1172 102.445 86.1172C102.105 86.1172 101.807 86.0723 101.549 85.9824C101.291 85.8926 101.07 85.7715 100.887 85.6191C100.703 85.4668 100.551 85.3008 100.43 85.1211H100.359C100.371 85.2734 100.385 85.457 100.4 85.6719C100.42 85.8867 100.43 86.0742 100.43 86.2344V88.8711H99.4512V79.5781H100.254L100.383 80.5273H100.43C100.555 80.332 100.707 80.1543 100.887 79.9941C101.066 79.8301 101.285 79.7012 101.543 79.6074C101.805 79.5098 102.113 79.4609 102.469 79.4609ZM102.299 80.2812C101.854 80.2812 101.494 80.3672 101.221 80.5391C100.951 80.7109 100.754 80.9688 100.629 81.3125C100.504 81.6523 100.438 82.0801 100.43 82.5957V82.7832C100.43 83.3262 100.488 83.7852 100.605 84.1602C100.727 84.5352 100.924 84.8203 101.197 85.0156C101.475 85.2109 101.846 85.3086 102.311 85.3086C102.709 85.3086 103.041 85.2012 103.307 84.9863C103.572 84.7715 103.77 84.4727 103.898 84.0898C104.031 83.7031 104.098 83.2598 104.098 82.7598C104.098 82.002 103.949 81.4004 103.652 80.9551C103.359 80.5059 102.908 80.2812 102.299 80.2812ZM110.953 84.2422C110.953 84.6523 110.85 84.998 110.643 85.2793C110.439 85.5566 110.146 85.7656 109.764 85.9062C109.385 86.0469 108.932 86.1172 108.404 86.1172C107.955 86.1172 107.566 86.082 107.238 86.0117C106.91 85.9414 106.623 85.8418 106.377 85.7129V84.8164C106.639 84.9453 106.951 85.0625 107.314 85.168C107.678 85.2734 108.049 85.3262 108.428 85.3262C108.982 85.3262 109.385 85.2363 109.635 85.0566C109.885 84.877 110.01 84.6328 110.01 84.3242C110.01 84.1484 109.959 83.9941 109.857 83.8613C109.76 83.7246 109.594 83.5938 109.359 83.4688C109.125 83.3398 108.801 83.1992 108.387 83.0469C107.977 82.8906 107.621 82.7363 107.32 82.584C107.023 82.4277 106.793 82.2383 106.629 82.0156C106.469 81.793 106.389 81.5039 106.389 81.1484C106.389 80.6055 106.607 80.1895 107.045 79.9004C107.486 79.6074 108.064 79.4609 108.779 79.4609C109.166 79.4609 109.527 79.5 109.863 79.5781C110.203 79.6523 110.52 79.7539 110.812 79.8828L110.484 80.6621C110.219 80.5488 109.936 80.4531 109.635 80.375C109.334 80.2969 109.027 80.2578 108.715 80.2578C108.266 80.2578 107.92 80.332 107.678 80.4805C107.439 80.6289 107.32 80.832 107.32 81.0898C107.32 81.2891 107.375 81.4531 107.484 81.582C107.598 81.7109 107.777 81.832 108.023 81.9453C108.27 82.0586 108.594 82.1914 108.996 82.3438C109.398 82.4922 109.746 82.6465 110.039 82.8066C110.332 82.9629 110.557 83.1543 110.713 83.3809C110.873 83.6035 110.953 83.8906 110.953 84.2422ZM117.82 79.5781V86H117.023L116.883 85.0977H116.83C116.697 85.3203 116.525 85.5078 116.314 85.6602C116.104 85.8125 115.865 85.9258 115.6 86C115.338 86.0781 115.059 86.1172 114.762 86.1172C114.254 86.1172 113.828 86.0352 113.484 85.8711C113.141 85.707 112.881 85.4531 112.705 85.1094C112.533 84.7656 112.447 84.3242 112.447 83.7852V79.5781H113.432V83.7148C113.432 84.25 113.553 84.6504 113.795 84.916C114.037 85.1777 114.406 85.3086 114.902 85.3086C115.379 85.3086 115.758 85.2188 116.039 85.0391C116.324 84.8594 116.529 84.5957 116.654 84.248C116.779 83.8965 116.842 83.4668 116.842 82.959V79.5781H117.82ZM126.85 79.4609C127.557 79.4609 128.09 79.6465 128.449 80.0176C128.809 80.3848 128.988 80.9766 128.988 81.793V86H128.027V81.8398C128.027 81.3203 127.914 80.9316 127.688 80.6738C127.465 80.4121 127.133 80.2812 126.691 80.2812C126.07 80.2812 125.619 80.4609 125.338 80.8203C125.057 81.1797 124.916 81.709 124.916 82.4082V86H123.949V81.8398C123.949 81.4922 123.898 81.2031 123.797 80.9727C123.699 80.7422 123.551 80.5703 123.352 80.457C123.156 80.3398 122.908 80.2812 122.607 80.2812C122.182 80.2812 121.84 80.3691 121.582 80.5449C121.324 80.7207 121.137 80.9824 121.02 81.3301C120.906 81.6738 120.85 82.0977 120.85 82.6016V86H119.877V79.5781H120.662L120.809 80.4863H120.861C120.99 80.2637 121.152 80.0762 121.348 79.9238C121.543 79.7715 121.762 79.6562 122.004 79.5781C122.246 79.5 122.504 79.4609 122.777 79.4609C123.266 79.4609 123.674 79.5527 124.002 79.7363C124.334 79.916 124.574 80.1914 124.723 80.5625H124.775C124.986 80.1914 125.275 79.916 125.643 79.7363C126.01 79.5527 126.412 79.4609 126.85 79.4609ZM136.389 86.1172C135.576 86.1172 134.932 85.8398 134.455 85.2852C133.982 84.7305 133.746 83.9062 133.746 82.8125C133.746 81.707 133.988 80.873 134.473 80.3105C134.957 79.7441 135.602 79.4609 136.406 79.4609C136.746 79.4609 137.043 79.5059 137.297 79.5957C137.551 79.6855 137.77 79.8066 137.953 79.959C138.137 80.1074 138.291 80.2773 138.416 80.4688H138.486C138.471 80.3477 138.455 80.1816 138.439 79.9707C138.424 79.7598 138.416 79.5879 138.416 79.4551V76.8828H139.389V86H138.604L138.457 85.0859H138.416C138.295 85.2773 138.141 85.4512 137.953 85.6074C137.77 85.7637 137.549 85.8887 137.291 85.9824C137.037 86.0723 136.736 86.1172 136.389 86.1172ZM136.541 85.3086C137.229 85.3086 137.715 85.1133 138 84.7227C138.285 84.332 138.428 83.752 138.428 82.9824V82.8066C138.428 81.9902 138.291 81.3633 138.018 80.9258C137.748 80.4883 137.256 80.2695 136.541 80.2695C135.943 80.2695 135.496 80.5 135.199 80.9609C134.902 81.418 134.754 82.043 134.754 82.8359C134.754 83.625 134.9 84.2344 135.193 84.6641C135.49 85.0938 135.939 85.3086 136.541 85.3086ZM146.988 82.7773C146.988 83.3047 146.92 83.7754 146.783 84.1895C146.646 84.6035 146.449 84.9531 146.191 85.2383C145.934 85.5234 145.621 85.7422 145.254 85.8945C144.891 86.043 144.479 86.1172 144.018 86.1172C143.588 86.1172 143.193 86.043 142.834 85.8945C142.479 85.7422 142.17 85.5234 141.908 85.2383C141.65 84.9531 141.449 84.6035 141.305 84.1895C141.164 83.7754 141.094 83.3047 141.094 82.7773C141.094 82.0742 141.213 81.4766 141.451 80.9844C141.689 80.4883 142.029 80.1113 142.471 79.8535C142.916 79.5918 143.445 79.4609 144.059 79.4609C144.645 79.4609 145.156 79.5918 145.594 79.8535C146.035 80.1152 146.377 80.4941 146.619 80.9902C146.865 81.4824 146.988 82.0781 146.988 82.7773ZM142.102 82.7773C142.102 83.293 142.17 83.7402 142.307 84.1191C142.443 84.498 142.654 84.791 142.939 84.998C143.225 85.2051 143.592 85.3086 144.041 85.3086C144.486 85.3086 144.852 85.2051 145.137 84.998C145.426 84.791 145.639 84.498 145.775 84.1191C145.912 83.7402 145.98 83.293 145.98 82.7773C145.98 82.2656 145.912 81.8242 145.775 81.4531C145.639 81.0781 145.428 80.7891 145.143 80.5859C144.857 80.3828 144.488 80.2812 144.035 80.2812C143.367 80.2812 142.877 80.502 142.564 80.9434C142.256 81.3848 142.102 81.9961 142.102 82.7773ZM149.648 86H148.67V76.8828H149.648V86ZM157.242 82.7773C157.242 83.3047 157.174 83.7754 157.037 84.1895C156.9 84.6035 156.703 84.9531 156.445 85.2383C156.188 85.5234 155.875 85.7422 155.508 85.8945C155.145 86.043 154.732 86.1172 154.271 86.1172C153.842 86.1172 153.447 86.043 153.088 85.8945C152.732 85.7422 152.424 85.5234 152.162 85.2383C151.904 84.9531 151.703 84.6035 151.559 84.1895C151.418 83.7754 151.348 83.3047 151.348 82.7773C151.348 82.0742 151.467 81.4766 151.705 80.9844C151.943 80.4883 152.283 80.1113 152.725 79.8535C153.17 79.5918 153.699 79.4609 154.312 79.4609C154.898 79.4609 155.41 79.5918 155.848 79.8535C156.289 80.1152 156.631 80.4941 156.873 80.9902C157.119 81.4824 157.242 82.0781 157.242 82.7773ZM152.355 82.7773C152.355 83.293 152.424 83.7402 152.561 84.1191C152.697 84.498 152.908 84.791 153.193 84.998C153.479 85.2051 153.846 85.3086 154.295 85.3086C154.74 85.3086 155.105 85.2051 155.391 84.998C155.68 84.791 155.893 84.498 156.029 84.1191C156.166 83.7402 156.234 83.293 156.234 82.7773C156.234 82.2656 156.166 81.8242 156.029 81.4531C155.893 81.0781 155.682 80.7891 155.396 80.5859C155.111 80.3828 154.742 80.2812 154.289 80.2812C153.621 80.2812 153.131 80.502 152.818 80.9434C152.51 81.3848 152.355 81.9961 152.355 82.7773ZM161.842 79.4609C161.971 79.4609 162.105 79.4688 162.246 79.4844C162.387 79.4961 162.512 79.5137 162.621 79.5371L162.498 80.4395C162.393 80.4121 162.275 80.3906 162.146 80.375C162.018 80.3594 161.896 80.3516 161.783 80.3516C161.525 80.3516 161.281 80.4043 161.051 80.5098C160.824 80.6113 160.625 80.7598 160.453 80.9551C160.281 81.1465 160.146 81.3789 160.049 81.6523C159.951 81.9219 159.902 82.2227 159.902 82.5547V86H158.924V79.5781H159.732L159.838 80.7617H159.879C160.012 80.5234 160.172 80.3066 160.359 80.1113C160.547 79.9121 160.764 79.7539 161.01 79.6367C161.26 79.5195 161.537 79.4609 161.842 79.4609ZM171.105 84.2422C171.105 84.6523 171.002 84.998 170.795 85.2793C170.592 85.5566 170.299 85.7656 169.916 85.9062C169.537 86.0469 169.084 86.1172 168.557 86.1172C168.107 86.1172 167.719 86.082 167.391 86.0117C167.062 85.9414 166.775 85.8418 166.529 85.7129V84.8164C166.791 84.9453 167.104 85.0625 167.467 85.168C167.83 85.2734 168.201 85.3262 168.58 85.3262C169.135 85.3262 169.537 85.2363 169.787 85.0566C170.037 84.877 170.162 84.6328 170.162 84.3242C170.162 84.1484 170.111 83.9941 170.01 83.8613C169.912 83.7246 169.746 83.5938 169.512 83.4688C169.277 83.3398 168.953 83.1992 168.539 83.0469C168.129 82.8906 167.773 82.7363 167.473 82.584C167.176 82.4277 166.945 82.2383 166.781 82.0156C166.621 81.793 166.541 81.5039 166.541 81.1484C166.541 80.6055 166.76 80.1895 167.197 79.9004C167.639 79.6074 168.217 79.4609 168.932 79.4609C169.318 79.4609 169.68 79.5 170.016 79.5781C170.355 79.6523 170.672 79.7539 170.965 79.8828L170.637 80.6621C170.371 80.5488 170.088 80.4531 169.787 80.375C169.486 80.2969 169.18 80.2578 168.867 80.2578C168.418 80.2578 168.072 80.332 167.83 80.4805C167.592 80.6289 167.473 80.832 167.473 81.0898C167.473 81.2891 167.527 81.4531 167.637 81.582C167.75 81.7109 167.93 81.832 168.176 81.9453C168.422 82.0586 168.746 82.1914 169.148 82.3438C169.551 82.4922 169.898 82.6465 170.191 82.8066C170.484 82.9629 170.709 83.1543 170.865 83.3809C171.025 83.6035 171.105 83.8906 171.105 84.2422ZM173.643 79.5781V86H172.67V79.5781H173.643ZM173.168 77.1758C173.328 77.1758 173.465 77.2285 173.578 77.334C173.695 77.4355 173.754 77.5957 173.754 77.8145C173.754 78.0293 173.695 78.1895 173.578 78.2949C173.465 78.4004 173.328 78.4531 173.168 78.4531C173 78.4531 172.859 78.4004 172.746 78.2949C172.637 78.1895 172.582 78.0293 172.582 77.8145C172.582 77.5957 172.637 77.4355 172.746 77.334C172.859 77.2285 173 77.1758 173.168 77.1758ZM177.779 85.3203C177.939 85.3203 178.104 85.3066 178.271 85.2793C178.439 85.252 178.576 85.2188 178.682 85.1797V85.9355C178.568 85.9863 178.41 86.0293 178.207 86.0645C178.008 86.0996 177.812 86.1172 177.621 86.1172C177.281 86.1172 176.973 86.0586 176.695 85.9414C176.418 85.8203 176.195 85.6172 176.027 85.332C175.863 85.0469 175.781 84.6523 175.781 84.1484V80.3398H174.867V79.8652L175.787 79.4844L176.174 78.0898H176.76V79.5781H178.641V80.3398H176.76V84.1191C176.76 84.5215 176.852 84.8223 177.035 85.0215C177.223 85.2207 177.471 85.3203 177.779 85.3203ZM185.502 79.4727C186.268 79.4727 186.836 79.6445 187.207 79.9883C187.578 80.332 187.764 80.8809 187.764 81.6348V86H187.055L186.867 85.0508H186.82C186.641 85.2852 186.453 85.4824 186.258 85.6426C186.062 85.7988 185.836 85.918 185.578 86C185.324 86.0781 185.012 86.1172 184.641 86.1172C184.25 86.1172 183.902 86.0488 183.598 85.9121C183.297 85.7754 183.059 85.5684 182.883 85.291C182.711 85.0137 182.625 84.6621 182.625 84.2363C182.625 83.5957 182.879 83.1035 183.387 82.7598C183.895 82.416 184.668 82.2285 185.707 82.1973L186.814 82.1504V81.7578C186.814 81.2031 186.695 80.8145 186.457 80.5918C186.219 80.3691 185.883 80.2578 185.449 80.2578C185.113 80.2578 184.793 80.3066 184.488 80.4043C184.184 80.502 183.895 80.6172 183.621 80.75L183.322 80.0117C183.611 79.8633 183.943 79.7363 184.318 79.6309C184.693 79.5254 185.088 79.4727 185.502 79.4727ZM186.803 82.8359L185.824 82.877C185.023 82.9082 184.459 83.0391 184.131 83.2695C183.803 83.5 183.639 83.8262 183.639 84.248C183.639 84.6152 183.75 84.8867 183.973 85.0625C184.195 85.2383 184.49 85.3262 184.857 85.3262C185.428 85.3262 185.895 85.168 186.258 84.8516C186.621 84.5352 186.803 84.0605 186.803 83.4277V82.8359ZM196.74 79.4609C197.447 79.4609 197.98 79.6465 198.34 80.0176C198.699 80.3848 198.879 80.9766 198.879 81.793V86H197.918V81.8398C197.918 81.3203 197.805 80.9316 197.578 80.6738C197.355 80.4121 197.023 80.2812 196.582 80.2812C195.961 80.2812 195.51 80.4609 195.229 80.8203C194.947 81.1797 194.807 81.709 194.807 82.4082V86H193.84V81.8398C193.84 81.4922 193.789 81.2031 193.688 80.9727C193.59 80.7422 193.441 80.5703 193.242 80.457C193.047 80.3398 192.799 80.2812 192.498 80.2812C192.072 80.2812 191.73 80.3691 191.473 80.5449C191.215 80.7207 191.027 80.9824 190.91 81.3301C190.797 81.6738 190.74 82.0977 190.74 82.6016V86H189.768V79.5781H190.553L190.699 80.4863H190.752C190.881 80.2637 191.043 80.0762 191.238 79.9238C191.434 79.7715 191.652 79.6562 191.895 79.5781C192.137 79.5 192.395 79.4609 192.668 79.4609C193.156 79.4609 193.564 79.5527 193.893 79.7363C194.225 79.916 194.465 80.1914 194.613 80.5625H194.666C194.877 80.1914 195.166 79.916 195.533 79.7363C195.9 79.5527 196.303 79.4609 196.74 79.4609ZM203.35 79.4609C203.896 79.4609 204.365 79.582 204.756 79.8242C205.146 80.0664 205.445 80.4062 205.652 80.8438C205.859 81.2773 205.963 81.7852 205.963 82.3672V82.9707H201.527C201.539 83.7246 201.727 84.2988 202.09 84.6934C202.453 85.0879 202.965 85.2852 203.625 85.2852C204.031 85.2852 204.391 85.248 204.703 85.1738C205.016 85.0996 205.34 84.9902 205.676 84.8457V85.7012C205.352 85.8457 205.029 85.9512 204.709 86.0176C204.393 86.084 204.018 86.1172 203.584 86.1172C202.967 86.1172 202.428 85.9922 201.967 85.7422C201.51 85.4883 201.154 85.1172 200.9 84.6289C200.646 84.1406 200.52 83.543 200.52 82.8359C200.52 82.1445 200.635 81.5469 200.865 81.043C201.1 80.5352 201.428 80.1445 201.85 79.8711C202.275 79.5977 202.775 79.4609 203.35 79.4609ZM203.338 80.2578C202.818 80.2578 202.404 80.4277 202.096 80.7676C201.787 81.1074 201.604 81.582 201.545 82.1914H204.943C204.939 81.8086 204.879 81.4727 204.762 81.1836C204.648 80.8906 204.475 80.6641 204.24 80.5039C204.006 80.3398 203.705 80.2578 203.338 80.2578ZM209.689 85.3203C209.85 85.3203 210.014 85.3066 210.182 85.2793C210.35 85.252 210.486 85.2188 210.592 85.1797V85.9355C210.479 85.9863 210.32 86.0293 210.117 86.0645C209.918 86.0996 209.723 86.1172 209.531 86.1172C209.191 86.1172 208.883 86.0586 208.605 85.9414C208.328 85.8203 208.105 85.6172 207.938 85.332C207.773 85.0469 207.691 84.6523 207.691 84.1484V80.3398H206.777V79.8652L207.697 79.4844L208.084 78.0898H208.67V79.5781H210.551V80.3398H208.67V84.1191C208.67 84.5215 208.762 84.8223 208.945 85.0215C209.133 85.2207 209.381 85.3203 209.689 85.3203ZM213.006 84.6055L213.082 84.7402C213.012 85.0254 212.922 85.3301 212.812 85.6543C212.707 85.9785 212.59 86.3027 212.461 86.627C212.336 86.9551 212.209 87.2617 212.08 87.5469H211.354C211.436 87.2344 211.516 86.9043 211.594 86.5566C211.672 86.2129 211.742 85.873 211.805 85.5371C211.871 85.1973 211.924 84.8867 211.963 84.6055H213.006ZM42.7207 102.117C42.1426 102.117 41.6328 101.998 41.1914 101.76C40.75 101.521 40.4062 101.158 40.1602 100.67C39.9141 100.182 39.791 99.5664 39.791 98.8242C39.791 98.0469 39.9199 97.4121 40.1777 96.9199C40.4395 96.4238 40.7988 96.0566 41.2559 95.8184C41.7129 95.5801 42.2324 95.4609 42.8145 95.4609C43.1348 95.4609 43.4434 95.4941 43.7402 95.5605C44.041 95.623 44.2871 95.7031 44.4785 95.8008L44.1855 96.6152C43.9902 96.5371 43.7637 96.4668 43.5059 96.4043C43.252 96.3418 43.0137 96.3105 42.791 96.3105C42.3457 96.3105 41.9746 96.4062 41.6777 96.5977C41.3848 96.7891 41.1641 97.0703 41.0156 97.4414C40.8711 97.8125 40.7988 98.2695 40.7988 98.8125C40.7988 99.332 40.8691 99.7754 41.0098 100.143C41.1543 100.51 41.3672 100.791 41.6484 100.986C41.9336 101.178 42.2891 101.273 42.7148 101.273C43.0547 101.273 43.3613 101.238 43.6348 101.168C43.9082 101.094 44.1562 101.008 44.3789 100.91V101.777C44.1641 101.887 43.9238 101.971 43.6582 102.029C43.3965 102.088 43.084 102.117 42.7207 102.117ZM51.4395 98.7773C51.4395 99.3047 51.3711 99.7754 51.2344 100.189C51.0977 100.604 50.9004 100.953 50.6426 101.238C50.3848 101.523 50.0723 101.742 49.7051 101.895C49.3418 102.043 48.9297 102.117 48.4688 102.117C48.0391 102.117 47.6445 102.043 47.2852 101.895C46.9297 101.742 46.6211 101.523 46.3594 101.238C46.1016 100.953 45.9004 100.604 45.7559 100.189C45.6152 99.7754 45.5449 99.3047 45.5449 98.7773C45.5449 98.0742 45.6641 97.4766 45.9023 96.9844C46.1406 96.4883 46.4805 96.1113 46.9219 95.8535C47.3672 95.5918 47.8965 95.4609 48.5098 95.4609C49.0957 95.4609 49.6074 95.5918 50.0449 95.8535C50.4863 96.1152 50.8281 96.4941 51.0703 96.9902C51.3164 97.4824 51.4395 98.0781 51.4395 98.7773ZM46.5527 98.7773C46.5527 99.293 46.6211 99.7402 46.7578 100.119C46.8945 100.498 47.1055 100.791 47.3906 100.998C47.6758 101.205 48.043 101.309 48.4922 101.309C48.9375 101.309 49.3027 101.205 49.5879 100.998C49.877 100.791 50.0898 100.498 50.2266 100.119C50.3633 99.7402 50.4316 99.293 50.4316 98.7773C50.4316 98.2656 50.3633 97.8242 50.2266 97.4531C50.0898 97.0781 49.8789 96.7891 49.5938 96.5859C49.3086 96.3828 48.9395 96.2812 48.4863 96.2812C47.8184 96.2812 47.3281 96.502 47.0156 96.9434C46.707 97.3848 46.5527 97.9961 46.5527 98.7773ZM56.1621 95.4609C56.9238 95.4609 57.5 95.6484 57.8906 96.0234C58.2812 96.3945 58.4766 96.9922 58.4766 97.8164V102H57.5156V97.8809C57.5156 97.3457 57.3926 96.9453 57.1465 96.6797C56.9043 96.4141 56.5312 96.2812 56.0273 96.2812C55.3164 96.2812 54.8164 96.4824 54.5273 96.8848C54.2383 97.2871 54.0938 97.8711 54.0938 98.6367V102H53.1211V95.5781H53.9062L54.0527 96.5039H54.1055C54.2422 96.2773 54.416 96.0879 54.627 95.9355C54.8379 95.7793 55.0742 95.6621 55.3359 95.584C55.5977 95.502 55.873 95.4609 56.1621 95.4609ZM64.6348 100.242C64.6348 100.652 64.5312 100.998 64.3242 101.279C64.1211 101.557 63.8281 101.766 63.4453 101.906C63.0664 102.047 62.6133 102.117 62.0859 102.117C61.6367 102.117 61.248 102.082 60.9199 102.012C60.5918 101.941 60.3047 101.842 60.0586 101.713V100.816C60.3203 100.945 60.6328 101.062 60.9961 101.168C61.3594 101.273 61.7305 101.326 62.1094 101.326C62.6641 101.326 63.0664 101.236 63.3164 101.057C63.5664 100.877 63.6914 100.633 63.6914 100.324C63.6914 100.148 63.6406 99.9941 63.5391 99.8613C63.4414 99.7246 63.2754 99.5938 63.041 99.4688C62.8066 99.3398 62.4824 99.1992 62.0684 99.0469C61.6582 98.8906 61.3027 98.7363 61.002 98.584C60.7051 98.4277 60.4746 98.2383 60.3105 98.0156C60.1504 97.793 60.0703 97.5039 60.0703 97.1484C60.0703 96.6055 60.2891 96.1895 60.7266 95.9004C61.168 95.6074 61.7461 95.4609 62.4609 95.4609C62.8477 95.4609 63.209 95.5 63.5449 95.5781C63.8848 95.6523 64.2012 95.7539 64.4941 95.8828L64.166 96.6621C63.9004 96.5488 63.6172 96.4531 63.3164 96.375C63.0156 96.2969 62.709 96.2578 62.3965 96.2578C61.9473 96.2578 61.6016 96.332 61.3594 96.4805C61.1211 96.6289 61.002 96.832 61.002 97.0898C61.002 97.2891 61.0566 97.4531 61.166 97.582C61.2793 97.7109 61.459 97.832 61.7051 97.9453C61.9512 98.0586 62.2754 98.1914 62.6777 98.3438C63.0801 98.4922 63.4277 98.6465 63.7207 98.8066C64.0137 98.9629 64.2383 99.1543 64.3945 99.3809C64.5547 99.6035 64.6348 99.8906 64.6348 100.242ZM68.6719 95.4609C69.2188 95.4609 69.6875 95.582 70.0781 95.8242C70.4688 96.0664 70.7676 96.4062 70.9746 96.8438C71.1816 97.2773 71.2852 97.7852 71.2852 98.3672V98.9707H66.8496C66.8613 99.7246 67.0488 100.299 67.4121 100.693C67.7754 101.088 68.2871 101.285 68.9473 101.285C69.3535 101.285 69.7129 101.248 70.0254 101.174C70.3379 101.1 70.6621 100.99 70.998 100.846V101.701C70.6738 101.846 70.3516 101.951 70.0312 102.018C69.7148 102.084 69.3398 102.117 68.9062 102.117C68.2891 102.117 67.75 101.992 67.2891 101.742C66.832 101.488 66.4766 101.117 66.2227 100.629C65.9688 100.141 65.8418 99.543 65.8418 98.8359C65.8418 98.1445 65.957 97.5469 66.1875 97.043C66.4219 96.5352 66.75 96.1445 67.1719 95.8711C67.5977 95.5977 68.0977 95.4609 68.6719 95.4609ZM68.6602 96.2578C68.1406 96.2578 67.7266 96.4277 67.418 96.7676C67.1094 97.1074 66.9258 97.582 66.8672 98.1914H70.2656C70.2617 97.8086 70.2012 97.4727 70.084 97.1836C69.9707 96.8906 69.7969 96.6641 69.5625 96.5039C69.3281 96.3398 69.0273 96.2578 68.6602 96.2578ZM75.5098 102.117C74.9316 102.117 74.4219 101.998 73.9805 101.76C73.5391 101.521 73.1953 101.158 72.9492 100.67C72.7031 100.182 72.5801 99.5664 72.5801 98.8242C72.5801 98.0469 72.709 97.4121 72.9668 96.9199C73.2285 96.4238 73.5879 96.0566 74.0449 95.8184C74.502 95.5801 75.0215 95.4609 75.6035 95.4609C75.9238 95.4609 76.2324 95.4941 76.5293 95.5605C76.8301 95.623 77.0762 95.7031 77.2676 95.8008L76.9746 96.6152C76.7793 96.5371 76.5527 96.4668 76.2949 96.4043C76.041 96.3418 75.8027 96.3105 75.5801 96.3105C75.1348 96.3105 74.7637 96.4062 74.4668 96.5977C74.1738 96.7891 73.9531 97.0703 73.8047 97.4414C73.6602 97.8125 73.5879 98.2695 73.5879 98.8125C73.5879 99.332 73.6582 99.7754 73.7988 100.143C73.9434 100.51 74.1562 100.791 74.4375 100.986C74.7227 101.178 75.0781 101.273 75.5039 101.273C75.8438 101.273 76.1504 101.238 76.4238 101.168C76.6973 101.094 76.9453 101.008 77.168 100.91V101.777C76.9531 101.887 76.7129 101.971 76.4473 102.029C76.1855 102.088 75.873 102.117 75.5098 102.117ZM80.7656 101.32C80.9258 101.32 81.0898 101.307 81.2578 101.279C81.4258 101.252 81.5625 101.219 81.668 101.18V101.936C81.5547 101.986 81.3965 102.029 81.1934 102.064C80.9941 102.1 80.7988 102.117 80.6074 102.117C80.2676 102.117 79.959 102.059 79.6816 101.941C79.4043 101.82 79.1816 101.617 79.0137 101.332C78.8496 101.047 78.7676 100.652 78.7676 100.148V96.3398H77.8535V95.8652L78.7734 95.4844L79.1602 94.0898H79.7461V95.5781H81.627V96.3398H79.7461V100.119C79.7461 100.521 79.8379 100.822 80.0215 101.021C80.209 101.221 80.457 101.32 80.7656 101.32ZM85.4414 95.4609C85.9883 95.4609 86.457 95.582 86.8477 95.8242C87.2383 96.0664 87.5371 96.4062 87.7441 96.8438C87.9512 97.2773 88.0547 97.7852 88.0547 98.3672V98.9707H83.6191C83.6309 99.7246 83.8184 100.299 84.1816 100.693C84.5449 101.088 85.0566 101.285 85.7168 101.285C86.123 101.285 86.4824 101.248 86.7949 101.174C87.1074 101.1 87.4316 100.99 87.7676 100.846V101.701C87.4434 101.846 87.1211 101.951 86.8008 102.018C86.4844 102.084 86.1094 102.117 85.6758 102.117C85.0586 102.117 84.5195 101.992 84.0586 101.742C83.6016 101.488 83.2461 101.117 82.9922 100.629C82.7383 100.141 82.6113 99.543 82.6113 98.8359C82.6113 98.1445 82.7266 97.5469 82.957 97.043C83.1914 96.5352 83.5195 96.1445 83.9414 95.8711C84.3672 95.5977 84.8672 95.4609 85.4414 95.4609ZM85.4297 96.2578C84.9102 96.2578 84.4961 96.4277 84.1875 96.7676C83.8789 97.1074 83.6953 97.582 83.6367 98.1914H87.0352C87.0312 97.8086 86.9707 97.4727 86.8535 97.1836C86.7402 96.8906 86.5664 96.6641 86.332 96.5039C86.0977 96.3398 85.7969 96.2578 85.4297 96.2578ZM91.7812 101.32C91.9414 101.32 92.1055 101.307 92.2734 101.279C92.4414 101.252 92.5781 101.219 92.6836 101.18V101.936C92.5703 101.986 92.4121 102.029 92.209 102.064C92.0098 102.1 91.8145 102.117 91.623 102.117C91.2832 102.117 90.9746 102.059 90.6973 101.941C90.4199 101.82 90.1973 101.617 90.0293 101.332C89.8652 101.047 89.7832 100.652 89.7832 100.148V96.3398H88.8691V95.8652L89.7891 95.4844L90.1758 94.0898H90.7617V95.5781H92.6426V96.3398H90.7617V100.119C90.7617 100.521 90.8535 100.822 91.0371 101.021C91.2246 101.221 91.4727 101.32 91.7812 101.32ZM99.2871 95.5781V102H98.4902L98.3496 101.098H98.2969C98.1641 101.32 97.9922 101.508 97.7812 101.66C97.5703 101.812 97.332 101.926 97.0664 102C96.8047 102.078 96.5254 102.117 96.2285 102.117C95.7207 102.117 95.2949 102.035 94.9512 101.871C94.6074 101.707 94.3477 101.453 94.1719 101.109C94 100.766 93.9141 100.324 93.9141 99.7852V95.5781H94.8984V99.7148C94.8984 100.25 95.0195 100.65 95.2617 100.916C95.5039 101.178 95.873 101.309 96.3691 101.309C96.8457 101.309 97.2246 101.219 97.5059 101.039C97.791 100.859 97.9961 100.596 98.1211 100.248C98.2461 99.8965 98.3086 99.4668 98.3086 98.959V95.5781H99.2871ZM104.262 95.4609C104.391 95.4609 104.525 95.4688 104.666 95.4844C104.807 95.4961 104.932 95.5137 105.041 95.5371L104.918 96.4395C104.812 96.4121 104.695 96.3906 104.566 96.375C104.438 96.3594 104.316 96.3516 104.203 96.3516C103.945 96.3516 103.701 96.4043 103.471 96.5098C103.244 96.6113 103.045 96.7598 102.873 96.9551C102.701 97.1465 102.566 97.3789 102.469 97.6523C102.371 97.9219 102.322 98.2227 102.322 98.5547V102H101.344V95.5781H102.152L102.258 96.7617H102.299C102.432 96.5234 102.592 96.3066 102.779 96.1113C102.967 95.9121 103.184 95.7539 103.43 95.6367C103.68 95.5195 103.957 95.4609 104.262 95.4609ZM111.773 95.4727C112.539 95.4727 113.107 95.6445 113.479 95.9883C113.85 96.332 114.035 96.8809 114.035 97.6348V102H113.326L113.139 101.051H113.092C112.912 101.285 112.725 101.482 112.529 101.643C112.334 101.799 112.107 101.918 111.85 102C111.596 102.078 111.283 102.117 110.912 102.117C110.521 102.117 110.174 102.049 109.869 101.912C109.568 101.775 109.33 101.568 109.154 101.291C108.982 101.014 108.896 100.662 108.896 100.236C108.896 99.5957 109.15 99.1035 109.658 98.7598C110.166 98.416 110.939 98.2285 111.979 98.1973L113.086 98.1504V97.7578C113.086 97.2031 112.967 96.8145 112.729 96.5918C112.49 96.3691 112.154 96.2578 111.721 96.2578C111.385 96.2578 111.064 96.3066 110.76 96.4043C110.455 96.502 110.166 96.6172 109.893 96.75L109.594 96.0117C109.883 95.8633 110.215 95.7363 110.59 95.6309C110.965 95.5254 111.359 95.4727 111.773 95.4727ZM113.074 98.8359L112.096 98.877C111.295 98.9082 110.73 99.0391 110.402 99.2695C110.074 99.5 109.91 99.8262 109.91 100.248C109.91 100.615 110.021 100.887 110.244 101.062C110.467 101.238 110.762 101.326 111.129 101.326C111.699 101.326 112.166 101.168 112.529 100.852C112.893 100.535 113.074 100.061 113.074 99.4277V98.8359ZM118.324 102.117C117.512 102.117 116.867 101.84 116.391 101.285C115.918 100.73 115.682 99.9062 115.682 98.8125C115.682 97.707 115.924 96.873 116.408 96.3105C116.893 95.7441 117.537 95.4609 118.342 95.4609C118.682 95.4609 118.979 95.5059 119.232 95.5957C119.486 95.6855 119.705 95.8066 119.889 95.959C120.072 96.1074 120.227 96.2773 120.352 96.4688H120.422C120.406 96.3477 120.391 96.1816 120.375 95.9707C120.359 95.7598 120.352 95.5879 120.352 95.4551V92.8828H121.324V102H120.539L120.393 101.086H120.352C120.23 101.277 120.076 101.451 119.889 101.607C119.705 101.764 119.484 101.889 119.227 101.982C118.973 102.072 118.672 102.117 118.324 102.117ZM118.477 101.309C119.164 101.309 119.65 101.113 119.936 100.723C120.221 100.332 120.363 99.752 120.363 98.9824V98.8066C120.363 97.9902 120.227 97.3633 119.953 96.9258C119.684 96.4883 119.191 96.2695 118.477 96.2695C117.879 96.2695 117.432 96.5 117.135 96.9609C116.838 97.418 116.689 98.043 116.689 98.8359C116.689 99.625 116.836 100.234 117.129 100.664C117.426 101.094 117.875 101.309 118.477 101.309ZM124.359 95.5781V102H123.387V95.5781H124.359ZM123.885 93.1758C124.045 93.1758 124.182 93.2285 124.295 93.334C124.412 93.4355 124.471 93.5957 124.471 93.8145C124.471 94.0293 124.412 94.1895 124.295 94.2949C124.182 94.4004 124.045 94.4531 123.885 94.4531C123.717 94.4531 123.576 94.4004 123.463 94.2949C123.354 94.1895 123.299 94.0293 123.299 93.8145C123.299 93.5957 123.354 93.4355 123.463 93.334C123.576 93.2285 123.717 93.1758 123.885 93.1758ZM129.439 95.4609C130.24 95.4609 130.879 95.7363 131.355 96.2871C131.832 96.8379 132.07 97.666 132.07 98.7715C132.07 99.502 131.961 100.115 131.742 100.611C131.523 101.107 131.215 101.482 130.816 101.736C130.422 101.99 129.955 102.117 129.416 102.117C129.076 102.117 128.777 102.072 128.52 101.982C128.262 101.893 128.041 101.771 127.857 101.619C127.674 101.467 127.521 101.301 127.4 101.121H127.33C127.342 101.273 127.355 101.457 127.371 101.672C127.391 101.887 127.4 102.074 127.4 102.234V104.871H126.422V95.5781H127.225L127.354 96.5273H127.4C127.525 96.332 127.678 96.1543 127.857 95.9941C128.037 95.8301 128.256 95.7012 128.514 95.6074C128.775 95.5098 129.084 95.4609 129.439 95.4609ZM129.27 96.2812C128.824 96.2812 128.465 96.3672 128.191 96.5391C127.922 96.7109 127.725 96.9688 127.6 97.3125C127.475 97.6523 127.408 98.0801 127.4 98.5957V98.7832C127.4 99.3262 127.459 99.7852 127.576 100.16C127.697 100.535 127.895 100.82 128.168 101.016C128.445 101.211 128.816 101.309 129.281 101.309C129.68 101.309 130.012 101.201 130.277 100.986C130.543 100.771 130.74 100.473 130.869 100.09C131.002 99.7031 131.068 99.2598 131.068 98.7598C131.068 98.002 130.92 97.4004 130.623 96.9551C130.33 96.5059 129.879 96.2812 129.27 96.2812ZM134.742 95.5781V102H133.77V95.5781H134.742ZM134.268 93.1758C134.428 93.1758 134.564 93.2285 134.678 93.334C134.795 93.4355 134.854 93.5957 134.854 93.8145C134.854 94.0293 134.795 94.1895 134.678 94.2949C134.564 94.4004 134.428 94.4531 134.268 94.4531C134.1 94.4531 133.959 94.4004 133.846 94.2949C133.736 94.1895 133.682 94.0293 133.682 93.8145C133.682 93.5957 133.736 93.4355 133.846 93.334C133.959 93.2285 134.1 93.1758 134.268 93.1758ZM140.959 100.242C140.959 100.652 140.855 100.998 140.648 101.279C140.445 101.557 140.152 101.766 139.77 101.906C139.391 102.047 138.938 102.117 138.41 102.117C137.961 102.117 137.572 102.082 137.244 102.012C136.916 101.941 136.629 101.842 136.383 101.713V100.816C136.645 100.945 136.957 101.062 137.32 101.168C137.684 101.273 138.055 101.326 138.434 101.326C138.988 101.326 139.391 101.236 139.641 101.057C139.891 100.877 140.016 100.633 140.016 100.324C140.016 100.148 139.965 99.9941 139.863 99.8613C139.766 99.7246 139.6 99.5938 139.365 99.4688C139.131 99.3398 138.807 99.1992 138.393 99.0469C137.982 98.8906 137.627 98.7363 137.326 98.584C137.029 98.4277 136.799 98.2383 136.635 98.0156C136.475 97.793 136.395 97.5039 136.395 97.1484C136.395 96.6055 136.613 96.1895 137.051 95.9004C137.492 95.6074 138.07 95.4609 138.785 95.4609C139.172 95.4609 139.533 95.5 139.869 95.5781C140.209 95.6523 140.525 95.7539 140.818 95.8828L140.49 96.6621C140.225 96.5488 139.941 96.4531 139.641 96.375C139.34 96.2969 139.033 96.2578 138.721 96.2578C138.271 96.2578 137.926 96.332 137.684 96.4805C137.445 96.6289 137.326 96.832 137.326 97.0898C137.326 97.2891 137.381 97.4531 137.49 97.582C137.604 97.7109 137.783 97.832 138.029 97.9453C138.275 98.0586 138.6 98.1914 139.002 98.3438C139.404 98.4922 139.752 98.6465 140.045 98.8066C140.338 98.9629 140.562 99.1543 140.719 99.3809C140.879 99.6035 140.959 99.8906 140.959 100.242ZM145.096 102.117C144.518 102.117 144.008 101.998 143.566 101.76C143.125 101.521 142.781 101.158 142.535 100.67C142.289 100.182 142.166 99.5664 142.166 98.8242C142.166 98.0469 142.295 97.4121 142.553 96.9199C142.814 96.4238 143.174 96.0566 143.631 95.8184C144.088 95.5801 144.607 95.4609 145.189 95.4609C145.51 95.4609 145.818 95.4941 146.115 95.5605C146.416 95.623 146.662 95.7031 146.854 95.8008L146.561 96.6152C146.365 96.5371 146.139 96.4668 145.881 96.4043C145.627 96.3418 145.389 96.3105 145.166 96.3105C144.721 96.3105 144.35 96.4062 144.053 96.5977C143.76 96.7891 143.539 97.0703 143.391 97.4414C143.246 97.8125 143.174 98.2695 143.174 98.8125C143.174 99.332 143.244 99.7754 143.385 100.143C143.529 100.51 143.742 100.791 144.023 100.986C144.309 101.178 144.664 101.273 145.09 101.273C145.43 101.273 145.736 101.238 146.01 101.168C146.283 101.094 146.531 101.008 146.754 100.91V101.777C146.539 101.887 146.299 101.971 146.033 102.029C145.771 102.088 145.459 102.117 145.096 102.117ZM149.25 95.5781V102H148.277V95.5781H149.25ZM148.775 93.1758C148.936 93.1758 149.072 93.2285 149.186 93.334C149.303 93.4355 149.361 93.5957 149.361 93.8145C149.361 94.0293 149.303 94.1895 149.186 94.2949C149.072 94.4004 148.936 94.4531 148.775 94.4531C148.607 94.4531 148.467 94.4004 148.354 94.2949C148.244 94.1895 148.189 94.0293 148.189 93.8145C148.189 93.5957 148.244 93.4355 148.354 93.334C148.467 93.2285 148.607 93.1758 148.775 93.1758ZM154.354 95.4609C155.115 95.4609 155.691 95.6484 156.082 96.0234C156.473 96.3945 156.668 96.9922 156.668 97.8164V102H155.707V97.8809C155.707 97.3457 155.584 96.9453 155.338 96.6797C155.096 96.4141 154.723 96.2812 154.219 96.2812C153.508 96.2812 153.008 96.4824 152.719 96.8848C152.43 97.2871 152.285 97.8711 152.285 98.6367V102H151.312V95.5781H152.098L152.244 96.5039H152.297C152.434 96.2773 152.607 96.0879 152.818 95.9355C153.029 95.7793 153.266 95.6621 153.527 95.584C153.789 95.502 154.064 95.4609 154.354 95.4609ZM160.465 104.883C159.621 104.883 158.971 104.725 158.514 104.408C158.057 104.096 157.828 103.656 157.828 103.09C157.828 102.688 157.955 102.344 158.209 102.059C158.467 101.773 158.822 101.584 159.275 101.49C159.107 101.412 158.963 101.295 158.842 101.139C158.725 100.982 158.666 100.803 158.666 100.6C158.666 100.365 158.73 100.16 158.859 99.9844C158.992 99.8047 159.193 99.6328 159.463 99.4688C159.127 99.332 158.854 99.1016 158.643 98.7773C158.436 98.4492 158.332 98.0684 158.332 97.6348C158.332 97.1738 158.428 96.7812 158.619 96.457C158.811 96.1289 159.088 95.8789 159.451 95.707C159.814 95.5352 160.254 95.4492 160.77 95.4492C160.883 95.4492 160.996 95.4551 161.109 95.4668C161.227 95.4746 161.338 95.4883 161.443 95.5078C161.549 95.5234 161.641 95.543 161.719 95.5664H163.922V96.1934L162.738 96.3398C162.855 96.4922 162.953 96.6758 163.031 96.8906C163.109 97.1055 163.148 97.3438 163.148 97.6055C163.148 98.2461 162.932 98.7559 162.498 99.1348C162.064 99.5098 161.469 99.6973 160.711 99.6973C160.531 99.6973 160.348 99.6816 160.16 99.6504C159.969 99.7559 159.822 99.873 159.721 100.002C159.623 100.131 159.574 100.279 159.574 100.447C159.574 100.572 159.611 100.672 159.686 100.746C159.764 100.82 159.875 100.875 160.02 100.91C160.164 100.941 160.338 100.957 160.541 100.957H161.672C162.371 100.957 162.906 101.104 163.277 101.396C163.652 101.689 163.84 102.117 163.84 102.68C163.84 103.391 163.551 103.936 162.973 104.314C162.395 104.693 161.559 104.883 160.465 104.883ZM160.494 104.121C161.025 104.121 161.465 104.066 161.812 103.957C162.164 103.852 162.426 103.697 162.598 103.494C162.773 103.295 162.861 103.057 162.861 102.779C162.861 102.521 162.803 102.326 162.686 102.193C162.568 102.064 162.396 101.979 162.17 101.936C161.943 101.889 161.666 101.865 161.338 101.865H160.225C159.936 101.865 159.684 101.91 159.469 102C159.254 102.09 159.088 102.223 158.971 102.398C158.857 102.574 158.801 102.793 158.801 103.055C158.801 103.402 158.947 103.666 159.24 103.846C159.533 104.029 159.951 104.121 160.494 104.121ZM160.746 98.9883C161.211 98.9883 161.561 98.8711 161.795 98.6367C162.029 98.4023 162.146 98.0605 162.146 97.6113C162.146 97.1309 162.027 96.7715 161.789 96.5332C161.551 96.291 161.199 96.1699 160.734 96.1699C160.289 96.1699 159.945 96.2949 159.703 96.5449C159.465 96.791 159.346 97.1523 159.346 97.6289C159.346 98.0664 159.467 98.4023 159.709 98.6367C159.951 98.8711 160.297 98.9883 160.746 98.9883ZM170.777 95.4609C171.324 95.4609 171.793 95.582 172.184 95.8242C172.574 96.0664 172.873 96.4062 173.08 96.8438C173.287 97.2773 173.391 97.7852 173.391 98.3672V98.9707H168.955C168.967 99.7246 169.154 100.299 169.518 100.693C169.881 101.088 170.393 101.285 171.053 101.285C171.459 101.285 171.818 101.248 172.131 101.174C172.443 101.1 172.768 100.99 173.104 100.846V101.701C172.779 101.846 172.457 101.951 172.137 102.018C171.82 102.084 171.445 102.117 171.012 102.117C170.395 102.117 169.855 101.992 169.395 101.742C168.938 101.488 168.582 101.117 168.328 100.629C168.074 100.141 167.947 99.543 167.947 98.8359C167.947 98.1445 168.062 97.5469 168.293 97.043C168.527 96.5352 168.855 96.1445 169.277 95.8711C169.703 95.5977 170.203 95.4609 170.777 95.4609ZM170.766 96.2578C170.246 96.2578 169.832 96.4277 169.523 96.7676C169.215 97.1074 169.031 97.582 168.973 98.1914H172.371C172.367 97.8086 172.307 97.4727 172.189 97.1836C172.076 96.8906 171.902 96.6641 171.668 96.5039C171.434 96.3398 171.133 96.2578 170.766 96.2578ZM176.021 102H175.043V92.8828H176.021V102ZM179.051 95.5781V102H178.078V95.5781H179.051ZM178.576 93.1758C178.736 93.1758 178.873 93.2285 178.986 93.334C179.104 93.4355 179.162 93.5957 179.162 93.8145C179.162 94.0293 179.104 94.1895 178.986 94.2949C178.873 94.4004 178.736 94.4531 178.576 94.4531C178.408 94.4531 178.268 94.4004 178.154 94.2949C178.045 94.1895 177.99 94.0293 177.99 93.8145C177.99 93.5957 178.045 93.4355 178.154 93.334C178.268 93.2285 178.408 93.1758 178.576 93.1758ZM183.188 101.32C183.348 101.32 183.512 101.307 183.68 101.279C183.848 101.252 183.984 101.219 184.09 101.18V101.936C183.977 101.986 183.818 102.029 183.615 102.064C183.416 102.1 183.221 102.117 183.029 102.117C182.689 102.117 182.381 102.059 182.104 101.941C181.826 101.82 181.604 101.617 181.436 101.332C181.271 101.047 181.189 100.652 181.189 100.148V96.3398H180.275V95.8652L181.195 95.4844L181.582 94.0898H182.168V95.5781H184.049V96.3398H182.168V100.119C182.168 100.521 182.26 100.822 182.443 101.021C182.631 101.221 182.879 101.32 183.188 101.32ZM185.244 101.391C185.244 101.117 185.311 100.924 185.443 100.811C185.576 100.693 185.738 100.635 185.93 100.635C186.129 100.635 186.297 100.693 186.434 100.811C186.57 100.924 186.639 101.117 186.639 101.391C186.639 101.66 186.57 101.857 186.434 101.982C186.297 102.104 186.129 102.164 185.93 102.164C185.738 102.164 185.576 102.104 185.443 101.982C185.311 101.857 185.244 101.66 185.244 101.391ZM198.504 102H197.355L192.686 94.8047H192.639C192.65 94.9961 192.664 95.2148 192.68 95.4609C192.695 95.7031 192.707 95.9629 192.715 96.2402C192.727 96.5137 192.732 96.793 192.732 97.0781V102H191.807V93.4336H192.949L197.602 100.605H197.643C197.635 100.469 197.625 100.275 197.613 100.025C197.602 99.7715 197.59 99.5 197.578 99.2109C197.57 98.918 197.566 98.6465 197.566 98.3965V93.4336H198.504V102ZM205.998 95.5781V102H205.201L205.061 101.098H205.008C204.875 101.32 204.703 101.508 204.492 101.66C204.281 101.812 204.043 101.926 203.777 102C203.516 102.078 203.236 102.117 202.939 102.117C202.432 102.117 202.006 102.035 201.662 101.871C201.318 101.707 201.059 101.453 200.883 101.109C200.711 100.766 200.625 100.324 200.625 99.7852V95.5781H201.609V99.7148C201.609 100.25 201.73 100.65 201.973 100.916C202.215 101.178 202.584 101.309 203.08 101.309C203.557 101.309 203.936 101.219 204.217 101.039C204.502 100.859 204.707 100.596 204.832 100.248C204.957 99.8965 205.02 99.4668 205.02 98.959V95.5781H205.998ZM209.033 102H208.055V92.8828H209.033V102ZM212.068 102H211.09V92.8828H212.068V102ZM216.527 95.4727C217.293 95.4727 217.861 95.6445 218.232 95.9883C218.604 96.332 218.789 96.8809 218.789 97.6348V102H218.08L217.893 101.051H217.846C217.666 101.285 217.479 101.482 217.283 101.643C217.088 101.799 216.861 101.918 216.604 102C216.35 102.078 216.037 102.117 215.666 102.117C215.275 102.117 214.928 102.049 214.623 101.912C214.322 101.775 214.084 101.568 213.908 101.291C213.736 101.014 213.65 100.662 213.65 100.236C213.65 99.5957 213.904 99.1035 214.412 98.7598C214.92 98.416 215.693 98.2285 216.732 98.1973L217.84 98.1504V97.7578C217.84 97.2031 217.721 96.8145 217.482 96.5918C217.244 96.3691 216.908 96.2578 216.475 96.2578C216.139 96.2578 215.818 96.3066 215.514 96.4043C215.209 96.502 214.92 96.6172 214.646 96.75L214.348 96.0117C214.637 95.8633 214.969 95.7363 215.344 95.6309C215.719 95.5254 216.113 95.4727 216.527 95.4727ZM217.828 98.8359L216.85 98.877C216.049 98.9082 215.484 99.0391 215.156 99.2695C214.828 99.5 214.664 99.8262 214.664 100.248C214.664 100.615 214.775 100.887 214.998 101.062C215.221 101.238 215.516 101.326 215.883 101.326C216.453 101.326 216.92 101.168 217.283 100.852C217.646 100.535 217.828 100.061 217.828 99.4277V98.8359ZM227.766 95.4609C228.473 95.4609 229.006 95.6465 229.365 96.0176C229.725 96.3848 229.904 96.9766 229.904 97.793V102H228.943V97.8398C228.943 97.3203 228.83 96.9316 228.604 96.6738C228.381 96.4121 228.049 96.2812 227.607 96.2812C226.986 96.2812 226.535 96.4609 226.254 96.8203C225.973 97.1797 225.832 97.709 225.832 98.4082V102H224.865V97.8398C224.865 97.4922 224.814 97.2031 224.713 96.9727C224.615 96.7422 224.467 96.5703 224.268 96.457C224.072 96.3398 223.824 96.2812 223.523 96.2812C223.098 96.2812 222.756 96.3691 222.498 96.5449C222.24 96.7207 222.053 96.9824 221.936 97.3301C221.822 97.6738 221.766 98.0977 221.766 98.6016V102H220.793V95.5781H221.578L221.725 96.4863H221.777C221.906 96.2637 222.068 96.0762 222.264 95.9238C222.459 95.7715 222.678 95.6562 222.92 95.5781C223.162 95.5 223.42 95.4609 223.693 95.4609C224.182 95.4609 224.59 95.5527 224.918 95.7363C225.25 95.916 225.49 96.1914 225.639 96.5625H225.691C225.902 96.1914 226.191 95.916 226.559 95.7363C226.926 95.5527 227.328 95.4609 227.766 95.4609ZM42.3809 114.777C42.3809 115.305 42.3125 115.775 42.1758 116.189C42.0391 116.604 41.8418 116.953 41.584 117.238C41.3262 117.523 41.0137 117.742 40.6465 117.895C40.2832 118.043 39.8711 118.117 39.4102 118.117C38.9805 118.117 38.5859 118.043 38.2266 117.895C37.8711 117.742 37.5625 117.523 37.3008 117.238C37.043 116.953 36.8418 116.604 36.6973 116.189C36.5566 115.775 36.4863 115.305 36.4863 114.777C36.4863 114.074 36.6055 113.477 36.8438 112.984C37.082 112.488 37.4219 112.111 37.8633 111.854C38.3086 111.592 38.8379 111.461 39.4512 111.461C40.0371 111.461 40.5488 111.592 40.9863 111.854C41.4277 112.115 41.7695 112.494 42.0117 112.99C42.2578 113.482 42.3809 114.078 42.3809 114.777ZM37.4941 114.777C37.4941 115.293 37.5625 115.74 37.6992 116.119C37.8359 116.498 38.0469 116.791 38.332 116.998C38.6172 117.205 38.9844 117.309 39.4336 117.309C39.8789 117.309 40.2441 117.205 40.5293 116.998C40.8184 116.791 41.0312 116.498 41.168 116.119C41.3047 115.74 41.373 115.293 41.373 114.777C41.373 114.266 41.3047 113.824 41.168 113.453C41.0312 113.078 40.8203 112.789 40.5352 112.586C40.25 112.383 39.8809 112.281 39.4277 112.281C38.7598 112.281 38.2695 112.502 37.957 112.943C37.6484 113.385 37.4941 113.996 37.4941 114.777ZM46.9805 111.461C47.1094 111.461 47.2441 111.469 47.3848 111.484C47.5254 111.496 47.6504 111.514 47.7598 111.537L47.6367 112.439C47.5312 112.412 47.4141 112.391 47.2852 112.375C47.1562 112.359 47.0352 112.352 46.9219 112.352C46.6641 112.352 46.4199 112.404 46.1895 112.51C45.9629 112.611 45.7637 112.76 45.5918 112.955C45.4199 113.146 45.2852 113.379 45.1875 113.652C45.0898 113.922 45.041 114.223 45.041 114.555V118H44.0625V111.578H44.8711L44.9766 112.762H45.0176C45.1504 112.523 45.3105 112.307 45.498 112.111C45.6855 111.912 45.9023 111.754 46.1484 111.637C46.3984 111.52 46.6758 111.461 46.9805 111.461ZM52.0137 111.461C52.7754 111.461 53.3516 111.648 53.7422 112.023C54.1328 112.395 54.3281 112.992 54.3281 113.816V118H53.3672V113.881C53.3672 113.346 53.2441 112.945 52.998 112.68C52.7559 112.414 52.3828 112.281 51.8789 112.281C51.168 112.281 50.668 112.482 50.3789 112.885C50.0898 113.287 49.9453 113.871 49.9453 114.637V118H48.9727V111.578H49.7578L49.9043 112.504H49.957C50.0938 112.277 50.2676 112.088 50.4785 111.936C50.6895 111.779 50.9258 111.662 51.1875 111.584C51.4492 111.502 51.7246 111.461 52.0137 111.461ZM58.7344 111.473C59.5 111.473 60.0684 111.645 60.4395 111.988C60.8105 112.332 60.9961 112.881 60.9961 113.635V118H60.2871L60.0996 117.051H60.0527C59.873 117.285 59.6855 117.482 59.4902 117.643C59.2949 117.799 59.0684 117.918 58.8105 118C58.5566 118.078 58.2441 118.117 57.873 118.117C57.4824 118.117 57.1348 118.049 56.8301 117.912C56.5293 117.775 56.291 117.568 56.1152 117.291C55.9434 117.014 55.8574 116.662 55.8574 116.236C55.8574 115.596 56.1113 115.104 56.6191 114.76C57.127 114.416 57.9004 114.229 58.9395 114.197L60.0469 114.15V113.758C60.0469 113.203 59.9277 112.814 59.6895 112.592C59.4512 112.369 59.1152 112.258 58.6816 112.258C58.3457 112.258 58.0254 112.307 57.7207 112.404C57.416 112.502 57.127 112.617 56.8535 112.75L56.5547 112.012C56.8438 111.863 57.1758 111.736 57.5508 111.631C57.9258 111.525 58.3203 111.473 58.7344 111.473ZM60.0352 114.836L59.0566 114.877C58.2559 114.908 57.6914 115.039 57.3633 115.27C57.0352 115.5 56.8711 115.826 56.8711 116.248C56.8711 116.615 56.9824 116.887 57.2051 117.062C57.4277 117.238 57.7227 117.326 58.0898 117.326C58.6602 117.326 59.127 117.168 59.4902 116.852C59.8535 116.535 60.0352 116.061 60.0352 115.428V114.836ZM65.918 111.461C66.0469 111.461 66.1816 111.469 66.3223 111.484C66.4629 111.496 66.5879 111.514 66.6973 111.537L66.5742 112.439C66.4688 112.412 66.3516 112.391 66.2227 112.375C66.0938 112.359 65.9727 112.352 65.8594 112.352C65.6016 112.352 65.3574 112.404 65.127 112.51C64.9004 112.611 64.7012 112.76 64.5293 112.955C64.3574 113.146 64.2227 113.379 64.125 113.652C64.0273 113.922 63.9785 114.223 63.9785 114.555V118H63V111.578H63.8086L63.9141 112.762H63.9551C64.0879 112.523 64.248 112.307 64.4355 112.111C64.623 111.912 64.8398 111.754 65.0859 111.637C65.3359 111.52 65.6133 111.461 65.918 111.461ZM70.3828 111.461C70.9297 111.461 71.3984 111.582 71.7891 111.824C72.1797 112.066 72.4785 112.406 72.6855 112.844C72.8926 113.277 72.9961 113.785 72.9961 114.367V114.971H68.5605C68.5723 115.725 68.7598 116.299 69.123 116.693C69.4863 117.088 69.998 117.285 70.6582 117.285C71.0645 117.285 71.4238 117.248 71.7363 117.174C72.0488 117.1 72.373 116.99 72.709 116.846V117.701C72.3848 117.846 72.0625 117.951 71.7422 118.018C71.4258 118.084 71.0508 118.117 70.6172 118.117C70 118.117 69.4609 117.992 69 117.742C68.543 117.488 68.1875 117.117 67.9336 116.629C67.6797 116.141 67.5527 115.543 67.5527 114.836C67.5527 114.145 67.668 113.547 67.8984 113.043C68.1328 112.535 68.4609 112.145 68.8828 111.871C69.3086 111.598 69.8086 111.461 70.3828 111.461ZM70.3711 112.258C69.8516 112.258 69.4375 112.428 69.1289 112.768C68.8203 113.107 68.6367 113.582 68.5781 114.191H71.9766C71.9727 113.809 71.9121 113.473 71.7949 113.184C71.6816 112.891 71.5078 112.664 71.2734 112.504C71.0391 112.34 70.7383 112.258 70.3711 112.258ZM80.3379 118.117C79.7598 118.117 79.25 117.998 78.8086 117.76C78.3672 117.521 78.0234 117.158 77.7773 116.67C77.5312 116.182 77.4082 115.566 77.4082 114.824C77.4082 114.047 77.5371 113.412 77.7949 112.92C78.0566 112.424 78.416 112.057 78.873 111.818C79.3301 111.58 79.8496 111.461 80.4316 111.461C80.752 111.461 81.0605 111.494 81.3574 111.561C81.6582 111.623 81.9043 111.703 82.0957 111.801L81.8027 112.615C81.6074 112.537 81.3809 112.467 81.123 112.404C80.8691 112.342 80.6309 112.311 80.4082 112.311C79.9629 112.311 79.5918 112.406 79.2949 112.598C79.002 112.789 78.7812 113.07 78.6328 113.441C78.4883 113.812 78.416 114.27 78.416 114.812C78.416 115.332 78.4863 115.775 78.627 116.143C78.7715 116.51 78.9844 116.791 79.2656 116.986C79.5508 117.178 79.9062 117.273 80.332 117.273C80.6719 117.273 80.9785 117.238 81.252 117.168C81.5254 117.094 81.7734 117.008 81.9961 116.91V117.777C81.7812 117.887 81.541 117.971 81.2754 118.029C81.0137 118.088 80.7012 118.117 80.3379 118.117ZM89.0566 114.777C89.0566 115.305 88.9883 115.775 88.8516 116.189C88.7148 116.604 88.5176 116.953 88.2598 117.238C88.002 117.523 87.6895 117.742 87.3223 117.895C86.959 118.043 86.5469 118.117 86.0859 118.117C85.6562 118.117 85.2617 118.043 84.9023 117.895C84.5469 117.742 84.2383 117.523 83.9766 117.238C83.7188 116.953 83.5176 116.604 83.373 116.189C83.2324 115.775 83.1621 115.305 83.1621 114.777C83.1621 114.074 83.2812 113.477 83.5195 112.984C83.7578 112.488 84.0977 112.111 84.5391 111.854C84.9844 111.592 85.5137 111.461 86.127 111.461C86.7129 111.461 87.2246 111.592 87.6621 111.854C88.1035 112.115 88.4453 112.494 88.6875 112.99C88.9336 113.482 89.0566 114.078 89.0566 114.777ZM84.1699 114.777C84.1699 115.293 84.2383 115.74 84.375 116.119C84.5117 116.498 84.7227 116.791 85.0078 116.998C85.293 117.205 85.6602 117.309 86.1094 117.309C86.5547 117.309 86.9199 117.205 87.2051 116.998C87.4941 116.791 87.707 116.498 87.8438 116.119C87.9805 115.74 88.0488 115.293 88.0488 114.777C88.0488 114.266 87.9805 113.824 87.8438 113.453C87.707 113.078 87.4961 112.789 87.2109 112.586C86.9258 112.383 86.5566 112.281 86.1035 112.281C85.4355 112.281 84.9453 112.502 84.6328 112.943C84.3242 113.385 84.1699 113.996 84.1699 114.777ZM93.7793 111.461C94.541 111.461 95.1172 111.648 95.5078 112.023C95.8984 112.395 96.0938 112.992 96.0938 113.816V118H95.1328V113.881C95.1328 113.346 95.0098 112.945 94.7637 112.68C94.5215 112.414 94.1484 112.281 93.6445 112.281C92.9336 112.281 92.4336 112.482 92.1445 112.885C91.8555 113.287 91.7109 113.871 91.7109 114.637V118H90.7383V111.578H91.5234L91.6699 112.504H91.7227C91.8594 112.277 92.0332 112.088 92.2441 111.936C92.4551 111.779 92.6914 111.662 92.9531 111.584C93.2148 111.502 93.4902 111.461 93.7793 111.461ZM102.252 116.242C102.252 116.652 102.148 116.998 101.941 117.279C101.738 117.557 101.445 117.766 101.062 117.906C100.684 118.047 100.23 118.117 99.7031 118.117C99.2539 118.117 98.8652 118.082 98.5371 118.012C98.209 117.941 97.9219 117.842 97.6758 117.713V116.816C97.9375 116.945 98.25 117.062 98.6133 117.168C98.9766 117.273 99.3477 117.326 99.7266 117.326C100.281 117.326 100.684 117.236 100.934 117.057C101.184 116.877 101.309 116.633 101.309 116.324C101.309 116.148 101.258 115.994 101.156 115.861C101.059 115.725 100.893 115.594 100.658 115.469C100.424 115.34 100.1 115.199 99.6855 115.047C99.2754 114.891 98.9199 114.736 98.6191 114.584C98.3223 114.428 98.0918 114.238 97.9277 114.016C97.7676 113.793 97.6875 113.504 97.6875 113.148C97.6875 112.605 97.9062 112.189 98.3438 111.9C98.7852 111.607 99.3633 111.461 100.078 111.461C100.465 111.461 100.826 111.5 101.162 111.578C101.502 111.652 101.818 111.754 102.111 111.883L101.783 112.662C101.518 112.549 101.234 112.453 100.934 112.375C100.633 112.297 100.326 112.258 100.014 112.258C99.5645 112.258 99.2188 112.332 98.9766 112.48C98.7383 112.629 98.6191 112.832 98.6191 113.09C98.6191 113.289 98.6738 113.453 98.7832 113.582C98.8965 113.711 99.0762 113.832 99.3223 113.945C99.5684 114.059 99.8926 114.191 100.295 114.344C100.697 114.492 101.045 114.646 101.338 114.807C101.631 114.963 101.855 115.154 102.012 115.381C102.172 115.604 102.252 115.891 102.252 116.242ZM106.289 111.461C106.836 111.461 107.305 111.582 107.695 111.824C108.086 112.066 108.385 112.406 108.592 112.844C108.799 113.277 108.902 113.785 108.902 114.367V114.971H104.467C104.479 115.725 104.666 116.299 105.029 116.693C105.393 117.088 105.904 117.285 106.564 117.285C106.971 117.285 107.33 117.248 107.643 117.174C107.955 117.1 108.279 116.99 108.615 116.846V117.701C108.291 117.846 107.969 117.951 107.648 118.018C107.332 118.084 106.957 118.117 106.523 118.117C105.906 118.117 105.367 117.992 104.906 117.742C104.449 117.488 104.094 117.117 103.84 116.629C103.586 116.141 103.459 115.543 103.459 114.836C103.459 114.145 103.574 113.547 103.805 113.043C104.039 112.535 104.367 112.145 104.789 111.871C105.215 111.598 105.715 111.461 106.289 111.461ZM106.277 112.258C105.758 112.258 105.344 112.428 105.035 112.768C104.727 113.107 104.543 113.582 104.484 114.191H107.883C107.879 113.809 107.818 113.473 107.701 113.184C107.588 112.891 107.414 112.664 107.18 112.504C106.945 112.34 106.645 112.258 106.277 112.258ZM114.861 120.871V118.117C114.861 117.965 114.865 117.789 114.873 117.59C114.881 117.391 114.895 117.219 114.914 117.074H114.85C114.67 117.371 114.414 117.619 114.082 117.818C113.75 118.018 113.322 118.117 112.799 118.117C112.014 118.117 111.383 117.84 110.906 117.285C110.43 116.73 110.191 115.902 110.191 114.801C110.191 114.078 110.301 113.469 110.52 112.973C110.738 112.477 111.047 112.102 111.445 111.848C111.848 111.59 112.316 111.461 112.852 111.461C113.363 111.461 113.781 111.562 114.105 111.766C114.43 111.965 114.684 112.209 114.867 112.498H114.914L115.061 111.578H115.834V120.871H114.861ZM112.98 117.309C113.434 117.309 113.797 117.225 114.07 117.057C114.344 116.885 114.543 116.627 114.668 116.283C114.797 115.939 114.865 115.512 114.873 115V114.795C114.873 113.967 114.732 113.34 114.451 112.914C114.17 112.484 113.68 112.27 112.98 112.27C112.379 112.27 111.932 112.5 111.639 112.961C111.346 113.418 111.199 114.039 111.199 114.824C111.199 115.609 111.346 116.221 111.639 116.658C111.932 117.092 112.379 117.309 112.98 117.309ZM123.205 111.578V118H122.408L122.268 117.098H122.215C122.082 117.32 121.91 117.508 121.699 117.66C121.488 117.812 121.25 117.926 120.984 118C120.723 118.078 120.443 118.117 120.146 118.117C119.639 118.117 119.213 118.035 118.869 117.871C118.525 117.707 118.266 117.453 118.09 117.109C117.918 116.766 117.832 116.324 117.832 115.785V111.578H118.816V115.715C118.816 116.25 118.938 116.65 119.18 116.916C119.422 117.178 119.791 117.309 120.287 117.309C120.764 117.309 121.143 117.219 121.424 117.039C121.709 116.859 121.914 116.596 122.039 116.248C122.164 115.896 122.227 115.467 122.227 114.959V111.578H123.205ZM127.664 111.473C128.43 111.473 128.998 111.645 129.369 111.988C129.74 112.332 129.926 112.881 129.926 113.635V118H129.217L129.029 117.051H128.982C128.803 117.285 128.615 117.482 128.42 117.643C128.225 117.799 127.998 117.918 127.74 118C127.486 118.078 127.174 118.117 126.803 118.117C126.412 118.117 126.064 118.049 125.76 117.912C125.459 117.775 125.221 117.568 125.045 117.291C124.873 117.014 124.787 116.662 124.787 116.236C124.787 115.596 125.041 115.104 125.549 114.76C126.057 114.416 126.83 114.229 127.869 114.197L128.977 114.15V113.758C128.977 113.203 128.857 112.814 128.619 112.592C128.381 112.369 128.045 112.258 127.611 112.258C127.275 112.258 126.955 112.307 126.65 112.404C126.346 112.502 126.057 112.617 125.783 112.75L125.484 112.012C125.773 111.863 126.105 111.736 126.48 111.631C126.855 111.525 127.25 111.473 127.664 111.473ZM128.965 114.836L127.986 114.877C127.186 114.908 126.621 115.039 126.293 115.27C125.965 115.5 125.801 115.826 125.801 116.248C125.801 116.615 125.912 116.887 126.135 117.062C126.357 117.238 126.652 117.326 127.02 117.326C127.59 117.326 128.057 117.168 128.42 116.852C128.783 116.535 128.965 116.061 128.965 115.428V114.836ZM134.004 117.32C134.164 117.32 134.328 117.307 134.496 117.279C134.664 117.252 134.801 117.219 134.906 117.18V117.936C134.793 117.986 134.635 118.029 134.432 118.064C134.232 118.1 134.037 118.117 133.846 118.117C133.506 118.117 133.197 118.059 132.92 117.941C132.643 117.82 132.42 117.617 132.252 117.332C132.088 117.047 132.006 116.652 132.006 116.148V112.34H131.092V111.865L132.012 111.484L132.398 110.09H132.984V111.578H134.865V112.34H132.984V116.119C132.984 116.521 133.076 116.822 133.26 117.021C133.447 117.221 133.695 117.32 134.004 117.32ZM144.861 114.777C144.861 115.305 144.793 115.775 144.656 116.189C144.52 116.604 144.322 116.953 144.064 117.238C143.807 117.523 143.494 117.742 143.127 117.895C142.764 118.043 142.352 118.117 141.891 118.117C141.461 118.117 141.066 118.043 140.707 117.895C140.352 117.742 140.043 117.523 139.781 117.238C139.523 116.953 139.322 116.604 139.178 116.189C139.037 115.775 138.967 115.305 138.967 114.777C138.967 114.074 139.086 113.477 139.324 112.984C139.562 112.488 139.902 112.111 140.344 111.854C140.789 111.592 141.318 111.461 141.932 111.461C142.518 111.461 143.029 111.592 143.467 111.854C143.908 112.115 144.25 112.494 144.492 112.99C144.738 113.482 144.861 114.078 144.861 114.777ZM139.975 114.777C139.975 115.293 140.043 115.74 140.18 116.119C140.316 116.498 140.527 116.791 140.812 116.998C141.098 117.205 141.465 117.309 141.914 117.309C142.359 117.309 142.725 117.205 143.01 116.998C143.299 116.791 143.512 116.498 143.648 116.119C143.785 115.74 143.854 115.293 143.854 114.777C143.854 114.266 143.785 113.824 143.648 113.453C143.512 113.078 143.301 112.789 143.016 112.586C142.73 112.383 142.361 112.281 141.908 112.281C141.24 112.281 140.75 112.502 140.438 112.943C140.129 113.385 139.975 113.996 139.975 114.777ZM148.828 118.117C148.016 118.117 147.371 117.84 146.895 117.285C146.422 116.73 146.186 115.906 146.186 114.812C146.186 113.707 146.428 112.873 146.912 112.311C147.396 111.744 148.041 111.461 148.846 111.461C149.186 111.461 149.482 111.506 149.736 111.596C149.99 111.686 150.209 111.807 150.393 111.959C150.576 112.107 150.73 112.277 150.855 112.469H150.926C150.91 112.348 150.895 112.182 150.879 111.971C150.863 111.76 150.855 111.588 150.855 111.455V108.883H151.828V118H151.043L150.896 117.086H150.855C150.734 117.277 150.58 117.451 150.393 117.607C150.209 117.764 149.988 117.889 149.73 117.982C149.477 118.072 149.176 118.117 148.828 118.117ZM148.98 117.309C149.668 117.309 150.154 117.113 150.439 116.723C150.725 116.332 150.867 115.752 150.867 114.982V114.807C150.867 113.99 150.73 113.363 150.457 112.926C150.188 112.488 149.695 112.27 148.98 112.27C148.383 112.27 147.936 112.5 147.639 112.961C147.342 113.418 147.193 114.043 147.193 114.836C147.193 115.625 147.34 116.234 147.633 116.664C147.93 117.094 148.379 117.309 148.98 117.309ZM154.863 111.578V118H153.891V111.578H154.863ZM154.389 109.176C154.549 109.176 154.686 109.229 154.799 109.334C154.916 109.436 154.975 109.596 154.975 109.814C154.975 110.029 154.916 110.189 154.799 110.295C154.686 110.4 154.549 110.453 154.389 110.453C154.221 110.453 154.08 110.4 153.967 110.295C153.857 110.189 153.803 110.029 153.803 109.814C153.803 109.596 153.857 109.436 153.967 109.334C154.08 109.229 154.221 109.176 154.389 109.176ZM162.463 114.777C162.463 115.305 162.395 115.775 162.258 116.189C162.121 116.604 161.924 116.953 161.666 117.238C161.408 117.523 161.096 117.742 160.729 117.895C160.365 118.043 159.953 118.117 159.492 118.117C159.062 118.117 158.668 118.043 158.309 117.895C157.953 117.742 157.645 117.523 157.383 117.238C157.125 116.953 156.924 116.604 156.779 116.189C156.639 115.775 156.568 115.305 156.568 114.777C156.568 114.074 156.688 113.477 156.926 112.984C157.164 112.488 157.504 112.111 157.945 111.854C158.391 111.592 158.92 111.461 159.533 111.461C160.119 111.461 160.631 111.592 161.068 111.854C161.51 112.115 161.852 112.494 162.094 112.99C162.34 113.482 162.463 114.078 162.463 114.777ZM157.576 114.777C157.576 115.293 157.645 115.74 157.781 116.119C157.918 116.498 158.129 116.791 158.414 116.998C158.699 117.205 159.066 117.309 159.516 117.309C159.961 117.309 160.326 117.205 160.611 116.998C160.9 116.791 161.113 116.498 161.25 116.119C161.387 115.74 161.455 115.293 161.455 114.777C161.455 114.266 161.387 113.824 161.25 113.453C161.113 113.078 160.902 112.789 160.617 112.586C160.332 112.383 159.963 112.281 159.51 112.281C158.842 112.281 158.352 112.502 158.039 112.943C157.73 113.385 157.576 113.996 157.576 114.777ZM165.258 116.605L165.334 116.74C165.264 117.025 165.174 117.33 165.064 117.654C164.959 117.979 164.842 118.303 164.713 118.627C164.588 118.955 164.461 119.262 164.332 119.547H163.605C163.688 119.234 163.768 118.904 163.846 118.557C163.924 118.213 163.994 117.873 164.057 117.537C164.123 117.197 164.176 116.887 164.215 116.605H165.258ZM174.674 120.871V118.117C174.674 117.965 174.678 117.789 174.686 117.59C174.693 117.391 174.707 117.219 174.727 117.074H174.662C174.482 117.371 174.227 117.619 173.895 117.818C173.562 118.018 173.135 118.117 172.611 118.117C171.826 118.117 171.195 117.84 170.719 117.285C170.242 116.73 170.004 115.902 170.004 114.801C170.004 114.078 170.113 113.469 170.332 112.973C170.551 112.477 170.859 112.102 171.258 111.848C171.66 111.59 172.129 111.461 172.664 111.461C173.176 111.461 173.594 111.562 173.918 111.766C174.242 111.965 174.496 112.209 174.68 112.498H174.727L174.873 111.578H175.646V120.871H174.674ZM172.793 117.309C173.246 117.309 173.609 117.225 173.883 117.057C174.156 116.885 174.355 116.627 174.48 116.283C174.609 115.939 174.678 115.512 174.686 115V114.795C174.686 113.967 174.545 113.34 174.264 112.914C173.982 112.484 173.492 112.27 172.793 112.27C172.191 112.27 171.744 112.5 171.451 112.961C171.158 113.418 171.012 114.039 171.012 114.824C171.012 115.609 171.158 116.221 171.451 116.658C171.744 117.092 172.191 117.309 172.793 117.309ZM183.018 111.578V118H182.221L182.08 117.098H182.027C181.895 117.32 181.723 117.508 181.512 117.66C181.301 117.812 181.062 117.926 180.797 118C180.535 118.078 180.256 118.117 179.959 118.117C179.451 118.117 179.025 118.035 178.682 117.871C178.338 117.707 178.078 117.453 177.902 117.109C177.73 116.766 177.645 116.324 177.645 115.785V111.578H178.629V115.715C178.629 116.25 178.75 116.65 178.992 116.916C179.234 117.178 179.604 117.309 180.1 117.309C180.576 117.309 180.955 117.219 181.236 117.039C181.521 116.859 181.727 116.596 181.852 116.248C181.977 115.896 182.039 115.467 182.039 114.959V111.578H183.018ZM186.047 111.578V118H185.074V111.578H186.047ZM185.572 109.176C185.732 109.176 185.869 109.229 185.982 109.334C186.1 109.436 186.158 109.596 186.158 109.814C186.158 110.029 186.1 110.189 185.982 110.295C185.869 110.4 185.732 110.453 185.572 110.453C185.404 110.453 185.264 110.4 185.15 110.295C185.041 110.189 184.986 110.029 184.986 109.814C184.986 109.596 185.041 109.436 185.15 109.334C185.264 109.229 185.404 109.176 185.572 109.176ZM192.264 116.242C192.264 116.652 192.16 116.998 191.953 117.279C191.75 117.557 191.457 117.766 191.074 117.906C190.695 118.047 190.242 118.117 189.715 118.117C189.266 118.117 188.877 118.082 188.549 118.012C188.221 117.941 187.934 117.842 187.688 117.713V116.816C187.949 116.945 188.262 117.062 188.625 117.168C188.988 117.273 189.359 117.326 189.738 117.326C190.293 117.326 190.695 117.236 190.945 117.057C191.195 116.877 191.32 116.633 191.32 116.324C191.32 116.148 191.27 115.994 191.168 115.861C191.07 115.725 190.904 115.594 190.67 115.469C190.436 115.34 190.111 115.199 189.697 115.047C189.287 114.891 188.932 114.736 188.631 114.584C188.334 114.428 188.104 114.238 187.939 114.016C187.779 113.793 187.699 113.504 187.699 113.148C187.699 112.605 187.918 112.189 188.355 111.9C188.797 111.607 189.375 111.461 190.09 111.461C190.477 111.461 190.838 111.5 191.174 111.578C191.514 111.652 191.83 111.754 192.123 111.883L191.795 112.662C191.529 112.549 191.246 112.453 190.945 112.375C190.645 112.297 190.338 112.258 190.025 112.258C189.576 112.258 189.23 112.332 188.988 112.48C188.75 112.629 188.631 112.832 188.631 113.09C188.631 113.289 188.686 113.453 188.795 113.582C188.908 113.711 189.088 113.832 189.334 113.945C189.58 114.059 189.904 114.191 190.307 114.344C190.709 114.492 191.057 114.646 191.35 114.807C191.643 114.963 191.867 115.154 192.023 115.381C192.184 115.604 192.264 115.891 192.264 116.242ZM198.357 118L195.92 111.578H196.963L198.375 115.463C198.473 115.729 198.572 116.021 198.674 116.342C198.775 116.662 198.846 116.92 198.885 117.115H198.926C198.973 116.92 199.051 116.662 199.16 116.342C199.27 116.018 199.369 115.725 199.459 115.463L200.871 111.578H201.914L199.471 118H198.357ZM203.918 111.578V118H202.945V111.578H203.918ZM203.443 109.176C203.604 109.176 203.74 109.229 203.854 109.334C203.971 109.436 204.029 109.596 204.029 109.814C204.029 110.029 203.971 110.189 203.854 110.295C203.74 110.4 203.604 110.453 203.443 110.453C203.275 110.453 203.135 110.4 203.021 110.295C202.912 110.189 202.857 110.029 202.857 109.814C202.857 109.596 202.912 109.436 203.021 109.334C203.135 109.229 203.275 109.176 203.443 109.176ZM207.393 118L204.955 111.578H205.998L207.41 115.463C207.508 115.729 207.607 116.021 207.709 116.342C207.811 116.662 207.881 116.92 207.92 117.115H207.961C208.008 116.92 208.086 116.662 208.195 116.342C208.305 116.018 208.404 115.725 208.494 115.463L209.906 111.578H210.949L208.506 118H207.393ZM214.453 111.461C215 111.461 215.469 111.582 215.859 111.824C216.25 112.066 216.549 112.406 216.756 112.844C216.963 113.277 217.066 113.785 217.066 114.367V114.971H212.631C212.643 115.725 212.83 116.299 213.193 116.693C213.557 117.088 214.068 117.285 214.729 117.285C215.135 117.285 215.494 117.248 215.807 117.174C216.119 117.1 216.443 116.99 216.779 116.846V117.701C216.455 117.846 216.133 117.951 215.812 118.018C215.496 118.084 215.121 118.117 214.688 118.117C214.07 118.117 213.531 117.992 213.07 117.742C212.613 117.488 212.258 117.117 212.004 116.629C211.75 116.141 211.623 115.543 211.623 114.836C211.623 114.145 211.738 113.547 211.969 113.043C212.203 112.535 212.531 112.145 212.953 111.871C213.379 111.598 213.879 111.461 214.453 111.461ZM214.441 112.258C213.922 112.258 213.508 112.428 213.199 112.768C212.891 113.107 212.707 113.582 212.648 114.191H216.047C216.043 113.809 215.982 113.473 215.865 113.184C215.752 112.891 215.578 112.664 215.344 112.504C215.109 112.34 214.809 112.258 214.441 112.258ZM221.637 111.461C221.766 111.461 221.9 111.469 222.041 111.484C222.182 111.496 222.307 111.514 222.416 111.537L222.293 112.439C222.188 112.412 222.07 112.391 221.941 112.375C221.812 112.359 221.691 112.352 221.578 112.352C221.32 112.352 221.076 112.404 220.846 112.51C220.619 112.611 220.42 112.76 220.248 112.955C220.076 113.146 219.941 113.379 219.844 113.652C219.746 113.922 219.697 114.223 219.697 114.555V118H218.719V111.578H219.527L219.633 112.762H219.674C219.807 112.523 219.967 112.307 220.154 112.111C220.342 111.912 220.559 111.754 220.805 111.637C221.055 111.52 221.332 111.461 221.637 111.461ZM226.547 111.461C226.676 111.461 226.811 111.469 226.951 111.484C227.092 111.496 227.217 111.514 227.326 111.537L227.203 112.439C227.098 112.412 226.98 112.391 226.852 112.375C226.723 112.359 226.602 112.352 226.488 112.352C226.23 112.352 225.986 112.404 225.756 112.51C225.529 112.611 225.33 112.76 225.158 112.955C224.986 113.146 224.852 113.379 224.754 113.652C224.656 113.922 224.607 114.223 224.607 114.555V118H223.629V111.578H224.438L224.543 112.762H224.584C224.717 112.523 224.877 112.307 225.064 112.111C225.252 111.912 225.469 111.754 225.715 111.637C225.965 111.52 226.242 111.461 226.547 111.461ZM230.941 111.473C231.707 111.473 232.275 111.645 232.646 111.988C233.018 112.332 233.203 112.881 233.203 113.635V118H232.494L232.307 117.051H232.26C232.08 117.285 231.893 117.482 231.697 117.643C231.502 117.799 231.275 117.918 231.018 118C230.764 118.078 230.451 118.117 230.08 118.117C229.689 118.117 229.342 118.049 229.037 117.912C228.736 117.775 228.498 117.568 228.322 117.291C228.15 117.014 228.064 116.662 228.064 116.236C228.064 115.596 228.318 115.104 228.826 114.76C229.334 114.416 230.107 114.229 231.146 114.197L232.254 114.15V113.758C232.254 113.203 232.135 112.814 231.896 112.592C231.658 112.369 231.322 112.258 230.889 112.258C230.553 112.258 230.232 112.307 229.928 112.404C229.623 112.502 229.334 112.617 229.061 112.75L228.762 112.012C229.051 111.863 229.383 111.736 229.758 111.631C230.133 111.525 230.527 111.473 230.941 111.473ZM232.242 114.836L231.264 114.877C230.463 114.908 229.898 115.039 229.57 115.27C229.242 115.5 229.078 115.826 229.078 116.248C229.078 116.615 229.189 116.887 229.412 117.062C229.635 117.238 229.93 117.326 230.297 117.326C230.867 117.326 231.334 117.168 231.697 116.852C232.061 116.535 232.242 116.061 232.242 115.428V114.836ZM78.1289 134.117C77.3164 134.117 76.6719 133.84 76.1953 133.285C75.7227 132.73 75.4863 131.906 75.4863 130.812C75.4863 129.707 75.7285 128.873 76.2129 128.311C76.6973 127.744 77.3418 127.461 78.1465 127.461C78.4863 127.461 78.7832 127.506 79.0371 127.596C79.291 127.686 79.5098 127.807 79.6934 127.959C79.877 128.107 80.0312 128.277 80.1562 128.469H80.2266C80.2109 128.348 80.1953 128.182 80.1797 127.971C80.1641 127.76 80.1562 127.588 80.1562 127.455V124.883H81.1289V134H80.3438L80.1973 133.086H80.1562C80.0352 133.277 79.8809 133.451 79.6934 133.607C79.5098 133.764 79.2891 133.889 79.0312 133.982C78.7773 134.072 78.4766 134.117 78.1289 134.117ZM78.2812 133.309C78.9688 133.309 79.4551 133.113 79.7402 132.723C80.0254 132.332 80.168 131.752 80.168 130.982V130.807C80.168 129.99 80.0312 129.363 79.7578 128.926C79.4883 128.488 78.9961 128.27 78.2812 128.27C77.6836 128.27 77.2363 128.5 76.9395 128.961C76.6426 129.418 76.4941 130.043 76.4941 130.836C76.4941 131.625 76.6406 132.234 76.9336 132.664C77.2305 133.094 77.6797 133.309 78.2812 133.309ZM84.1641 127.578V134H83.1914V127.578H84.1641ZM83.6895 125.176C83.8496 125.176 83.9863 125.229 84.0996 125.334C84.2168 125.436 84.2754 125.596 84.2754 125.814C84.2754 126.029 84.2168 126.189 84.0996 126.295C83.9863 126.4 83.8496 126.453 83.6895 126.453C83.5215 126.453 83.3809 126.4 83.2676 126.295C83.1582 126.189 83.1035 126.029 83.1035 125.814C83.1035 125.596 83.1582 125.436 83.2676 125.334C83.3809 125.229 83.5215 125.176 83.6895 125.176ZM88.6289 127.473C89.3945 127.473 89.9629 127.645 90.334 127.988C90.7051 128.332 90.8906 128.881 90.8906 129.635V134H90.1816L89.9941 133.051H89.9473C89.7676 133.285 89.5801 133.482 89.3848 133.643C89.1895 133.799 88.9629 133.918 88.7051 134C88.4512 134.078 88.1387 134.117 87.7676 134.117C87.377 134.117 87.0293 134.049 86.7246 133.912C86.4238 133.775 86.1855 133.568 86.0098 133.291C85.8379 133.014 85.752 132.662 85.752 132.236C85.752 131.596 86.0059 131.104 86.5137 130.76C87.0215 130.416 87.7949 130.229 88.834 130.197L89.9414 130.15V129.758C89.9414 129.203 89.8223 128.814 89.584 128.592C89.3457 128.369 89.0098 128.258 88.5762 128.258C88.2402 128.258 87.9199 128.307 87.6152 128.404C87.3105 128.502 87.0215 128.617 86.748 128.75L86.4492 128.012C86.7383 127.863 87.0703 127.736 87.4453 127.631C87.8203 127.525 88.2148 127.473 88.6289 127.473ZM89.9297 130.836L88.9512 130.877C88.1504 130.908 87.5859 131.039 87.2578 131.27C86.9297 131.5 86.7656 131.826 86.7656 132.248C86.7656 132.615 86.877 132.887 87.0996 133.062C87.3223 133.238 87.6172 133.326 87.9844 133.326C88.5547 133.326 89.0215 133.168 89.3848 132.852C89.748 132.535 89.9297 132.061 89.9297 131.428V130.836ZM99.8672 127.461C100.574 127.461 101.107 127.646 101.467 128.018C101.826 128.385 102.006 128.977 102.006 129.793V134H101.045V129.84C101.045 129.32 100.932 128.932 100.705 128.674C100.482 128.412 100.15 128.281 99.709 128.281C99.0879 128.281 98.6367 128.461 98.3555 128.82C98.0742 129.18 97.9336 129.709 97.9336 130.408V134H96.9668V129.84C96.9668 129.492 96.916 129.203 96.8145 128.973C96.7168 128.742 96.5684 128.57 96.3691 128.457C96.1738 128.34 95.9258 128.281 95.625 128.281C95.1992 128.281 94.8574 128.369 94.5996 128.545C94.3418 128.721 94.1543 128.982 94.0371 129.33C93.9238 129.674 93.8672 130.098 93.8672 130.602V134H92.8945V127.578H93.6797L93.8262 128.486H93.8789C94.0078 128.264 94.1699 128.076 94.3652 127.924C94.5605 127.771 94.7793 127.656 95.0215 127.578C95.2637 127.5 95.5215 127.461 95.7949 127.461C96.2832 127.461 96.6914 127.553 97.0195 127.736C97.3516 127.916 97.5918 128.191 97.7402 128.562H97.793C98.0039 128.191 98.293 127.916 98.6602 127.736C99.0273 127.553 99.4297 127.461 99.8672 127.461ZM110.139 127.461C110.939 127.461 111.578 127.736 112.055 128.287C112.531 128.838 112.77 129.666 112.77 130.771C112.77 131.502 112.66 132.115 112.441 132.611C112.223 133.107 111.914 133.482 111.516 133.736C111.121 133.99 110.654 134.117 110.115 134.117C109.775 134.117 109.477 134.072 109.219 133.982C108.961 133.893 108.74 133.771 108.557 133.619C108.373 133.467 108.221 133.301 108.1 133.121H108.029C108.041 133.273 108.055 133.457 108.07 133.672C108.09 133.887 108.1 134.074 108.1 134.234V136.871H107.121V127.578H107.924L108.053 128.527H108.1C108.225 128.332 108.377 128.154 108.557 127.994C108.736 127.83 108.955 127.701 109.213 127.607C109.475 127.51 109.783 127.461 110.139 127.461ZM109.969 128.281C109.523 128.281 109.164 128.367 108.891 128.539C108.621 128.711 108.424 128.969 108.299 129.312C108.174 129.652 108.107 130.08 108.1 130.596V130.783C108.1 131.326 108.158 131.785 108.275 132.16C108.396 132.535 108.594 132.82 108.867 133.016C109.145 133.211 109.516 133.309 109.98 133.309C110.379 133.309 110.711 133.201 110.977 132.986C111.242 132.771 111.439 132.473 111.568 132.09C111.701 131.703 111.768 131.26 111.768 130.76C111.768 130.002 111.619 129.4 111.322 128.955C111.029 128.506 110.578 128.281 109.969 128.281ZM116.941 127.461C117.488 127.461 117.957 127.582 118.348 127.824C118.738 128.066 119.037 128.406 119.244 128.844C119.451 129.277 119.555 129.785 119.555 130.367V130.971H115.119C115.131 131.725 115.318 132.299 115.682 132.693C116.045 133.088 116.557 133.285 117.217 133.285C117.623 133.285 117.982 133.248 118.295 133.174C118.607 133.1 118.932 132.99 119.268 132.846V133.701C118.943 133.846 118.621 133.951 118.301 134.018C117.984 134.084 117.609 134.117 117.176 134.117C116.559 134.117 116.02 133.992 115.559 133.742C115.102 133.488 114.746 133.117 114.492 132.629C114.238 132.141 114.111 131.543 114.111 130.836C114.111 130.145 114.227 129.547 114.457 129.043C114.691 128.535 115.02 128.145 115.441 127.871C115.867 127.598 116.367 127.461 116.941 127.461ZM116.93 128.258C116.41 128.258 115.996 128.428 115.688 128.768C115.379 129.107 115.195 129.582 115.137 130.191H118.535C118.531 129.809 118.471 129.473 118.354 129.184C118.24 128.891 118.066 128.664 117.832 128.504C117.598 128.34 117.297 128.258 116.93 128.258ZM122.186 134H121.207V124.883H122.186V134ZM125.221 134H124.242V124.883H125.221V134ZM129.75 127.461C130.297 127.461 130.766 127.582 131.156 127.824C131.547 128.066 131.846 128.406 132.053 128.844C132.26 129.277 132.363 129.785 132.363 130.367V130.971H127.928C127.939 131.725 128.127 132.299 128.49 132.693C128.854 133.088 129.365 133.285 130.025 133.285C130.432 133.285 130.791 133.248 131.104 133.174C131.416 133.1 131.74 132.99 132.076 132.846V133.701C131.752 133.846 131.43 133.951 131.109 134.018C130.793 134.084 130.418 134.117 129.984 134.117C129.367 134.117 128.828 133.992 128.367 133.742C127.91 133.488 127.555 133.117 127.301 132.629C127.047 132.141 126.92 131.543 126.92 130.836C126.92 130.145 127.035 129.547 127.266 129.043C127.5 128.535 127.828 128.145 128.25 127.871C128.676 127.598 129.176 127.461 129.75 127.461ZM129.738 128.258C129.219 128.258 128.805 128.428 128.496 128.768C128.188 129.107 128.004 129.582 127.945 130.191H131.344C131.34 129.809 131.279 129.473 131.162 129.184C131.049 128.891 130.875 128.664 130.641 128.504C130.406 128.34 130.105 128.258 129.738 128.258ZM137.057 127.461C137.818 127.461 138.395 127.648 138.785 128.023C139.176 128.395 139.371 128.992 139.371 129.816V134H138.41V129.881C138.41 129.346 138.287 128.945 138.041 128.68C137.799 128.414 137.426 128.281 136.922 128.281C136.211 128.281 135.711 128.482 135.422 128.885C135.133 129.287 134.988 129.871 134.988 130.637V134H134.016V127.578H134.801L134.947 128.504H135C135.137 128.277 135.311 128.088 135.521 127.936C135.732 127.779 135.969 127.662 136.23 127.584C136.492 127.502 136.768 127.461 137.057 127.461ZM143.449 133.32C143.609 133.32 143.773 133.307 143.941 133.279C144.109 133.252 144.246 133.219 144.352 133.18V133.936C144.238 133.986 144.08 134.029 143.877 134.064C143.678 134.1 143.482 134.117 143.291 134.117C142.951 134.117 142.643 134.059 142.365 133.941C142.088 133.82 141.865 133.617 141.697 133.332C141.533 133.047 141.451 132.652 141.451 132.148V128.34H140.537V127.865L141.457 127.484L141.844 126.09H142.43V127.578H144.311V128.34H142.43V132.119C142.43 132.521 142.521 132.822 142.705 133.021C142.893 133.221 143.141 133.32 143.449 133.32ZM148.125 127.461C148.672 127.461 149.141 127.582 149.531 127.824C149.922 128.066 150.221 128.406 150.428 128.844C150.635 129.277 150.738 129.785 150.738 130.367V130.971H146.303C146.314 131.725 146.502 132.299 146.865 132.693C147.229 133.088 147.74 133.285 148.4 133.285C148.807 133.285 149.166 133.248 149.479 133.174C149.791 133.1 150.115 132.99 150.451 132.846V133.701C150.127 133.846 149.805 133.951 149.484 134.018C149.168 134.084 148.793 134.117 148.359 134.117C147.742 134.117 147.203 133.992 146.742 133.742C146.285 133.488 145.93 133.117 145.676 132.629C145.422 132.141 145.295 131.543 145.295 130.836C145.295 130.145 145.41 129.547 145.641 129.043C145.875 128.535 146.203 128.145 146.625 127.871C147.051 127.598 147.551 127.461 148.125 127.461ZM148.113 128.258C147.594 128.258 147.18 128.428 146.871 128.768C146.562 129.107 146.379 129.582 146.32 130.191H149.719C149.715 129.809 149.654 129.473 149.537 129.184C149.424 128.891 149.25 128.664 149.016 128.504C148.781 128.34 148.48 128.258 148.113 128.258ZM156.545 132.242C156.545 132.652 156.441 132.998 156.234 133.279C156.031 133.557 155.738 133.766 155.355 133.906C154.977 134.047 154.523 134.117 153.996 134.117C153.547 134.117 153.158 134.082 152.83 134.012C152.502 133.941 152.215 133.842 151.969 133.713V132.816C152.23 132.945 152.543 133.062 152.906 133.168C153.27 133.273 153.641 133.326 154.02 133.326C154.574 133.326 154.977 133.236 155.227 133.057C155.477 132.877 155.602 132.633 155.602 132.324C155.602 132.148 155.551 131.994 155.449 131.861C155.352 131.725 155.186 131.594 154.951 131.469C154.717 131.34 154.393 131.199 153.979 131.047C153.568 130.891 153.213 130.736 152.912 130.584C152.615 130.428 152.385 130.238 152.221 130.016C152.061 129.793 151.98 129.504 151.98 129.148C151.98 128.605 152.199 128.189 152.637 127.9C153.078 127.607 153.656 127.461 154.371 127.461C154.758 127.461 155.119 127.5 155.455 127.578C155.795 127.652 156.111 127.754 156.404 127.883L156.076 128.662C155.811 128.549 155.527 128.453 155.227 128.375C154.926 128.297 154.619 128.258 154.307 128.258C153.857 128.258 153.512 128.332 153.27 128.48C153.031 128.629 152.912 128.832 152.912 129.09C152.912 129.289 152.967 129.453 153.076 129.582C153.189 129.711 153.369 129.832 153.615 129.945C153.861 130.059 154.186 130.191 154.588 130.344C154.99 130.492 155.338 130.646 155.631 130.807C155.924 130.963 156.148 131.154 156.305 131.381C156.465 131.604 156.545 131.891 156.545 132.242ZM162.416 136.871V134.117C162.416 133.965 162.42 133.789 162.428 133.59C162.436 133.391 162.449 133.219 162.469 133.074H162.404C162.225 133.371 161.969 133.619 161.637 133.818C161.305 134.018 160.877 134.117 160.354 134.117C159.568 134.117 158.938 133.84 158.461 133.285C157.984 132.73 157.746 131.902 157.746 130.801C157.746 130.078 157.855 129.469 158.074 128.973C158.293 128.477 158.602 128.102 159 127.848C159.402 127.59 159.871 127.461 160.406 127.461C160.918 127.461 161.336 127.562 161.66 127.766C161.984 127.965 162.238 128.209 162.422 128.498H162.469L162.615 127.578H163.389V136.871H162.416ZM160.535 133.309C160.988 133.309 161.352 133.225 161.625 133.057C161.898 132.885 162.098 132.627 162.223 132.283C162.352 131.939 162.42 131.512 162.428 131V130.795C162.428 129.967 162.287 129.34 162.006 128.914C161.725 128.484 161.234 128.27 160.535 128.27C159.934 128.27 159.486 128.5 159.193 128.961C158.9 129.418 158.754 130.039 158.754 130.824C158.754 131.609 158.9 132.221 159.193 132.658C159.486 133.092 159.934 133.309 160.535 133.309ZM170.76 127.578V134H169.963L169.822 133.098H169.77C169.637 133.32 169.465 133.508 169.254 133.66C169.043 133.812 168.805 133.926 168.539 134C168.277 134.078 167.998 134.117 167.701 134.117C167.193 134.117 166.768 134.035 166.424 133.871C166.08 133.707 165.82 133.453 165.645 133.109C165.473 132.766 165.387 132.324 165.387 131.785V127.578H166.371V131.715C166.371 132.25 166.492 132.65 166.734 132.916C166.977 133.178 167.346 133.309 167.842 133.309C168.318 133.309 168.697 133.219 168.979 133.039C169.264 132.859 169.469 132.596 169.594 132.248C169.719 131.896 169.781 131.467 169.781 130.959V127.578H170.76ZM175.289 127.461C175.836 127.461 176.305 127.582 176.695 127.824C177.086 128.066 177.385 128.406 177.592 128.844C177.799 129.277 177.902 129.785 177.902 130.367V130.971H173.467C173.479 131.725 173.666 132.299 174.029 132.693C174.393 133.088 174.904 133.285 175.564 133.285C175.971 133.285 176.33 133.248 176.643 133.174C176.955 133.1 177.279 132.99 177.615 132.846V133.701C177.291 133.846 176.969 133.951 176.648 134.018C176.332 134.084 175.957 134.117 175.523 134.117C174.906 134.117 174.367 133.992 173.906 133.742C173.449 133.488 173.094 133.117 172.84 132.629C172.586 132.141 172.459 131.543 172.459 130.836C172.459 130.145 172.574 129.547 172.805 129.043C173.039 128.535 173.367 128.145 173.789 127.871C174.215 127.598 174.715 127.461 175.289 127.461ZM175.277 128.258C174.758 128.258 174.344 128.428 174.035 128.768C173.727 129.107 173.543 129.582 173.484 130.191H176.883C176.879 129.809 176.818 129.473 176.701 129.184C176.588 128.891 176.414 128.664 176.18 128.504C175.945 128.34 175.645 128.258 175.277 128.258ZM183.645 127.578V134H182.672V127.578H183.645ZM183.17 125.176C183.33 125.176 183.467 125.229 183.58 125.334C183.697 125.436 183.756 125.596 183.756 125.814C183.756 126.029 183.697 126.189 183.58 126.295C183.467 126.4 183.33 126.453 183.17 126.453C183.002 126.453 182.861 126.4 182.748 126.295C182.639 126.189 182.584 126.029 182.584 125.814C182.584 125.596 182.639 125.436 182.748 125.334C182.861 125.229 183.002 125.176 183.17 125.176ZM187.992 134.117C187.18 134.117 186.535 133.84 186.059 133.285C185.586 132.73 185.35 131.906 185.35 130.812C185.35 129.707 185.592 128.873 186.076 128.311C186.561 127.744 187.205 127.461 188.01 127.461C188.35 127.461 188.646 127.506 188.9 127.596C189.154 127.686 189.373 127.807 189.557 127.959C189.74 128.107 189.895 128.277 190.02 128.469H190.09C190.074 128.348 190.059 128.182 190.043 127.971C190.027 127.76 190.02 127.588 190.02 127.455V124.883H190.992V134H190.207L190.061 133.086H190.02C189.898 133.277 189.744 133.451 189.557 133.607C189.373 133.764 189.152 133.889 188.895 133.982C188.641 134.072 188.34 134.117 187.992 134.117ZM188.145 133.309C188.832 133.309 189.318 133.113 189.604 132.723C189.889 132.332 190.031 131.752 190.031 130.982V130.807C190.031 129.99 189.895 129.363 189.621 128.926C189.352 128.488 188.859 128.27 188.145 128.27C187.547 128.27 187.1 128.5 186.803 128.961C186.506 129.418 186.357 130.043 186.357 130.836C186.357 131.625 186.504 132.234 186.797 132.664C187.094 133.094 187.543 133.309 188.145 133.309ZM192.908 133.391C192.908 133.117 192.975 132.924 193.107 132.811C193.24 132.693 193.402 132.635 193.594 132.635C193.793 132.635 193.961 132.693 194.098 132.811C194.234 132.924 194.303 133.117 194.303 133.391C194.303 133.66 194.234 133.857 194.098 133.982C193.961 134.104 193.793 134.164 193.594 134.164C193.402 134.164 193.24 134.104 193.107 133.982C192.975 133.857 192.908 133.66 192.908 133.391Z" fill="black"/>
<g filter="url(#filter2_d_301_286)">
<circle cx="131" cy="190" r="22" fill="url(#paint3_linear_301_286)"/>
<circle cx="131" cy="190" r="21" stroke="#F88138" stroke-width="2"/>
</g>
<path d="M144 190L124.5 201.258L124.5 178.742L144 190Z" fill="#FEFEFF"/>
<defs>
<filter id="filter0_d_301_286" x="0" y="22" width="270" height="184" filterUnits="userSpaceOnUse" color-interpolation-filters="sRGB">
<feFlood flood-opacity="0" result="BackgroundImageFix"/>
<feColorMatrix in="SourceAlpha" type="matrix" values="0 0 0 0 0 0 0 0 0 0 0 0 0 0 0 0 0 0 127 0" result="hardAlpha"/>
<feOffset dy="8"/>
<feGaussianBlur stdDeviation="4"/>
<feComposite in2="hardAlpha" operator="out"/>
<feColorMatrix type="matrix" values="0 0 0 0 0 0 0 0 0 0 0 0 0 0 0 0 0 0 0.32 0"/>
<feBlend mode="normal" in2="BackgroundImageFix" result="effect1_dropShadow_301_286"/>
<feBlend mode="normal" in="SourceGraphic" in2="effect1_dropShadow_301_286" result="shape"/>
</filter>
<filter id="filter1_d_301_286" x="27" y="0" width="216" height="52" filterUnits="userSpaceOnUse" color-interpolation-filters="sRGB">
<feFlood flood-opacity="0" result="BackgroundImageFix"/>
<feColorMatrix in="SourceAlpha" type="matrix" values="0 0 0 0 0 0 0 0 0 0 0 0 0 0 0 0 0 0 127 0" result="hardAlpha"/>
<feOffset dy="4"/>
<feGaussianBlur stdDeviation="2"/>
<feComposite in2="hardAlpha" operator="out"/>
<feColorMatrix type="matrix" values="0 0 0 0 0.352941 0 0 0 0 0.768627 0 0 0 0 0.47451 0 0 0 0.25 0"/>
<feBlend mode="normal" in2="BackgroundImageFix" result="effect1_dropShadow_301_286"/>
<feBlend mode="normal" in="SourceGraphic" in2="effect1_dropShadow_301_286" result="shape"/>
</filter>
<filter id="filter2_d_301_286" x="105" y="168" width="52" height="52" filterUnits="userSpaceOnUse" color-interpolation-filters="sRGB">
<feFlood flood-opacity="0" result="BackgroundImageFix"/>
<feColorMatrix in="SourceAlpha" type="matrix" values="0 0 0 0 0 0 0 0 0 0 0 0 0 0 0 0 0 0 127 0" result="hardAlpha"/>
<feOffset dy="4"/>
<feGaussianBlur stdDeviation="2"/>
<feComposite in2="hardAlpha" operator="out"/>
<feColorMatrix type="matrix" values="0 0 0 0 0.960784 0 0 0 0 0.380392 0 0 0 0 0.0196078 0 0 0 0.25 0"/>
<feBlend mode="normal" in2="BackgroundImageFix" result="effect1_dropShadow_301_286"/>
<feBlend mode="normal" in="SourceGraphic" in2="effect1_dropShadow_301_286" result="shape"/>
</filter>
<linearGradient id="paint0_linear_301_286" x1="135" y1="22" x2="135" y2="190" gradientUnits="userSpaceOnUse">
<stop stop-color="#D8F5FF"/>
<stop offset="0.28125" stop-color="#48A5D1"/>
<stop offset="1" stop-color="#005983"/>
</linearGradient>
<linearGradient id="paint1_linear_301_286" x1="135" y1="22" x2="135" y2="190" gradientUnits="userSpaceOnUse">
<stop stop-color="#48A5D1"/>
<stop offset="1" stop-color="#D8F5FF"/>
</linearGradient>
<linearGradient id="paint2_linear_301_286" x1="135" y1="0" x2="135" y2="44" gradientUnits="userSpaceOnUse">
<stop stop-color="#94DFB6"/>
<stop offset="0.28125" stop-color="#7CD49D"/>
<stop offset="1" stop-color="#5AC479"/>
</linearGradient>
<linearGradient id="paint3_linear_301_286" x1="131" y1="168" x2="131" y2="212" gradientUnits="userSpaceOnUse">
<stop stop-color="#FFA959"/>
<stop offset="0.71875" stop-color="#F88138"/>
<stop offset="1" stop-color="#E25E0C"/>
</linearGradient>
</defs>
</svg>
