<svg width="248" height="52" viewBox="0 0 248 52" fill="none" xmlns="http://www.w3.org/2000/svg">
<g filter="url(#filter0_d_21_349)">
<rect x="4" width="240" height="44" rx="8" fill="#FEFEFF"/>
<rect x="5" y="1" width="238" height="42" rx="7" stroke="#6ADA8B" stroke-width="2"/>
</g>
<path d="M52.9967 28V16.5781H55.4186V26H60.0514V28H52.9967ZM62.0436 28V16.5781H64.4654V28H62.0436ZM76.3014 16.5781L72.4186 28H69.7779L65.9029 16.5781H68.3483L70.4967 23.375C70.5331 23.4896 70.593 23.7057 70.6764 24.0234C70.7597 24.3359 70.843 24.6693 70.9264 25.0234C71.0149 25.3724 71.0748 25.6615 71.1061 25.8906C71.1373 25.6615 71.192 25.3724 71.2701 25.0234C71.3535 24.6745 71.4342 24.3438 71.5123 24.0312C71.5956 23.7135 71.6555 23.4948 71.692 23.375L73.8561 16.5781H76.3014ZM84.3248 28H77.7467V16.5781H84.3248V18.5625H80.1686V21.0703H84.0358V23.0547H80.1686V26H84.3248V28ZM97.6139 24.8281C97.6139 25.5052 97.4498 26.0938 97.1217 26.5938C96.7936 27.0938 96.3144 27.4792 95.6842 27.75C95.0592 28.0208 94.2988 28.1562 93.4029 28.1562C93.0071 28.1562 92.6191 28.1302 92.2389 28.0781C91.8639 28.026 91.5019 27.9505 91.1529 27.8516C90.8092 27.7474 90.4811 27.6198 90.1686 27.4688V25.2188C90.7102 25.4583 91.2727 25.6745 91.8561 25.8672C92.4394 26.0599 93.0175 26.1562 93.5904 26.1562C93.9863 26.1562 94.304 26.1042 94.5436 26C94.7884 25.8958 94.9654 25.7526 95.0748 25.5703C95.1842 25.388 95.2389 25.1797 95.2389 24.9453C95.2389 24.6589 95.1425 24.4141 94.9498 24.2109C94.7571 24.0078 94.4915 23.8177 94.1529 23.6406C93.8196 23.4635 93.442 23.2734 93.0201 23.0703C92.7545 22.9453 92.4654 22.7943 92.1529 22.6172C91.8404 22.4349 91.5436 22.2135 91.2623 21.9531C90.9811 21.6927 90.7493 21.3776 90.567 21.0078C90.3899 20.6328 90.3014 20.1849 90.3014 19.6641C90.3014 18.9818 90.4576 18.3984 90.7701 17.9141C91.0826 17.4297 91.5279 17.0599 92.1061 16.8047C92.6894 16.5443 93.3769 16.4141 94.1686 16.4141C94.7623 16.4141 95.3274 16.4844 95.8639 16.625C96.4055 16.7604 96.9706 16.9583 97.5592 17.2188L96.7779 19.1016C96.2519 18.888 95.7805 18.724 95.3639 18.6094C94.9472 18.4896 94.5227 18.4297 94.0904 18.4297C93.7884 18.4297 93.5305 18.4792 93.317 18.5781C93.1035 18.6719 92.942 18.8073 92.8326 18.9844C92.7233 19.1562 92.6686 19.3568 92.6686 19.5859C92.6686 19.8568 92.7467 20.0859 92.9029 20.2734C93.0644 20.4557 93.304 20.6328 93.6217 20.8047C93.9446 20.9766 94.3456 21.1771 94.8248 21.4062C95.4081 21.6823 95.9055 21.9714 96.317 22.2734C96.7337 22.5703 97.054 22.9219 97.2779 23.3281C97.5019 23.7292 97.6139 24.2292 97.6139 24.8281ZM104.536 18.4297C104.072 18.4297 103.661 18.5208 103.301 18.7031C102.947 18.8802 102.648 19.138 102.403 19.4766C102.163 19.8151 101.981 20.224 101.856 20.7031C101.731 21.1823 101.669 21.7214 101.669 22.3203C101.669 23.1276 101.768 23.8177 101.965 24.3906C102.169 24.9583 102.481 25.3932 102.903 25.6953C103.325 25.9922 103.869 26.1406 104.536 26.1406C104.999 26.1406 105.463 26.0885 105.926 25.9844C106.395 25.8802 106.903 25.7318 107.45 25.5391V27.5703C106.945 27.7786 106.447 27.9271 105.958 28.0156C105.468 28.1094 104.919 28.1562 104.309 28.1562C103.132 28.1562 102.163 27.9141 101.403 27.4297C100.648 26.9401 100.088 26.2578 99.7233 25.3828C99.3587 24.5026 99.1764 23.4766 99.1764 22.3047C99.1764 21.4401 99.2936 20.6484 99.5279 19.9297C99.7623 19.2109 100.106 18.5885 100.559 18.0625C101.012 17.5365 101.572 17.1302 102.239 16.8438C102.906 16.5573 103.671 16.4141 104.536 16.4141C105.103 16.4141 105.671 16.487 106.239 16.6328C106.812 16.7734 107.359 16.9688 107.88 17.2188L107.098 19.1875C106.671 18.9844 106.241 18.8073 105.809 18.6562C105.377 18.5052 104.952 18.4297 104.536 18.4297ZM120.255 22.2734C120.255 23.1536 120.145 23.9557 119.926 24.6797C119.708 25.3984 119.374 26.0182 118.926 26.5391C118.484 27.0599 117.921 27.4609 117.239 27.7422C116.557 28.0182 115.749 28.1562 114.817 28.1562C113.885 28.1562 113.077 28.0182 112.395 27.7422C111.713 27.4609 111.148 27.0599 110.7 26.5391C110.257 26.0182 109.926 25.3958 109.708 24.6719C109.489 23.9479 109.38 23.1432 109.38 22.2578C109.38 21.0755 109.572 20.0469 109.958 19.1719C110.348 18.2917 110.947 17.6094 111.755 17.125C112.562 16.6406 113.588 16.3984 114.833 16.3984C116.072 16.3984 117.09 16.6406 117.887 17.125C118.689 17.6094 119.283 18.2917 119.669 19.1719C120.059 20.0521 120.255 21.0859 120.255 22.2734ZM111.919 22.2734C111.919 23.0703 112.018 23.7578 112.215 24.3359C112.419 24.9089 112.734 25.3516 113.161 25.6641C113.588 25.9714 114.14 26.125 114.817 26.125C115.505 26.125 116.062 25.9714 116.489 25.6641C116.916 25.3516 117.226 24.9089 117.419 24.3359C117.616 23.7578 117.715 23.0703 117.715 22.2734C117.715 21.0755 117.491 20.1328 117.044 19.4453C116.596 18.7578 115.859 18.4141 114.833 18.4141C114.15 18.4141 113.593 18.5703 113.161 18.8828C112.734 19.1901 112.419 19.6328 112.215 20.2109C112.018 20.7839 111.919 21.4714 111.919 22.2734ZM125.95 16.5781C126.986 16.5781 127.84 16.7031 128.512 16.9531C129.189 17.2031 129.692 17.5807 130.02 18.0859C130.348 18.5911 130.512 19.2292 130.512 20C130.512 20.5208 130.413 20.9766 130.215 21.3672C130.018 21.7578 129.757 22.0885 129.434 22.3594C129.111 22.6302 128.762 22.8516 128.387 23.0234L131.747 28H129.059L126.333 23.6172H125.044V28H122.622V16.5781H125.95ZM125.778 18.5625H125.044V21.6484H125.825C126.627 21.6484 127.2 21.5156 127.544 21.25C127.893 20.9792 128.067 20.5833 128.067 20.0625C128.067 19.5208 127.88 19.1354 127.505 18.9062C127.135 18.6771 126.559 18.5625 125.778 18.5625ZM139.762 28H133.184V16.5781H139.762V18.5625H135.606V21.0703H139.473V23.0547H135.606V26H139.762V28ZM142.153 16.5781H145.708C147.228 16.5781 148.38 16.7917 149.161 17.2188C149.942 17.6458 150.333 18.3958 150.333 19.4688C150.333 19.901 150.262 20.2917 150.122 20.6406C149.986 20.9896 149.788 21.276 149.528 21.5C149.268 21.724 148.95 21.8698 148.575 21.9375V22.0156C148.955 22.0938 149.299 22.2292 149.606 22.4219C149.913 22.6094 150.158 22.8854 150.34 23.25C150.528 23.6094 150.622 24.0885 150.622 24.6875C150.622 25.3802 150.452 25.974 150.114 26.4688C149.775 26.9635 149.291 27.3438 148.661 27.6094C148.036 27.8698 147.291 28 146.426 28H142.153V16.5781ZM144.575 21.1016H145.981C146.684 21.1016 147.171 20.9922 147.442 20.7734C147.713 20.5495 147.848 20.2214 147.848 19.7891C147.848 19.3516 147.687 19.0391 147.364 18.8516C147.046 18.6589 146.541 18.5625 145.848 18.5625H144.575V21.1016ZM144.575 23.0234V26H146.153C146.882 26 147.39 25.8594 147.676 25.5781C147.963 25.2969 148.106 24.9193 148.106 24.4453C148.106 24.1641 148.044 23.9167 147.919 23.7031C147.794 23.4896 147.583 23.3229 147.286 23.2031C146.994 23.0833 146.59 23.0234 146.075 23.0234H144.575ZM163.27 22.2734C163.27 23.1536 163.161 23.9557 162.942 24.6797C162.723 25.3984 162.39 26.0182 161.942 26.5391C161.499 27.0599 160.937 27.4609 160.255 27.7422C159.572 28.0182 158.765 28.1562 157.833 28.1562C156.9 28.1562 156.093 28.0182 155.411 27.7422C154.728 27.4609 154.163 27.0599 153.715 26.5391C153.273 26.0182 152.942 25.3958 152.723 24.6719C152.505 23.9479 152.395 23.1432 152.395 22.2578C152.395 21.0755 152.588 20.0469 152.973 19.1719C153.364 18.2917 153.963 17.6094 154.77 17.125C155.577 16.6406 156.603 16.3984 157.848 16.3984C159.088 16.3984 160.106 16.6406 160.903 17.125C161.705 17.6094 162.299 18.2917 162.684 19.1719C163.075 20.0521 163.27 21.0859 163.27 22.2734ZM154.934 22.2734C154.934 23.0703 155.033 23.7578 155.231 24.3359C155.434 24.9089 155.749 25.3516 156.176 25.6641C156.603 25.9714 157.156 26.125 157.833 26.125C158.52 26.125 159.077 25.9714 159.505 25.6641C159.932 25.3516 160.241 24.9089 160.434 24.3359C160.632 23.7578 160.731 23.0703 160.731 22.2734C160.731 21.0755 160.507 20.1328 160.059 19.4453C159.611 18.7578 158.874 18.4141 157.848 18.4141C157.166 18.4141 156.609 18.5703 156.176 18.8828C155.749 19.1901 155.434 19.6328 155.231 20.2109C155.033 20.7839 154.934 21.4714 154.934 22.2734ZM172.63 28L171.801 25.2812H167.637L166.809 28H164.2L168.231 16.5312H171.192L175.239 28H172.63ZM171.223 23.25L170.395 20.5938C170.343 20.4167 170.273 20.1901 170.184 19.9141C170.101 19.6328 170.015 19.349 169.926 19.0625C169.843 18.7708 169.775 18.5182 169.723 18.3047C169.671 18.5182 169.598 18.7839 169.505 19.1016C169.416 19.4141 169.33 19.7109 169.247 19.9922C169.163 20.2734 169.103 20.474 169.067 20.5938L168.247 23.25H171.223ZM180.012 16.5781C181.049 16.5781 181.903 16.7031 182.575 16.9531C183.252 17.2031 183.755 17.5807 184.083 18.0859C184.411 18.5911 184.575 19.2292 184.575 20C184.575 20.5208 184.476 20.9766 184.278 21.3672C184.08 21.7578 183.82 22.0885 183.497 22.3594C183.174 22.6302 182.825 22.8516 182.45 23.0234L185.809 28H183.122L180.395 23.6172H179.106V28H176.684V16.5781H180.012ZM179.84 18.5625H179.106V21.6484H179.887C180.689 21.6484 181.262 21.5156 181.606 21.25C181.955 20.9792 182.13 20.5833 182.13 20.0625C182.13 19.5208 181.942 19.1354 181.567 18.9062C181.197 18.6771 180.622 18.5625 179.84 18.5625ZM196.723 22.1797C196.723 23.4661 196.476 24.5417 195.981 25.4062C195.491 26.2656 194.781 26.9141 193.848 27.3516C192.916 27.7839 191.794 28 190.481 28H187.247V16.5781H190.833C192.031 16.5781 193.07 16.7917 193.95 17.2188C194.83 17.6406 195.512 18.2682 195.997 19.1016C196.481 19.9297 196.723 20.9557 196.723 22.1797ZM194.208 22.2422C194.208 21.3984 194.083 20.7057 193.833 20.1641C193.588 19.6172 193.223 19.2135 192.739 18.9531C192.26 18.6927 191.666 18.5625 190.958 18.5625H189.669V26H190.708C191.89 26 192.768 25.6849 193.34 25.0547C193.919 24.4245 194.208 23.487 194.208 22.2422Z" fill="#5AC479"/>
<defs>
<filter id="filter0_d_21_349" x="0" y="0" width="248" height="52" filterUnits="userSpaceOnUse" color-interpolation-filters="sRGB">
<feFlood flood-opacity="0" result="BackgroundImageFix"/>
<feColorMatrix in="SourceAlpha" type="matrix" values="0 0 0 0 0 0 0 0 0 0 0 0 0 0 0 0 0 0 127 0" result="hardAlpha"/>
<feOffset dy="4"/>
<feGaussianBlur stdDeviation="2"/>
<feComposite in2="hardAlpha" operator="out"/>
<feColorMatrix type="matrix" values="0 0 0 0 0.352941 0 0 0 0 0.768627 0 0 0 0 0.47451 0 0 0 0.25 0"/>
<feBlend mode="normal" in2="BackgroundImageFix" result="effect1_dropShadow_21_349"/>
<feBlend mode="normal" in="SourceGraphic" in2="effect1_dropShadow_21_349" result="shape"/>
</filter>
</defs>
</svg>
