<svg width="248" height="52" viewBox="0 0 248 52" fill="none" xmlns="http://www.w3.org/2000/svg">
<g filter="url(#filter0_d_27_394)">
<rect x="4" width="240" height="44" rx="8" fill="url(#paint0_linear_27_394)"/>
<rect x="5" y="1" width="238" height="42" rx="7" stroke="#F88138" stroke-width="2"/>
</g>
<path d="M101.035 14.8672C103.246 14.8672 104.859 15.3438 105.875 16.2969C106.891 17.2422 107.398 18.5469 107.398 20.2109C107.398 20.9609 107.285 21.6797 107.059 22.3672C106.832 23.0469 106.461 23.6523 105.945 24.1836C105.438 24.7148 104.758 25.1367 103.906 25.4492C103.055 25.7539 102.004 25.9062 100.754 25.9062H99.1953V32H95.5625V14.8672H101.035ZM100.848 17.8438H99.1953V22.9297H100.391C101.07 22.9297 101.66 22.8398 102.16 22.6602C102.66 22.4805 103.047 22.1992 103.32 21.8164C103.594 21.4336 103.73 20.9414 103.73 20.3398C103.73 19.4961 103.496 18.8711 103.027 18.4648C102.559 18.0508 101.832 17.8438 100.848 17.8438ZM110.633 32V14.8672H114.266V29H121.215V32H110.633ZM134.691 32L133.449 27.9219H127.203L125.961 32H122.047L128.094 14.7969H132.535L138.605 32H134.691ZM132.582 24.875L131.34 20.8906C131.262 20.625 131.156 20.2852 131.023 19.8711C130.898 19.4492 130.77 19.0234 130.637 18.5938C130.512 18.1562 130.41 17.7773 130.332 17.457C130.254 17.7773 130.145 18.1758 130.004 18.6523C129.871 19.1211 129.742 19.5664 129.617 19.9883C129.492 20.4102 129.402 20.7109 129.348 20.8906L128.117 24.875H132.582ZM146.105 21.9219L149.68 14.8672H153.594L147.91 25.332V32H144.301V25.4492L138.617 14.8672H142.555L146.105 21.9219Z" fill="#FEFEFF"/>
<defs>
<filter id="filter0_d_27_394" x="0" y="0" width="248" height="52" filterUnits="userSpaceOnUse" color-interpolation-filters="sRGB">
<feFlood flood-opacity="0" result="BackgroundImageFix"/>
<feColorMatrix in="SourceAlpha" type="matrix" values="0 0 0 0 0 0 0 0 0 0 0 0 0 0 0 0 0 0 127 0" result="hardAlpha"/>
<feOffset dy="4"/>
<feGaussianBlur stdDeviation="2"/>
<feComposite in2="hardAlpha" operator="out"/>
<feColorMatrix type="matrix" values="0 0 0 0 0.960784 0 0 0 0 0.380392 0 0 0 0 0.0196078 0 0 0 0.25 0"/>
<feBlend mode="normal" in2="BackgroundImageFix" result="effect1_dropShadow_27_394"/>
<feBlend mode="normal" in="SourceGraphic" in2="effect1_dropShadow_27_394" result="shape"/>
</filter>
<linearGradient id="paint0_linear_27_394" x1="124" y1="0" x2="124" y2="44" gradientUnits="userSpaceOnUse">
<stop stop-color="#FFA959"/>
<stop offset="0.71875" stop-color="#F88138"/>
<stop offset="1" stop-color="#E25E0C"/>
</linearGradient>
</defs>
</svg>
