<svg width="246" height="46" viewBox="0 0 246 46" fill="none" xmlns="http://www.w3.org/2000/svg">
<path d="M63 0C59.7 0 57 2.7 57 6C57 9.3 63 18.9 63 18.9C63 18.9 69 9.3 69 6C69 2.7 66.3 0 63 0ZM63 9.6C60.9 9.6 59.2 7.9 59.2 5.8C59.2 3.7 60.9 2.1 63 2.1C65.1 2.1 66.8 3.8 66.8 5.9C66.8 8 65.1 9.6 63 9.6Z" fill="url(#paint0_linear_142_302)"/>
<path d="M9 27H59" stroke="#005983" stroke-miterlimit="10" stroke-linecap="round" stroke-linejoin="round"/>
<path d="M67 27H117" stroke="#FEFEFF" stroke-miterlimit="10" stroke-linecap="round" stroke-linejoin="round"/>
<path d="M125 27H175" stroke="#FEFEFF" stroke-miterlimit="10" stroke-linecap="round" stroke-linejoin="round"/>
<path d="M183 27H233" stroke="#FEFEFF" stroke-miterlimit="10" stroke-linecap="round" stroke-linejoin="round"/>
<path d="M121 31C123.209 31 125 29.2091 125 27C125 24.7909 123.209 23 121 23C118.791 23 117 24.7909 117 27C117 29.2091 118.791 31 121 31Z" stroke="#FEFEFF" stroke-miterlimit="10"/>
<path d="M121 29C122.105 29 123 28.1046 123 27C123 25.8954 122.105 25 121 25C119.895 25 119 25.8954 119 27C119 28.1046 119.895 29 121 29Z" fill="#FEFEFF"/>
<path d="M179 31C181.209 31 183 29.2091 183 27C183 24.7909 181.209 23 179 23C176.791 23 175 24.7909 175 27C175 29.2091 176.791 31 179 31Z" stroke="#FEFEFF" stroke-miterlimit="10"/>
<path d="M179 29C180.105 29 181 28.1046 181 27C181 25.8954 180.105 25 179 25C177.895 25 177 25.8954 177 27C177 28.1046 177.895 29 179 29Z" fill="#FEFEFF"/>
<path d="M237 31C239.209 31 241 29.2091 241 27C241 24.7909 239.209 23 237 23C234.791 23 233 24.7909 233 27C233 29.2091 234.791 31 237 31Z" stroke="#FEFEFF" stroke-miterlimit="10"/>
<path d="M237 29C238.105 29 239 28.1046 239 27C239 25.8954 238.105 25 237 25C235.895 25 235 25.8954 235 27C235 28.1046 235.895 29 237 29Z" fill="#FEFEFF"/>
<path d="M5 31C7.20914 31 9 29.2091 9 27C9 24.7909 7.20914 23 5 23C2.79086 23 1 24.7909 1 27C1 29.2091 2.79086 31 5 31Z" stroke="#005983" stroke-miterlimit="10"/>
<path d="M5 29C6.10457 29 7 28.1046 7 27C7 25.8954 6.10457 25 5 25C3.89543 25 3 25.8954 3 27C3 28.1046 3.89543 29 5 29Z" fill="#005983"/>
<path d="M63 31C65.2091 31 67 29.2091 67 27C67 24.7909 65.2091 23 63 23C60.7909 23 59 24.7909 59 27C59 29.2091 60.7909 31 63 31Z" stroke="#005983" stroke-miterlimit="10"/>
<path d="M63 29C64.1046 29 65 28.1046 65 27C65 25.8954 64.1046 25 63 25C61.8954 25 61 25.8954 61 27C61 28.1046 61.8954 29 63 29Z" fill="#005983"/>
<path d="M6.37891 41.1367C6.37891 41.6003 6.34375 42.0143 6.27344 42.3789C6.20312 42.7435 6.09245 43.0521 5.94141 43.3047C5.79036 43.5573 5.59505 43.75 5.35547 43.8828C5.11589 44.013 4.82812 44.0781 4.49219 44.0781C4.06771 44.0781 3.71615 43.9622 3.4375 43.7305C3.16146 43.4987 2.95443 43.1641 2.81641 42.7266C2.68099 42.2865 2.61328 41.7565 2.61328 41.1367C2.61328 40.5273 2.67448 40.0039 2.79688 39.5664C2.92188 39.1263 3.1224 38.7891 3.39844 38.5547C3.67448 38.3177 4.03906 38.1992 4.49219 38.1992C4.92188 38.1992 5.27604 38.3164 5.55469 38.5508C5.83333 38.7826 6.04036 39.1185 6.17578 39.5586C6.3112 39.9961 6.37891 40.5221 6.37891 41.1367ZM3.26562 41.1367C3.26562 41.668 3.30599 42.1107 3.38672 42.4648C3.46745 42.819 3.59766 43.0846 3.77734 43.2617C3.95964 43.4362 4.19792 43.5234 4.49219 43.5234C4.78646 43.5234 5.02344 43.4362 5.20312 43.2617C5.38542 43.0872 5.51693 42.8229 5.59766 42.4688C5.68099 42.1146 5.72266 41.6706 5.72266 41.1367C5.72266 40.6133 5.68229 40.1758 5.60156 39.8242C5.52083 39.4701 5.39062 39.2044 5.21094 39.0273C5.03125 38.8477 4.79167 38.7578 4.49219 38.7578C4.19271 38.7578 3.95312 38.8477 3.77344 39.0273C3.59375 39.2044 3.46354 39.4701 3.38281 39.8242C3.30469 40.1758 3.26562 40.6133 3.26562 41.1367Z" fill="#005983"/>
<path d="M60.2695 44H56.5273V43.457L58.0547 41.9062C58.3385 41.6198 58.5768 41.3646 58.7695 41.1406C58.9648 40.9167 59.1133 40.6966 59.2148 40.4805C59.3164 40.2617 59.3672 40.0221 59.3672 39.7617C59.3672 39.4388 59.2708 39.1927 59.0781 39.0234C58.888 38.8516 58.6367 38.7656 58.3242 38.7656C58.0508 38.7656 57.8086 38.8125 57.5977 38.9062C57.3867 39 57.1706 39.1328 56.9492 39.3047L56.6016 38.8672C56.7526 38.7396 56.9167 38.6263 57.0938 38.5273C57.2734 38.4284 57.4648 38.3503 57.668 38.293C57.8737 38.2357 58.0924 38.207 58.3242 38.207C58.6758 38.207 58.9792 38.2682 59.2344 38.3906C59.4896 38.513 59.6862 38.6875 59.8242 38.9141C59.9648 39.1406 60.0352 39.4102 60.0352 39.7227C60.0352 40.0247 59.9753 40.306 59.8555 40.5664C59.7357 40.8242 59.5677 41.0807 59.3516 41.3359C59.1354 41.5885 58.8828 41.8568 58.5938 42.1406L57.3516 43.3789V43.4062H60.2695V44ZM62.9102 40.5078C63.2982 40.5078 63.6354 40.5742 63.9219 40.707C64.2083 40.8372 64.4297 41.0273 64.5859 41.2773C64.7448 41.5273 64.8242 41.8307 64.8242 42.1875C64.8242 42.5781 64.7396 42.9154 64.5703 43.1992C64.401 43.4805 64.1576 43.6979 63.8398 43.8516C63.5221 44.0026 63.1419 44.0781 62.6992 44.0781C62.4023 44.0781 62.1263 44.0521 61.8711 44C61.6159 43.9479 61.401 43.8698 61.2266 43.7656V43.1484C61.4167 43.263 61.6471 43.3542 61.918 43.4219C62.1888 43.4896 62.4518 43.5234 62.707 43.5234C62.9961 43.5234 63.2487 43.4779 63.4648 43.3867C63.6836 43.293 63.8529 43.1523 63.9727 42.9648C64.0951 42.7747 64.1562 42.5365 64.1562 42.25C64.1562 41.8698 64.0391 41.5768 63.8047 41.3711C63.5729 41.1628 63.2057 41.0586 62.7031 41.0586C62.5417 41.0586 62.3646 41.0716 62.1719 41.0977C61.9792 41.1237 61.8203 41.1523 61.6953 41.1836L61.3672 40.9688L61.5859 38.2891H64.4258V38.8828H62.1406L61.9961 40.6055C62.0951 40.5846 62.2227 40.5638 62.3789 40.543C62.5352 40.5195 62.7122 40.5078 62.9102 40.5078ZM69.457 41.1367C69.457 41.6003 69.4219 42.0143 69.3516 42.3789C69.2812 42.7435 69.1706 43.0521 69.0195 43.3047C68.8685 43.5573 68.6732 43.75 68.4336 43.8828C68.194 44.013 67.9062 44.0781 67.5703 44.0781C67.1458 44.0781 66.7943 43.9622 66.5156 43.7305C66.2396 43.4987 66.0326 43.1641 65.8945 42.7266C65.7591 42.2865 65.6914 41.7565 65.6914 41.1367C65.6914 40.5273 65.7526 40.0039 65.875 39.5664C66 39.1263 66.2005 38.7891 66.4766 38.5547C66.7526 38.3177 67.1172 38.1992 67.5703 38.1992C68 38.1992 68.3542 38.3164 68.6328 38.5508C68.9115 38.7826 69.1185 39.1185 69.2539 39.5586C69.3893 39.9961 69.457 40.5221 69.457 41.1367ZM66.3438 41.1367C66.3438 41.668 66.3841 42.1107 66.4648 42.4648C66.5456 42.819 66.6758 43.0846 66.8555 43.2617C67.0378 43.4362 67.276 43.5234 67.5703 43.5234C67.8646 43.5234 68.1016 43.4362 68.2812 43.2617C68.4635 43.0872 68.5951 42.8229 68.6758 42.4688C68.7591 42.1146 68.8008 41.6706 68.8008 41.1367C68.8008 40.6133 68.7604 40.1758 68.6797 39.8242C68.599 39.4701 68.4688 39.2044 68.2891 39.0273C68.1094 38.8477 67.8698 38.7578 67.5703 38.7578C67.2708 38.7578 67.0312 38.8477 66.8516 39.0273C66.6719 39.2044 66.5417 39.4701 66.4609 39.8242C66.3828 40.1758 66.3438 40.6133 66.3438 41.1367Z" fill="#005983"/>
<path d="M116.332 40.5078C116.72 40.5078 117.057 40.5742 117.344 40.707C117.63 40.8372 117.852 41.0273 118.008 41.2773C118.167 41.5273 118.246 41.8307 118.246 42.1875C118.246 42.5781 118.161 42.9154 117.992 43.1992C117.823 43.4805 117.579 43.6979 117.262 43.8516C116.944 44.0026 116.564 44.0781 116.121 44.0781C115.824 44.0781 115.548 44.0521 115.293 44C115.038 43.9479 114.823 43.8698 114.648 43.7656V43.1484C114.839 43.263 115.069 43.3542 115.34 43.4219C115.611 43.4896 115.874 43.5234 116.129 43.5234C116.418 43.5234 116.671 43.4779 116.887 43.3867C117.105 43.293 117.275 43.1523 117.395 42.9648C117.517 42.7747 117.578 42.5365 117.578 42.25C117.578 41.8698 117.461 41.5768 117.227 41.3711C116.995 41.1628 116.628 41.0586 116.125 41.0586C115.964 41.0586 115.786 41.0716 115.594 41.0977C115.401 41.1237 115.242 41.1523 115.117 41.1836L114.789 40.9688L115.008 38.2891H117.848V38.8828H115.562L115.418 40.6055C115.517 40.5846 115.645 40.5638 115.801 40.543C115.957 40.5195 116.134 40.5078 116.332 40.5078ZM122.879 41.1367C122.879 41.6003 122.844 42.0143 122.773 42.3789C122.703 42.7435 122.592 43.0521 122.441 43.3047C122.29 43.5573 122.095 43.75 121.855 43.8828C121.616 44.013 121.328 44.0781 120.992 44.0781C120.568 44.0781 120.216 43.9622 119.938 43.7305C119.661 43.4987 119.454 43.1641 119.316 42.7266C119.181 42.2865 119.113 41.7565 119.113 41.1367C119.113 40.5273 119.174 40.0039 119.297 39.5664C119.422 39.1263 119.622 38.7891 119.898 38.5547C120.174 38.3177 120.539 38.1992 120.992 38.1992C121.422 38.1992 121.776 38.3164 122.055 38.5508C122.333 38.7826 122.54 39.1185 122.676 39.5586C122.811 39.9961 122.879 40.5221 122.879 41.1367ZM119.766 41.1367C119.766 41.668 119.806 42.1107 119.887 42.4648C119.967 42.819 120.098 43.0846 120.277 43.2617C120.46 43.4362 120.698 43.5234 120.992 43.5234C121.286 43.5234 121.523 43.4362 121.703 43.2617C121.885 43.0872 122.017 42.8229 122.098 42.4688C122.181 42.1146 122.223 41.6706 122.223 41.1367C122.223 40.6133 122.182 40.1758 122.102 39.8242C122.021 39.4701 121.891 39.2044 121.711 39.0273C121.531 38.8477 121.292 38.7578 120.992 38.7578C120.693 38.7578 120.453 38.8477 120.273 39.0273C120.094 39.2044 119.964 39.4701 119.883 39.8242C119.805 40.1758 119.766 40.6133 119.766 41.1367ZM127.457 41.1367C127.457 41.6003 127.422 42.0143 127.352 42.3789C127.281 42.7435 127.171 43.0521 127.02 43.3047C126.868 43.5573 126.673 43.75 126.434 43.8828C126.194 44.013 125.906 44.0781 125.57 44.0781C125.146 44.0781 124.794 43.9622 124.516 43.7305C124.24 43.4987 124.033 43.1641 123.895 42.7266C123.759 42.2865 123.691 41.7565 123.691 41.1367C123.691 40.5273 123.753 40.0039 123.875 39.5664C124 39.1263 124.201 38.7891 124.477 38.5547C124.753 38.3177 125.117 38.1992 125.57 38.1992C126 38.1992 126.354 38.3164 126.633 38.5508C126.911 38.7826 127.118 39.1185 127.254 39.5586C127.389 39.9961 127.457 40.5221 127.457 41.1367ZM124.344 41.1367C124.344 41.668 124.384 42.1107 124.465 42.4648C124.546 42.819 124.676 43.0846 124.855 43.2617C125.038 43.4362 125.276 43.5234 125.57 43.5234C125.865 43.5234 126.102 43.4362 126.281 43.2617C126.464 43.0872 126.595 42.8229 126.676 42.4688C126.759 42.1146 126.801 41.6706 126.801 41.1367C126.801 40.6133 126.76 40.1758 126.68 39.8242C126.599 39.4701 126.469 39.2044 126.289 39.0273C126.109 38.8477 125.87 38.7578 125.57 38.7578C125.271 38.7578 125.031 38.8477 124.852 39.0273C124.672 39.2044 124.542 39.4701 124.461 39.8242C124.383 40.1758 124.344 40.6133 124.344 41.1367Z" fill="#FEFEFF"/>
<path d="M173.266 44L175.609 38.8828H172.496V38.2891H176.305V38.7891L173.977 44H173.266ZM178.91 40.5078C179.298 40.5078 179.635 40.5742 179.922 40.707C180.208 40.8372 180.43 41.0273 180.586 41.2773C180.745 41.5273 180.824 41.8307 180.824 42.1875C180.824 42.5781 180.74 42.9154 180.57 43.1992C180.401 43.4805 180.158 43.6979 179.84 43.8516C179.522 44.0026 179.142 44.0781 178.699 44.0781C178.402 44.0781 178.126 44.0521 177.871 44C177.616 43.9479 177.401 43.8698 177.227 43.7656V43.1484C177.417 43.263 177.647 43.3542 177.918 43.4219C178.189 43.4896 178.452 43.5234 178.707 43.5234C178.996 43.5234 179.249 43.4779 179.465 43.3867C179.684 43.293 179.853 43.1523 179.973 42.9648C180.095 42.7747 180.156 42.5365 180.156 42.25C180.156 41.8698 180.039 41.5768 179.805 41.3711C179.573 41.1628 179.206 41.0586 178.703 41.0586C178.542 41.0586 178.365 41.0716 178.172 41.0977C177.979 41.1237 177.82 41.1523 177.695 41.1836L177.367 40.9688L177.586 38.2891H180.426V38.8828H178.141L177.996 40.6055C178.095 40.5846 178.223 40.5638 178.379 40.543C178.535 40.5195 178.712 40.5078 178.91 40.5078ZM185.457 41.1367C185.457 41.6003 185.422 42.0143 185.352 42.3789C185.281 42.7435 185.171 43.0521 185.02 43.3047C184.868 43.5573 184.673 43.75 184.434 43.8828C184.194 44.013 183.906 44.0781 183.57 44.0781C183.146 44.0781 182.794 43.9622 182.516 43.7305C182.24 43.4987 182.033 43.1641 181.895 42.7266C181.759 42.2865 181.691 41.7565 181.691 41.1367C181.691 40.5273 181.753 40.0039 181.875 39.5664C182 39.1263 182.201 38.7891 182.477 38.5547C182.753 38.3177 183.117 38.1992 183.57 38.1992C184 38.1992 184.354 38.3164 184.633 38.5508C184.911 38.7826 185.118 39.1185 185.254 39.5586C185.389 39.9961 185.457 40.5221 185.457 41.1367ZM182.344 41.1367C182.344 41.668 182.384 42.1107 182.465 42.4648C182.546 42.819 182.676 43.0846 182.855 43.2617C183.038 43.4362 183.276 43.5234 183.57 43.5234C183.865 43.5234 184.102 43.4362 184.281 43.2617C184.464 43.0872 184.595 42.8229 184.676 42.4688C184.759 42.1146 184.801 41.6706 184.801 41.1367C184.801 40.6133 184.76 40.1758 184.68 39.8242C184.599 39.4701 184.469 39.2044 184.289 39.0273C184.109 38.8477 183.87 38.7578 183.57 38.7578C183.271 38.7578 183.031 38.8477 182.852 39.0273C182.672 39.2044 182.542 39.4701 182.461 39.8242C182.383 40.1758 182.344 40.6133 182.344 41.1367Z" fill="#FEFEFF"/>
<path d="M230.152 44H229.52V39.9531C229.52 39.7995 229.52 39.668 229.52 39.5586C229.522 39.4466 229.525 39.3451 229.527 39.2539C229.533 39.1602 229.539 39.0651 229.547 38.9688C229.466 39.0521 229.391 39.1237 229.32 39.1836C229.25 39.2409 229.163 39.3125 229.059 39.3984L228.406 39.9219L228.066 39.4805L229.613 38.2891H230.152V44ZM236.09 41.1367C236.09 41.6003 236.055 42.0143 235.984 42.3789C235.914 42.7435 235.803 43.0521 235.652 43.3047C235.501 43.5573 235.306 43.75 235.066 43.8828C234.827 44.013 234.539 44.0781 234.203 44.0781C233.779 44.0781 233.427 43.9622 233.148 43.7305C232.872 43.4987 232.665 43.1641 232.527 42.7266C232.392 42.2865 232.324 41.7565 232.324 41.1367C232.324 40.5273 232.385 40.0039 232.508 39.5664C232.633 39.1263 232.833 38.7891 233.109 38.5547C233.385 38.3177 233.75 38.1992 234.203 38.1992C234.633 38.1992 234.987 38.3164 235.266 38.5508C235.544 38.7826 235.751 39.1185 235.887 39.5586C236.022 39.9961 236.09 40.5221 236.09 41.1367ZM232.977 41.1367C232.977 41.668 233.017 42.1107 233.098 42.4648C233.178 42.819 233.309 43.0846 233.488 43.2617C233.671 43.4362 233.909 43.5234 234.203 43.5234C234.497 43.5234 234.734 43.4362 234.914 43.2617C235.096 43.0872 235.228 42.8229 235.309 42.4688C235.392 42.1146 235.434 41.6706 235.434 41.1367C235.434 40.6133 235.393 40.1758 235.312 39.8242C235.232 39.4701 235.102 39.2044 234.922 39.0273C234.742 38.8477 234.503 38.7578 234.203 38.7578C233.904 38.7578 233.664 38.8477 233.484 39.0273C233.305 39.2044 233.174 39.4701 233.094 39.8242C233.016 40.1758 232.977 40.6133 232.977 41.1367ZM240.668 41.1367C240.668 41.6003 240.633 42.0143 240.562 42.3789C240.492 42.7435 240.382 43.0521 240.23 43.3047C240.079 43.5573 239.884 43.75 239.645 43.8828C239.405 44.013 239.117 44.0781 238.781 44.0781C238.357 44.0781 238.005 43.9622 237.727 43.7305C237.451 43.4987 237.243 43.1641 237.105 42.7266C236.97 42.2865 236.902 41.7565 236.902 41.1367C236.902 40.5273 236.964 40.0039 237.086 39.5664C237.211 39.1263 237.411 38.7891 237.688 38.5547C237.964 38.3177 238.328 38.1992 238.781 38.1992C239.211 38.1992 239.565 38.3164 239.844 38.5508C240.122 38.7826 240.329 39.1185 240.465 39.5586C240.6 39.9961 240.668 40.5221 240.668 41.1367ZM237.555 41.1367C237.555 41.668 237.595 42.1107 237.676 42.4648C237.757 42.819 237.887 43.0846 238.066 43.2617C238.249 43.4362 238.487 43.5234 238.781 43.5234C239.076 43.5234 239.312 43.4362 239.492 43.2617C239.674 43.0872 239.806 42.8229 239.887 42.4688C239.97 42.1146 240.012 41.6706 240.012 41.1367C240.012 40.6133 239.971 40.1758 239.891 39.8242C239.81 39.4701 239.68 39.2044 239.5 39.0273C239.32 38.8477 239.081 38.7578 238.781 38.7578C238.482 38.7578 238.242 38.8477 238.062 39.0273C237.883 39.2044 237.753 39.4701 237.672 39.8242C237.594 40.1758 237.555 40.6133 237.555 41.1367ZM245.246 41.1367C245.246 41.6003 245.211 42.0143 245.141 42.3789C245.07 42.7435 244.96 43.0521 244.809 43.3047C244.658 43.5573 244.462 43.75 244.223 43.8828C243.983 44.013 243.695 44.0781 243.359 44.0781C242.935 44.0781 242.583 43.9622 242.305 43.7305C242.029 43.4987 241.822 43.1641 241.684 42.7266C241.548 42.2865 241.48 41.7565 241.48 41.1367C241.48 40.5273 241.542 40.0039 241.664 39.5664C241.789 39.1263 241.99 38.7891 242.266 38.5547C242.542 38.3177 242.906 38.1992 243.359 38.1992C243.789 38.1992 244.143 38.3164 244.422 38.5508C244.701 38.7826 244.908 39.1185 245.043 39.5586C245.178 39.9961 245.246 40.5221 245.246 41.1367ZM242.133 41.1367C242.133 41.668 242.173 42.1107 242.254 42.4648C242.335 42.819 242.465 43.0846 242.645 43.2617C242.827 43.4362 243.065 43.5234 243.359 43.5234C243.654 43.5234 243.891 43.4362 244.07 43.2617C244.253 43.0872 244.384 42.8229 244.465 42.4688C244.548 42.1146 244.59 41.6706 244.59 41.1367C244.59 40.6133 244.549 40.1758 244.469 39.8242C244.388 39.4701 244.258 39.2044 244.078 39.0273C243.898 38.8477 243.659 38.7578 243.359 38.7578C243.06 38.7578 242.82 38.8477 242.641 39.0273C242.461 39.2044 242.331 39.4701 242.25 39.8242C242.172 40.1758 242.133 40.6133 242.133 41.1367Z" fill="#FEFEFF"/>
<defs>
<linearGradient id="paint0_linear_142_302" x1="63" y1="0" x2="63" y2="18.9" gradientUnits="userSpaceOnUse">
<stop stop-color="#D8F5FF"/>
<stop offset="0.28125" stop-color="#48A5D1"/>
<stop offset="1" stop-color="#005983"/>
</linearGradient>
</defs>
</svg>
